<?xml version="1.0" encoding="UTF-8"?>
<svg width="22px" height="22px" viewBox="0 0 22 22" version="1.1" xmlns="http://www.w3.org/2000/svg" xmlns:xlink="http://www.w3.org/1999/xlink">
    <title>icon_articel</title>
    <g id="Page-1" stroke="none" stroke-width="1" fill="none" fill-rule="evenodd">
        <g id="æ›icon" transform="translate(-1116.000000, -1163.000000)">
            <g id="icon_articel" transform="translate(1116.000000, 1163.000000)">
                <rect id="Rectangle" opacity="0.511323475" x="0" y="0" width="22" height="22"></rect>
                <polygon id="Combined-Shape" fill="#898989" fill-rule="nonzero" points="19.1162791 3.6744186 19.1162791 20 5.72093023 20 5.72 17.906 6.571 17.906 6.57181395 19.1496047 18.266814 19.1496047 18.266814 4.52360465 16.395 4.523 16.395 3.674"></polygon>
                <rect id="Rectangle" stroke="#898989" stroke-width="0.85" transform="translate(9.697674, 9.953488) rotate(90.000000) translate(-9.697674, -9.953488) " x="2.1691853" y="3.680814" width="15.0569767" height="12.5453488"></rect>
                <path d="M11.7906968,9.64852629 L11.7906968,3.97942123 C11.7906968,3.81097842 11.6695357,3.67441855 11.5200869,3.67441855 L7.87526014,3.67441855 C7.72581132,3.67441855 7.60465024,3.81097842 7.60465024,3.97942123 L7.60465024,9.64848564 C7.60465024,9.81692845 7.72581132,9.95348832 7.87526014,9.95348832 L11.5200869,9.95348832 C11.6695357,9.95348832 11.7906968,9.81696912 11.7906968,9.64852629 Z M11.249477,9.34352363 L8.14587004,9.34352363 L8.14587004,4.28442391 L11.2494409,4.28442391 L11.2494409,9.34352363 L11.249477,9.34352363 Z" id="Shape" stroke="#898989" stroke-width="0.1" fill="#898989" fill-rule="nonzero" transform="translate(9.697674, 6.813953) rotate(90.000000) translate(-9.697674, -6.813953) "></path>
                <path d="M13.1002487,10.7906977 L6.26975126,10.7906977 C6.12077663,10.7906977 6,10.9312651 6,11.1046512 C6,11.2780372 6.12077663,11.4186047 6.26975126,11.4186047 L13.1002487,11.4186047 C13.2492234,11.4186047 13.37,11.2780372 13.37,11.1046512 C13.37,10.9312651 13.2492234,10.7906977 13.1002487,10.7906977 Z" id="Path" stroke="#898989" stroke-width="0.1" fill="#898989" fill-rule="nonzero"></path>
                <path d="M13.1002487,13.4651163 L6.26975126,13.4651163 C6.12077663,13.4651163 6,13.6056837 6,13.7790698 C6,13.9524558 6.12077663,14.0930233 6.26975126,14.0930233 L13.1002487,14.0930233 C13.2492234,14.0930233 13.37,13.9524558 13.37,13.7790698 C13.37,13.6056837 13.2492234,13.4651163 13.1002487,13.4651163 L13.1002487,13.4651163 Z" id="Path" stroke="#898989" stroke-width="0.1" fill="#898989" fill-rule="nonzero"></path>
            </g>
        </g>
    </g>
</svg>