<?xml version="1.0" encoding="utf-8"?>
<!-- Generator: Adobe Illustrator 25.0.0, SVG Export Plug-In . SVG Version: 6.00 Build 0)  -->
<svg version="1.1" id="圖層_1" xmlns="http://www.w3.org/2000/svg" xmlns:xlink="http://www.w3.org/1999/xlink" x="0px" y="0px"
	 viewBox="0 0 31 27" style="enable-background:new 0 0 31 27;" xml:space="preserve">
<style type="text/css">
	.st0{fill:#DA000D;}
</style>
<g id="Page-1">
	<g id="換icon" transform="translate(-392.000000, -1198.000000)">
		<g id="heart-_x28_2_x29_" transform="translate(392.000000, 1198.000000)">
			<path id="Shape" class="st0" d="M22.5,0c-2.8,0-5.4,1.3-7,3.5C13.9,1.3,11.3,0,8.5,0C4,0,0,4,0,8.6c0,4.5,2.7,9.1,7.7,13.3
				c2.3,2,4.9,3.7,7.6,5.1c0.1,0.1,0.3,0.1,0.5,0c2.7-1.4,5.3-3.1,7.6-5.1c5-4.2,7.7-8.8,7.7-13.3C31,4,27,0,22.5,0z"/>
		</g>
	</g>
</g>
</svg>
