<svg id="圖層_1" data-name="圖層 1" xmlns="http://www.w3.org/2000/svg" viewBox="0 0 136.06 22.68"><defs><style>.cls-1{fill:#dc0816;}.cls-2{fill:#fff;}</style></defs><path class="cls-1" d="M18.88.46H4.64A3.76,3.76,0,0,0,.88,4.22V18.46a3.77,3.77,0,0,0,3.76,3.76H18.88a3.76,3.76,0,0,0,3.76-3.76V4.22A3.76,3.76,0,0,0,18.88.46Zm3.24,17.66a3.57,3.57,0,0,1-3.58,3.57H5a3.57,3.57,0,0,1-3.58-3.57V4.56A3.58,3.58,0,0,1,5,1H18.54a3.58,3.58,0,0,1,3.58,3.58Z"/><rect class="cls-2" x="1.41" y="0.98" width="20.71" height="20.71" rx="3.58"/><path class="cls-1" d="M41.39.46H27.15a3.76,3.76,0,0,0-3.76,3.76V18.46a3.77,3.77,0,0,0,3.76,3.76H41.39a3.77,3.77,0,0,0,3.76-3.76V4.22A3.76,3.76,0,0,0,41.39.46Zm3.24,17.66a3.58,3.58,0,0,1-3.58,3.57H27.49a3.58,3.58,0,0,1-3.58-3.57V4.56A3.58,3.58,0,0,1,27.49,1H41.05a3.58,3.58,0,0,1,3.58,3.58Z"/><rect class="cls-2" x="23.91" y="0.98" width="20.71" height="20.71" rx="3.58"/><path class="cls-1" d="M63.9.46H49.66A3.76,3.76,0,0,0,45.9,4.22V18.46a3.76,3.76,0,0,0,3.76,3.76H63.9a3.77,3.77,0,0,0,3.76-3.76V4.22A3.76,3.76,0,0,0,63.9.46Zm3.23,17.66a3.57,3.57,0,0,1-3.58,3.57H50a3.57,3.57,0,0,1-3.58-3.57V4.56A3.58,3.58,0,0,1,50,1H63.55a3.58,3.58,0,0,1,3.58,3.58Z"/><rect class="cls-2" x="46.42" y="0.98" width="20.71" height="20.71" rx="3.58"/><path class="cls-1" d="M86.4.46H72.17a3.76,3.76,0,0,0-3.76,3.76V18.46a3.76,3.76,0,0,0,3.76,3.76H86.4a3.76,3.76,0,0,0,3.76-3.76V4.22A3.76,3.76,0,0,0,86.4.46Zm3.24,17.66a3.57,3.57,0,0,1-3.58,3.57H72.51a3.57,3.57,0,0,1-3.58-3.57V4.56A3.58,3.58,0,0,1,72.51,1H86.06a3.58,3.58,0,0,1,3.58,3.58Z"/><rect class="cls-2" x="68.93" y="0.98" width="20.71" height="20.71" rx="3.58"/><path class="cls-1" d="M108.91.46H94.67a3.76,3.76,0,0,0-3.76,3.76V18.46a3.77,3.77,0,0,0,3.76,3.76h14.24a3.76,3.76,0,0,0,3.76-3.76V4.22A3.76,3.76,0,0,0,108.91.46Zm3.24,17.66a3.57,3.57,0,0,1-3.58,3.57H95a3.57,3.57,0,0,1-3.58-3.57V4.56A3.58,3.58,0,0,1,95,1h13.55a3.58,3.58,0,0,1,3.58,3.58Z"/><rect class="cls-2" x="91.44" y="0.98" width="20.71" height="20.71" rx="3.58"/><path class="cls-1" d="M131.42.46H117.18a3.76,3.76,0,0,0-3.76,3.76V18.46a3.77,3.77,0,0,0,3.76,3.76h14.24a3.77,3.77,0,0,0,3.76-3.76V4.22A3.76,3.76,0,0,0,131.42.46Zm3.24,17.66a3.58,3.58,0,0,1-3.58,3.57H117.52a3.58,3.58,0,0,1-3.58-3.57V4.56A3.58,3.58,0,0,1,117.52,1h13.56a3.58,3.58,0,0,1,3.58,3.58Z"/><rect class="cls-2" x="113.94" y="0.98" width="20.71" height="20.71" rx="3.58"/><path class="cls-1" d="M50.85,15.49a7,7,0,0,1-.87,2.1,5.79,5.79,0,0,1-.95,1.2.86.86,0,0,1-.21,0,3,3,0,0,0-.66-.52.38.38,0,0,1-.08-.25,4.72,4.72,0,0,0,1-1.39,8.92,8.92,0,0,0,.64-1.93,16.4,16.4,0,0,0,.18-2.56V8.79c0-.15.1-.23.3-.23h8.34c.18,0,.29.08.29.23v4.84a.27.27,0,0,1-.29.3H51.13A13.57,13.57,0,0,1,50.85,15.49Zm5-12.38c.11.09.17.16.17.24s-.13.2-.36.2l-.26,0a5.19,5.19,0,0,0,.75.84,5.16,5.16,0,0,0,1.29.94,6.56,6.56,0,0,0,2.12,1c.11,0,.17,0,.17.09a.33.33,0,0,1-.09.21,6.18,6.18,0,0,0-.69.59c-.08.09-.13.13-.17.13a6.33,6.33,0,0,1-1.56-.69,6.73,6.73,0,0,1-1.59-1.17,7.65,7.65,0,0,1-1.08-1.19,9.32,9.32,0,0,1-1.06,1,11.32,11.32,0,0,1-1.37,1l-.26.17h5c.1,0,.15.07.15.2v.58c0,.14-.05.22-.15.22H51.7c-.11,0-.15-.08-.15-.22V6.69c-.33.22-.67.41-1,.59a10.34,10.34,0,0,1-1.32.63A.32.32,0,0,1,49,7.73a3,3,0,0,0-.53-.65c-.13-.08-.19-.13-.19-.19l.07-.07a13.37,13.37,0,0,0,1.9-.76,13.59,13.59,0,0,0,2.06-1.32,9.71,9.71,0,0,0,1.13-1,8.84,8.84,0,0,0,.89-1.15.44.44,0,0,1,.24-.14ZM58.52,15c.18,0,.29.08.29.2V19.3c0,.14-.11.22-.29.22h-.73c-.18,0-.28-.08-.28-.22v-.51H52.43v.51c0,.14-.1.22-.28.22H51.4c-.18,0-.27-.08-.27-.22V15.15c0-.12.09-.2.27-.2ZM51.2,12.11c0,.26,0,.5,0,.72h6.33V11.76H51.2Zm0-1.3h6.31V9.64H51.2Zm6.31,6.89V16H52.43V17.7ZM61.93,4.87c0,.17-.07.26-.19.26s-.18.17-.18.39V15.8c0,.15-.09.22-.28.22h-.72c-.21,0-.3-.07-.3-.22V4.87c0-.15.09-.22.3-.22C61.47,4.65,61.93,4.72,61.93,4.87Zm3.34-2.13c.13.07.2.13.2.16s-.07.17-.2.17-.37.39-.37.85v14.2q0,1.32-2,1.32H61.63c-.11,0-.15-.11-.15-.31a3,3,0,0,0-.35-.86c0-.11,0-.15.15-.15a8.66,8.66,0,0,0,1.52.15c.52,0,.8-.22.8-.65V3.85A5.09,5.09,0,0,0,63.53,3a.8.8,0,0,1-.08-.35c0-.07.11-.13.35-.13Z"/><path class="cls-1" d="M79.17,9.29c.15,0,.23.09.23.28v.59c0,.19-.08.28-.23.28H75.91v2H78.8c.15,0,.23.1.23.28v.6c0,.18-.08.27-.23.27H76.17a5.56,5.56,0,0,0,.81.95,8,8,0,0,0,2,1.39c.11,0,.17.1.17.13s-.06.09-.13.15a2.81,2.81,0,0,1-.48.52.33.33,0,0,1-.19.13.84.84,0,0,1-.3-.07,8.36,8.36,0,0,1-1.65-1.4l-.44-.53v4.4c0,.14-.1.22-.28.22h-.72c-.21,0-.3-.08-.3-.22V15.38a2.34,2.34,0,0,0-.19.26A16.6,16.6,0,0,1,73.2,17a13.31,13.31,0,0,1-1.49,1.17.4.4,0,0,1-.31-.11c-.22-.24-.45-.45-.65-.63a.49.49,0,0,1-.06-.19,7.86,7.86,0,0,0,1.13-.76,8.63,8.63,0,0,0,1.38-1.35,14.47,14.47,0,0,0,1.06-1.53H71.84c-.15,0-.2-.09-.2-.27v-.6c0-.18,0-.28.2-.28h2.77v-2h-3c-.14,0-.22-.09-.22-.28V9.57c0-.19.08-.28.22-.28ZM76.35,2.83c0,.17-.07.26-.18.28s-.19.15-.19.37V4.72h3.49c.08,0,.13.08.13.21v.59c0,.19,0,.28-.13.28h-1.8l.69.28c.15.07.24.15.24.24a.19.19,0,0,1-.15.18c-.11,0-.18.08-.21.21A11.83,11.83,0,0,1,77.3,9c-.08.13-.11.19-.15.19a.5.5,0,0,1-.29-.12l-.67-.31c-.1,0-.13-.06-.13-.08a.31.31,0,0,1,0-.14,8.9,8.9,0,0,0,.67-1.27,7.8,7.8,0,0,0,.49-1.43s0,0,0-.07h-4c.28.56.5,1.06.69,1.52s.35,1,.5,1.53a4.16,4.16,0,0,1-1.23.37,11.21,11.21,0,0,0-1.09-3c0-.08.2-.23.61-.45H71.34c-.11,0-.15-.09-.15-.28V4.93c0-.13,0-.21.15-.21h3.34V2.83c0-.15.1-.22.28-.22C75.89,2.61,76.35,2.68,76.35,2.83ZM87,4a8.77,8.77,0,0,1-2.17.7A14.73,14.73,0,0,1,82.07,5V8.27h5.59c.15,0,.22.11.22.3v.57c0,.2-.07.3-.22.3H86v9.78c0,.15-.1.22-.28.22H85c-.19,0-.28-.07-.28-.22V9.44H82.07v.8a29.07,29.07,0,0,1-.3,4.62A13.67,13.67,0,0,1,81,17.72a8.19,8.19,0,0,1-.87,1.65.43.43,0,0,1-.2,0,3.16,3.16,0,0,0-.67-.5.4.4,0,0,1-.08-.26,7.65,7.65,0,0,0,.88-2,18.44,18.44,0,0,0,.54-2.72,33.68,33.68,0,0,0,.18-3.64V4.15c0-.15.09-.22.3-.22h.2a19.22,19.22,0,0,0,3-.23,7.55,7.55,0,0,0,2.32-.78.45.45,0,0,1,.22-.09.33.33,0,0,1,.21.11c.59.52.89.84.89,1s-.07.27-.22.27L87.23,4A.86.86,0,0,0,87,4Z"/><path class="cls-1" d="M97.4,4a4.77,4.77,0,0,1-1,.16V5.37h2.53c.09,0,.14.07.14.22v.58c0,.18,0,.28-.14.28H96.36V7.69h2.53c.09,0,.14.07.14.22v.58c0,.18,0,.28-.14.28H96.36v1.31h10.86V8.77H105c-.09,0-.12-.1-.12-.28V7.91c0-.15,0-.22.12-.22h2.25V6.45H105c-.09,0-.12-.1-.12-.28V5.59c0-.15,0-.22.12-.22h2.25V4.07H105c-.09,0-.12-.09-.12-.3V3.2c0-.15,0-.23.12-.23h3.27c.19,0,.3.08.3.23v6.88h1.23c.18,0,.29.08.29.21v3c0,.14-.11.2-.29.2H109c-.18,0-.28-.06-.28-.2V11.16H94.84v2.12c0,.14-.11.2-.3.2h-.72c-.21,0-.3-.06-.3-.2v-3c0-.13.09-.21.3-.21h1.23V3a.2.2,0,0,1,.22-.22l.7.3a5.34,5.34,0,0,0,1.14-.15,2.43,2.43,0,0,0,1.28-.61.29.29,0,0,1,.14,0,.36.36,0,0,1,.21.11,5.81,5.81,0,0,1,.67.84c0,.15-.06.2-.15.2l-.45-.07A3.91,3.91,0,0,1,97.4,4ZM105.27,12a.65.65,0,0,1,.36.08c.24.18.37.33.37.44l-3.16,2.67a.15.15,0,0,1-.11.06v.17h7c.09,0,.15.07.15.22v.58c0,.18-.06.27-.15.27h-7V18.2c0,.87-.63,1.31-1.87,1.31H99.69c-.08,0-.11-.11-.13-.33a2,2,0,0,0-.3-.84c0-.11,0-.14.07-.14a11.6,11.6,0,0,0,1.53.14c.37,0,.57-.22.57-.65V16.52H94.17c-.09,0-.13-.09-.13-.27v-.58c0-.15,0-.22.13-.22h7.26v-1.1c0-.14.09-.22.3-.22l.44.18,1.47-1.18H97.81c-.15,0-.22-.09-.22-.3v-.57c0-.15.07-.23.22-.23Zm-1.2-8.89a.38.38,0,0,1,.11.19s-.06.09-.15.09a.85.85,0,0,0-.35.13,8.91,8.91,0,0,1-.73.76l1.38.91s0,0-.08.13l-.5.67c-.5-.37-1-.73-1.54-1.06a14,14,0,0,1-1.8,1.13.25.25,0,0,1-.24-.11,6.63,6.63,0,0,1-.52-.43c-.07,0-.11-.07-.11-.11s0-.05.09-.09a3.1,3.1,0,0,0,1-.45,3.7,3.7,0,0,0,.76-.5,14.56,14.56,0,0,0-1.65-.77,3.17,3.17,0,0,1,.46-.64c0-.05.07-.09.11-.09.71.32,1.3.61,1.82.87a12,12,0,0,0,1-1.13c0-.07.07-.11.13-.11Zm0,3.7a.31.31,0,0,1,.11.2s-.06.07-.15.07a1,1,0,0,0-.35.13,8.9,8.9,0,0,1-.67.69c.46.33.87.65,1.24.91a.57.57,0,0,1-.07.13l-.5.67c-.47-.37-.93-.73-1.41-1.06a13.63,13.63,0,0,1-1.86,1.13.27.27,0,0,1-.24-.11,6.63,6.63,0,0,1-.52-.43c-.07,0-.11-.07-.11-.11s0-.05.09-.09a4,4,0,0,0,1-.42,10,10,0,0,0,.83-.55s0,0,0,0a10.73,10.73,0,0,0-1.67-.86,2.8,2.8,0,0,1,.46-.65s.07-.07.11-.07c.74.35,1.37.69,1.89,1a9.71,9.71,0,0,0,1-1c0-.07.07-.11.13-.11Z"/><path class="cls-1" d="M117.65,19.15c0,.15-.11.22-.3.22h-.72c-.19,0-.28-.07-.28-.22V3.41a.24.24,0,0,1,.28-.28h4a1,1,0,0,1,.6.13,1.29,1.29,0,0,1,.42.74l-1.72,4.64a.78.78,0,0,0,0,.21A.32.32,0,0,0,120,9a10.37,10.37,0,0,1,1.58,2.51,6.66,6.66,0,0,1,.45,2.32,4.2,4.2,0,0,1-.51,2.35,2,2,0,0,1-1.89,1c-.56,0-.83-.11-.83-.35a8,8,0,0,0-.25-.9c0-.18,0-.27.08-.27l1,.13a.77.77,0,0,0,.85-.54,5.41,5.41,0,0,0-.33-3.64,8.25,8.25,0,0,0-1.63-2.45c-.08-.08-.12-.13-.12-.18s0-.14.06-.29l1.75-4.43h-2.53ZM132,11.24c.15,0,.22.11.22.3v.57c0,.21-.07.3-.22.3h-2.75v5.07c0,.2,0,.29.15.29h1.75c.22,0,.42-.63.65-1.89l1.15.72c-.41,1.6-.89,2.4-1.45,2.4h-2.62c-.63,0-.93-.3-.93-.87V12.41h-1.67c0,.78,0,1.43-.07,2a9.85,9.85,0,0,1-.37,1.8,5.26,5.26,0,0,1-.8,1.52,5.84,5.84,0,0,1-1.34,1.17c-.44.22-.94.43-1.48.65a.2.2,0,0,1-.22-.22,6,6,0,0,1-.52-.82.45.45,0,0,1-.06-.2,8.5,8.5,0,0,0,1.78-.64,2.18,2.18,0,0,0,.85-.83,4.17,4.17,0,0,0,.51-1,7.52,7.52,0,0,0,.33-1.46c0-.45.08-1.12.08-2h-2.18c-.15,0-.2-.09-.2-.3v-.57c0-.19,0-.3.2-.3Zm-4-8.48c0,.17-.08.26-.19.27s-.18.15-.18.38V4.5h4.41c.19,0,.3.08.3.23V8.12c0,.15-.11.23-.3.23h-.72c-.18,0-.28-.08-.28-.23V5.65h-7.76V8.12c0,.15-.11.23-.29.23h-.73c-.2,0-.29-.08-.29-.23V4.8a.26.26,0,0,1,.29-.3h4.07V2.76c0-.15.09-.23.28-.23C127.57,2.53,128,2.61,128,2.76Zm1.87,5.08c.15,0,.23.1.23.28v.59c0,.19-.08.29-.23.29h-5.43c-.16,0-.23-.1-.23-.29V8.12c0-.18.07-.28.23-.28Z"/><path class="cls-1" d="M5,3.49H18.63c.13,0,.2.07.2.23v.7c0,.2-.07.31-.2.31H12.48a2.56,2.56,0,0,0-.05.27,31.37,31.37,0,0,1-.37,4.2h7.3c.13,0,.2.07.2.22v.74c0,.18-.07.28-.2.28h-6.9a19.34,19.34,0,0,0,1.19,2.44,8.79,8.79,0,0,0,1.59,2A11,11,0,0,0,17,16.36a15.64,15.64,0,0,0,1.89,1l1.21.4c.13,0,.2,0,.2.13a.36.36,0,0,1-.18.29c-.22.27-.44.52-.64.75a.43.43,0,0,1-.37.18,12.19,12.19,0,0,1-2.9-1.5,12.39,12.39,0,0,1-1.84-1.55,12,12,0,0,1-1.64-2.13,24.31,24.31,0,0,1-1.17-2.3l-.07.25a13.58,13.58,0,0,1-.93,2.29A8.26,8.26,0,0,1,9,16.44,11.79,11.79,0,0,1,7.3,17.77a10.55,10.55,0,0,1-2.75,1.42A.36.36,0,0,1,4.27,19a8.94,8.94,0,0,0-.69-.73c-.1-.1-.15-.15-.15-.17s0-.1.11-.1a15.18,15.18,0,0,0,2.3-1A9.49,9.49,0,0,0,7.67,15.6a7.06,7.06,0,0,0,1.58-2,8.7,8.7,0,0,0,1-2.3,5.11,5.11,0,0,0,.25-.87H4.16c-.13,0-.2-.1-.2-.28V9.42c0-.15.07-.22.2-.22h6.55a1.65,1.65,0,0,0,0-.21A26.77,26.77,0,0,0,11,4.73H5c-.13,0-.2-.11-.2-.31v-.7C4.76,3.56,4.83,3.49,5,3.49Z"/><path class="cls-1" d="M26.09,3.41H42.44a.2.2,0,0,1,.23.22v.72c0,.2-.08.3-.23.3H34.79V8.32A35.2,35.2,0,0,1,38,10.2c1,.74,1.93,1.42,2.66,2a.42.42,0,0,1-.11.19,8.57,8.57,0,0,1-.69.93,30.1,30.1,0,0,0-3.59-2.67c-.55-.34-1-.62-1.5-.85v9.57c0,.15-.13.22-.38.22h-.73c-.23,0-.35-.07-.35-.22V4.65H26.09c-.15,0-.22-.1-.22-.3V3.63A.2.2,0,0,1,26.09,3.41Z"/></svg>