<?xml version="1.0" encoding="UTF-8"?>
<svg width="9px" height="6px" viewBox="0 0 9 6" version="1.1" xmlns="http://www.w3.org/2000/svg" xmlns:xlink="http://www.w3.org/1999/xlink">
    <title>right-arrow (1) copy</title>
    <g id="Page-1" stroke="none" stroke-width="1" fill="none" fill-rule="evenodd">
        <g id="æ›icon" transform="translate(-318.000000, -183.000000)" fill="#B5B5B5" fill-rule="nonzero">
            <g id="right-arrow-(1)-copy" transform="translate(322.500000, 186.000000) rotate(90.000000) translate(-322.500000, -186.000000) translate(320.000000, 182.000000)">
                <path d="M4.86424285,3.68783994 L1.07684511,0.127803839 C0.989247226,0.0453980049 0.872311658,0 0.747626515,0 C0.622941371,0 0.506005803,0.0453980049 0.418407916,0.127803839 L0.13949237,0.389915529 C-0.0419999347,0.560710889 -0.0419999347,0.838302128 0.13949237,1.00883733 L3.31986304,3.99834148 L0.135963545,6.99116267 C0.0483656579,7.07356851 0,7.18342127 0,7.30055853 C0,7.41782587 0.0483656579,7.52767864 0.135963545,7.61014951 L0.414879091,7.87219616 C0.502546171,7.954602 0.619412546,8 0.74409769,8 C0.868782834,8 0.985718401,7.954602 1.07331629,7.87219616 L4.86424285,4.30890806 C4.95204831,4.22624206 5.00027559,4.11586898 5,3.9985366 C5.00027559,3.88074894 4.95204831,3.77044089 4.86424285,3.68783994 Z" id="Path"></path>
            </g>
        </g>
    </g>
</svg>