<svg xmlns="http://www.w3.org/2000/svg" width="216.058" height="35" viewBox="0 0 216.058 35">
    <defs>
        <style>
            .cls-1{fill:#fff}.cls-2{fill:#d10010}
        </style>
    </defs>
    <g id="logo_leadercampus">
        <g id="Group_1" transform="translate(.839 .839)">
            <path id="Path_1" d="M31.862 5.181H10.056A5.758 5.758 0 0 0 4.3 10.939v21.807a5.757 5.757 0 0 0 5.756 5.754h21.806a5.758 5.758 0 0 0 5.759-5.757V10.939a5.758 5.758 0 0 0-5.759-5.758z" class="cls-1" transform="translate(-4.297 -5.181)"/>
        </g>
        <g id="Group_2" transform="translate(37.05 .839)">
            <path id="Path_2" d="M98.922 5.181H77.116a5.758 5.758 0 0 0-5.759 5.758v21.807a5.758 5.758 0 0 0 5.759 5.754h21.806a5.757 5.757 0 0 0 5.759-5.757V10.939a5.758 5.758 0 0 0-5.759-5.758z" class="cls-1" transform="translate(-71.357 -5.181)"/>
        </g>
        <g id="Group_3" transform="translate(73.261 .839)">
            <path id="Path_3" d="M165.984 5.181h-21.806a5.758 5.758 0 0 0-5.759 5.758v21.807a5.758 5.758 0 0 0 5.759 5.757h21.806a5.757 5.757 0 0 0 5.759-5.757V10.939a5.758 5.758 0 0 0-5.759-5.758z" class="cls-1" transform="translate(-138.419 -5.181)"/>
        </g>
        <g id="Group_4" transform="translate(109.472 .839)">
            <path id="Path_4" d="M233.044 5.181h-21.8a5.759 5.759 0 0 0-5.761 5.758v21.807a5.759 5.759 0 0 0 5.757 5.754h21.8a5.758 5.758 0 0 0 5.76-5.757V10.939a5.759 5.759 0 0 0-5.756-5.758z" class="cls-1" transform="translate(-205.479 -5.181)"/>
        </g>
        <g id="Group_5" transform="translate(145.684 .839)">
            <path id="Path_5" d="M300.1 5.181h-21.8a5.758 5.758 0 0 0-5.76 5.758v21.807a5.758 5.758 0 0 0 5.76 5.754h21.8a5.758 5.758 0 0 0 5.759-5.757V10.939a5.758 5.758 0 0 0-5.759-5.758z" class="cls-1" transform="translate(-272.541 -5.181)"/>
        </g>
        <g id="Group_6" transform="translate(181.895 .839)">
            <path id="Path_6" d="M367.166 5.181h-21.8a5.758 5.758 0 0 0-5.76 5.758v21.807a5.758 5.758 0 0 0 5.76 5.757h21.8a5.758 5.758 0 0 0 5.76-5.757V10.939a5.759 5.759 0 0 0-5.76-5.758z" class="cls-1" transform="translate(-339.602 -5.181)"/>
        </g>
        <g id="Group_7">
            <path id="Path_7" d="M31.7 3.627H8.792a6.048 6.048 0 0 0-6.049 6.049v22.9a6.048 6.048 0 0 0 6.049 6.047H31.7a6.048 6.048 0 0 0 6.049-6.047v-22.9A6.048 6.048 0 0 0 31.7 3.627zm5.21 28.4a5.758 5.758 0 0 1-5.759 5.757H9.341a5.757 5.757 0 0 1-5.759-5.757V10.224a5.758 5.758 0 0 1 5.759-5.758h21.806a5.758 5.758 0 0 1 5.759 5.758z" class="cls-2" transform="translate(-2.743 -3.627)"/>
            <path id="Path_8" d="M98.757 3.627h-22.9A6.048 6.048 0 0 0 69.8 9.676v22.9a6.048 6.048 0 0 0 6.048 6.047h22.9a6.048 6.048 0 0 0 6.049-6.047v-22.9a6.048 6.048 0 0 0-6.04-6.049zm5.21 28.4a5.757 5.757 0 0 1-5.759 5.757H76.4a5.758 5.758 0 0 1-5.759-5.757V10.224A5.758 5.758 0 0 1 76.4 4.466h21.808a5.758 5.758 0 0 1 5.759 5.758z" class="cls-2" transform="translate(-33.593 -3.627)"/>
            <path id="Path_9" d="M165.819 3.627h-22.9a6.048 6.048 0 0 0-6.048 6.049v22.9a6.047 6.047 0 0 0 6.048 6.047h22.9a6.048 6.048 0 0 0 6.049-6.047v-22.9a6.048 6.048 0 0 0-6.049-6.049zm5.21 28.4a5.757 5.757 0 0 1-5.759 5.757h-21.806a5.758 5.758 0 0 1-5.759-5.757V10.224a5.758 5.758 0 0 1 5.759-5.758h21.806a5.758 5.758 0 0 1 5.759 5.758z" class="cls-2" transform="translate(-64.443 -3.627)"/>
            <path id="Path_10" d="M232.879 3.627h-22.9a6.049 6.049 0 0 0-6.05 6.049v22.9a6.049 6.049 0 0 0 6.05 6.047h22.9a6.048 6.048 0 0 0 6.049-6.047v-22.9a6.048 6.048 0 0 0-6.049-6.049zm5.21 28.4a5.758 5.758 0 0 1-5.76 5.757h-21.8a5.759 5.759 0 0 1-5.761-5.757V10.224a5.759 5.759 0 0 1 5.761-5.758h21.8a5.759 5.759 0 0 1 5.76 5.758z" class="cls-2" transform="translate(-95.292 -3.627)"/>
            <path id="Path_11" d="M299.94 3.627h-22.9a6.048 6.048 0 0 0-6.048 6.049v22.9a6.047 6.047 0 0 0 6.048 6.047h22.9a6.048 6.048 0 0 0 6.049-6.047v-22.9a6.048 6.048 0 0 0-6.049-6.049zm5.209 28.4a5.758 5.758 0 0 1-5.759 5.757h-21.8a5.758 5.758 0 0 1-5.76-5.757V10.224a5.758 5.758 0 0 1 5.76-5.758h21.8a5.758 5.758 0 0 1 5.759 5.758z" class="cls-2" transform="translate(-126.142 -3.627)"/>
            <path id="Path_12" d="M367 3.627h-22.9a6.049 6.049 0 0 0-6.049 6.049v22.9a6.048 6.048 0 0 0 6.049 6.047H367a6.048 6.048 0 0 0 6.049-6.047v-22.9A6.049 6.049 0 0 0 367 3.627zm5.21 28.4a5.758 5.758 0 0 1-5.76 5.757h-21.8a5.758 5.758 0 0 1-5.76-5.757V10.224a5.758 5.758 0 0 1 5.76-5.758h21.8a5.759 5.759 0 0 1 5.76 5.758z" class="cls-2" transform="translate(-156.992 -3.627)"/>
            <path id="Path_13" d="M164.325 46.8h-11.441c-.3 0-.446.119-.446.325v6.663c0 .238.147.357.446.357h1.2q.448 0 .448-.357v-.809h8.184v.809q0 .356.449.357h1.165c.3 0 .477-.119.477-.357v-6.663c-.007-.206-.186-.325-.482-.325zm-1.613 4.416h-8.184v-2.69h8.184z" class="cls-2" transform="translate(-71.607 -23.488)"/>
            <path id="Path_14" d="M188.908 10.147l-2.36-.3c-.389 0-.567.093-.567.212a1.408 1.408 0 0 0 .119.566 6.859 6.859 0 0 1 .12 1.315V34.1c0 .685-.449 1.046-1.284 1.046a15.051 15.051 0 0 1-2.45-.242c-.18 0-.238.062-.238.242a5.291 5.291 0 0 1 .568 1.37c0 .33.059.511.237.511h2.12c2.09 0 3.136-.717 3.136-2.123V12.055c0-.741.179-1.194.6-1.37.207 0 .328-.093.328-.273-.001-.057-.122-.15-.329-.265z" class="cls-2" transform="translate(-85.321 -6.487)"/>
            <path id="Path_15" d="M162.087 15.779a10.424 10.424 0 0 1-3.406-1.524 8.543 8.543 0 0 1-2.09-1.521 7.666 7.666 0 0 1-1.2-1.345c.118 0 .242-.031.42-.031.358 0 .567-.089.567-.33 0-.115-.091-.238-.268-.387l-2.183-1.015a.726.726 0 0 0-.388.21 12.306 12.306 0 0 1-1.433 1.85 14.421 14.421 0 0 1-1.82 1.582 20.715 20.715 0 0 1-3.316 2.118 21.272 21.272 0 0 1-3.046 1.227c-.09.062-.119.091-.119.123 0 .088.088.176.3.3a5.076 5.076 0 0 1 .868 1.045.5.5 0 0 0 .446.3 20.145 20.145 0 0 0 2.121-1.016c.538-.3 1.075-.6 1.613-.954v.9c0 .237.059.356.24.356h8.272c.15 0 .238-.119.238-.356v-.927c0-.212-.088-.33-.238-.33h-7.973a2.383 2.383 0 0 0 .418-.269 17.81 17.81 0 0 0 2.208-1.674 15.476 15.476 0 0 0 1.7-1.582 13.941 13.941 0 0 0 1.734 1.912 11.132 11.132 0 0 0 2.567 1.882 9.794 9.794 0 0 0 2.51 1.106c.059 0 .147-.061.268-.211a13.24 13.24 0 0 1 1.105-.954.5.5 0 0 0 .151-.33c.003-.067-.088-.094-.266-.155z" class="cls-2" transform="translate(-67.637 -6.387)"/>
            <path id="Path_16" d="M181.737 34.047V17.5c0-.36.091-.568.3-.629.18 0 .3-.15.3-.423 0-.233-.748-.355-2.211-.355-.329 0-.479.123-.479.355v17.6c0 .237.15.355.479.355h1.165q.445-.003.446-.356z" class="cls-2" transform="translate(-84.123 -9.364)"/>
            <path id="Path_17" d="M160.152 27.768h-13.41c-.329 0-.478.119-.478.361v5.345a25.859 25.859 0 0 1-.3 4.118 14.469 14.469 0 0 1-1.016 3.108 7.993 7.993 0 0 1-1.582 2.241.591.591 0 0 0 .121.388 5.725 5.725 0 0 1 1.075.839.866.866 0 0 0 .328.057 8.729 8.729 0 0 0 1.523-1.937 10.8 10.8 0 0 0 1.4-3.381 18.619 18.619 0 0 0 .451-2.509h11.887a.425.425 0 0 0 .477-.474v-7.795c0-.242-.18-.361-.476-.361zm-1.613 6.871h-10.186c0-.361.031-.748.031-1.165v-.566h10.155zm0-3.257h-10.156V29.5h10.155z" class="cls-2" transform="translate(-67.433 -14.733)"/>
            <path id="Path_18" d="M212.463 15.158h2.272c-.657.361-.987.6-.987.721a18.972 18.972 0 0 1 1.192 2.744c.269.809.45 1.5.571 2.035a6.1 6.1 0 0 0 1.969-.6c-.238-.868-.507-1.675-.8-2.454-.3-.741-.657-1.551-1.106-2.448h6.42c0 .031-.025.063-.025.119a11.769 11.769 0 0 1-.779 2.3 13.841 13.841 0 0 1-1.075 2.03.449.449 0 0 0-.059.238c0 .031.059.062.206.119.331.154.69.33 1.079.509a.855.855 0 0 0 .475.181c.06 0 .118-.093.237-.3a19.4 19.4 0 0 0 1.522-3.737c.033-.207.153-.33.333-.33a.309.309 0 0 0 .238-.294c0-.15-.148-.268-.39-.391l-1.1-.449h2.894c.123 0 .209-.15.209-.448v-.954c0-.211-.086-.33-.209-.33h-5.612v-2c0-.36.088-.567.3-.6.181-.032.3-.181.3-.45 0-.237-.748-.355-2.239-.355-.3 0-.451.118-.451.355v3.047h-5.376c-.18 0-.236.119-.236.33v.954c-.01.308.046.458.227.458z" class="cls-2" transform="translate(-99.111 -6.57)"/>
            <path id="Path_19" d="M223.991 40.682a12.794 12.794 0 0 1-3.136-2.241 9.134 9.134 0 0 1-1.316-1.521h4.242c.239 0 .361-.154.361-.449v-.954c0-.3-.123-.448-.361-.448h-4.657v-3.288h5.253q.361 0 .362-.448v-.954c0-.3-.121-.452-.362-.452h-12.244c-.238 0-.359.154-.359.452v.954c0 .3.122.448.359.448h4.9v3.288h-4.446c-.242 0-.328.15-.328.448v.954c0 .295.086.449.328.449h3.882a23.188 23.188 0 0 1-1.7 2.448 13.7 13.7 0 0 1-2.213 2.179 12.662 12.662 0 0 1-1.82 1.222.778.778 0 0 0 .091.3c.326.3.688.628 1.043 1.019a.659.659 0 0 0 .511.176 21.025 21.025 0 0 0 2.388-1.88 24.143 24.143 0 0 0 1.969-2.238c.06-.123.18-.242.3-.417v6.3c0 .238.151.357.482.357h1.164q.448 0 .448-.357V38.95c.24.3.479.6.717.866a13.178 13.178 0 0 0 2.657 2.242 1.2 1.2 0 0 0 .479.115.473.473 0 0 0 .3-.207 4.825 4.825 0 0 0 .778-.839c.119-.088.209-.176.209-.237s-.103-.147-.281-.208z" class="cls-2" transform="translate(-98.423 -15.726)"/>
            <path id="Path_20" d="M245.083 13.76a13.738 13.738 0 0 0 3.5-1.134 1.483 1.483 0 0 1 .39-.061l.685.33c.24 0 .359-.151.359-.449 0-.237-.48-.746-1.434-1.582a.526.526 0 0 0-.33-.181.633.633 0 0 0-.358.151 12.3 12.3 0 0 1-3.731 1.257 31.409 31.409 0 0 1-4.78.355h-.327c-.329 0-.479.119-.479.356v9.8a53.781 53.781 0 0 1-.3 5.855 27.882 27.882 0 0 1-.869 4.39 12.455 12.455 0 0 1-1.4 3.166.693.693 0 0 0 .123.416 4.71 4.71 0 0 1 1.075.809.861.861 0 0 0 .329.058 13.4 13.4 0 0 0 1.4-2.655 21.638 21.638 0 0 0 1.254-4.6 48.047 48.047 0 0 0 .477-7.438v-1.287h4.216v15.738c0 .239.146.357.447.357h1.192c.3 0 .449-.118.449-.357V21.316h2.687c.24 0 .359-.151.359-.479v-.924c0-.3-.119-.484-.359-.484h-8.991v-5.252a24.212 24.212 0 0 0 4.416-.417z" class="cls-2" transform="translate(-110.049 -6.872)"/>
            <path id="Path_21" d="M304.889 21.559h-1.971V10.478c0-.237-.179-.355-.478-.355h-5.259c-.145 0-.2.118-.2.355v.929c0 .328.06.479.2.479h3.619v2.087h-3.615c-.145 0-.2.124-.2.361v.927c0 .294.06.448.2.448h3.615v2h-3.615c-.145 0-.2.119-.2.356v.927c0 .3.06.448.2.448h3.615v2.119h-17.474V19.44h4.063c.152 0 .237-.149.237-.448v-.927c0-.237-.085-.356-.237-.356h-4.063v-2h4.063c.152 0 .237-.154.237-.448v-.927c0-.238-.085-.361-.237-.361h-4.063v-2A8.381 8.381 0 0 0 285 11.7a6.433 6.433 0 0 0 2.272-1.015l.717.118c.15 0 .238-.088.238-.33a10.92 10.92 0 0 0-1.075-1.345.524.524 0 0 0-.328-.176.607.607 0 0 0-.238.058 3.889 3.889 0 0 1-2.061.989 7.955 7.955 0 0 1-1.821.237l-1.135-.474a.317.317 0 0 0-.36.356v11.441h-1.974c-.328 0-.476.118-.476.33V26.7c0 .237.148.33.476.33h1.165c.3 0 .478-.093.478-.33v-3.409h22.4V26.7c0 .237.151.33.453.33h1.161c.3 0 .477-.093.477-.33v-4.811c-.002-.212-.181-.33-.48-.33z" class="cls-2" transform="translate(-129.717 -6.079)"/>
            <path id="Path_22" d="M305.486 43.6h-11.2v-.269a.259.259 0 0 0 .182-.091l5.076-4.3c0-.181-.209-.418-.6-.717a1.045 1.045 0 0 0-.569-.119h-12a.316.316 0 0 0-.358.361v.922c0 .33.116.479.358.479h9.378l-2.361 1.907-.713-.294c-.33 0-.479.118-.479.355V43.6h-11.684c-.15 0-.21.119-.21.36v.929c0 .294.06.443.21.443h11.678v1.882c0 .685-.329 1.045-.928 1.045a18.072 18.072 0 0 1-2.451-.237c-.087 0-.116.058-.116.237a3.168 3.168 0 0 1 .476 1.345c.033.361.091.537.21.537h1.881c2 0 3.016-.717 3.016-2.119v-2.69h11.2c.145 0 .235-.15.235-.443v-.929c.004-.24-.086-.36-.231-.36z" class="cls-2" transform="translate(-130.429 -19.488)"/>
            <path id="Path_23" d="M296.858 25.567a10.275 10.275 0 0 0 .834.69.421.421 0 0 0 .39.18 22.487 22.487 0 0 0 2.987-1.824c.775.536 1.52 1.1 2.267 1.7l.809-1.073a1.633 1.633 0 0 0 .117-.211c-.6-.418-1.252-.927-2-1.464a12.181 12.181 0 0 0 1.075-1.1 1.586 1.586 0 0 1 .57-.211c.146 0 .239-.031.239-.119a.537.537 0 0 0-.182-.328l-1.314-.954c-.087 0-.151.056-.207.174a17.513 17.513 0 0 1-1.554 1.645c-.838-.475-1.853-1.017-3.049-1.582-.059 0-.117.061-.177.118a4.007 4.007 0 0 0-.747 1.046 16.237 16.237 0 0 1 2.684 1.376c0 .03.029.057.088.057-.417.3-.865.6-1.341.87a6.135 6.135 0 0 1-1.525.685c-.12.058-.15.119-.15.15.003.057.066.118.186.175z" class="cls-2" transform="translate(-137.96 -11.551)"/>
            <path id="Path_24" d="M296.858 14.653a10.735 10.735 0 0 0 .834.692.414.414 0 0 0 .39.179 24.246 24.246 0 0 0 2.9-1.822c.834.536 1.671 1.1 2.479 1.7 0 0 .269-.355.8-1.077.06-.119.119-.176.119-.207-.627-.416-1.372-.922-2.209-1.463a16.208 16.208 0 0 0 1.164-1.222 1.517 1.517 0 0 1 .57-.211c.146 0 .239-.062.239-.149a.549.549 0 0 0-.182-.3l-1.314-.983c-.087 0-.151.061-.207.179a21.009 21.009 0 0 1-1.672 1.821c-.836-.418-1.794-.9-2.93-1.4-.059 0-.117.056-.177.149a4.785 4.785 0 0 0-.747 1.017 24.283 24.283 0 0 1 2.659 1.252 7.191 7.191 0 0 1-1.224.8 5.01 5.01 0 0 1-1.525.717c-.12.062-.15.091-.15.154s.063.121.183.174z" class="cls-2" transform="translate(-137.96 -6.462)"/>
            <path id="Path_25" d="M355.858 28.835a10.873 10.873 0 0 0-.718-3.732 16.809 16.809 0 0 0-2.539-4.034.485.485 0 0 1-.121-.3 1.256 1.256 0 0 1 .032-.33l2.778-7.467a2 2 0 0 0-.686-1.191 1.656 1.656 0 0 0-.956-.212h-6.42a.4.4 0 0 0-.448.449v25.327c0 .242.148.356.448.356h1.161c.3 0 .479-.114.479-.356v-23.92h4.063l-2.806 7.133a2.875 2.875 0 0 0-.093.452c0 .088.062.176.18.3a13.1 13.1 0 0 1 2.629 3.942 8.24 8.24 0 0 1 .806 3.34 8.769 8.769 0 0 1-.269 2.509 1.253 1.253 0 0 1-1.373.867l-1.614-.212c-.09 0-.117.154-.117.449a14.63 14.63 0 0 1 .388 1.436c0 .388.445.567 1.343.567a3.23 3.23 0 0 0 3.047-1.587 6.878 6.878 0 0 0 .806-3.786z" class="cls-2" transform="translate(-161.009 -7.281)"/>
            <path id="Path_26" d="M370.644 25.621c-.244 0-.36.149-.36.448v.954c0 .3.117.452.36.452h8.748c.24 0 .358-.15.358-.452v-.954c0-.3-.118-.448-.358-.448z" class="cls-2" transform="translate(-171.822 -13.745)"/>
            <path id="Path_27" d="M364.072 19.154h1.163c.3 0 .476-.119.476-.361v-3.974H378.2v3.974c0 .242.148.361.446.361h1.165c.3 0 .476-.119.476-.361v-5.464c0-.242-.179-.36-.476-.36H372.7v-1.762c0-.356.088-.567.3-.6.179-.026.3-.175.3-.448 0-.238-.745-.356-2.24-.356q-.449 0-.45.356v2.809h-6.537a.425.425 0 0 0-.479.475v5.348c-.002.243.146.363.478.363z" class="cls-2" transform="translate(-168.743 -6.469)"/>
            <path id="Path_28" d="M377.527 46.256h-2.811c-.179 0-.237-.146-.237-.474v-8.16h4.421c.242 0 .362-.144.362-.474v-.923c0-.3-.12-.478-.362-.478h-14.816c-.239 0-.327.175-.327.478v.923c0 .33.088.474.327.474h3.5c0 1.376-.059 2.449-.116 3.169a11.911 11.911 0 0 1-.541 2.361 6.83 6.83 0 0 1-.809 1.551 3.652 3.652 0 0 1-1.373 1.345 14.239 14.239 0 0 1-2.866 1.015.763.763 0 0 0 .09.329 11.092 11.092 0 0 0 .837 1.315q.043.356.358.355c.866-.355 1.67-.685 2.388-1.045a9.314 9.314 0 0 0 2.15-1.882 8.167 8.167 0 0 0 1.282-2.448 15.073 15.073 0 0 0 .6-2.9c.059-.866.088-1.91.12-3.169h2.686v9.2c0 .927.478 1.407 1.492 1.407h4.211q1.345 0 2.331-3.856l-1.852-1.159c-.36 2.034-.69 3.046-1.045 3.046z" class="cls-2" transform="translate(-167.953 -18.403)"/>
            <path id="Path_29" d="M37.162 35.615c-.745-.254-1.391-.464-1.939-.645a26.225 26.225 0 0 1-3.052-1.614 18.361 18.361 0 0 1-2.846-2.377 14.422 14.422 0 0 1-2.553-3.227 31.376 31.376 0 0 1-1.91-3.932h11.1q.323 0 .323-.449v-1.192q0-.356-.323-.355H24.216a51.216 51.216 0 0 0 .589-6.751 3.656 3.656 0 0 1 .088-.44h9.891c.217 0 .324-.167.324-.492v-1.13c0-.252-.107-.374-.324-.374H12.8c-.215 0-.322.122-.322.374v1.13c0 .325.107.492.322.492h9.657a43.614 43.614 0 0 1-.381 6.866 2.017 2.017 0 0 1-.03.325H11.507c-.215 0-.321.118-.321.355v1.191c0 .3.105.449.321.449h10.187a8.518 8.518 0 0 1-.411 1.406 14.076 14.076 0 0 1-1.585 3.7 11.51 11.51 0 0 1-2.554 3.2 14.536 14.536 0 0 1-2.936 2.2A23.927 23.927 0 0 1 10.509 36a.157.157 0 0 0-.176.174 1.265 1.265 0 0 0 .236.269 14.66 14.66 0 0 1 1.116 1.173.559.559 0 0 0 .439.291 17.017 17.017 0 0 0 4.433-2.291 18.532 18.532 0 0 0 2.671-2.14 13.167 13.167 0 0 0 2.584-3.64 21.623 21.623 0 0 0 1.5-3.669c.039-.119.077-.256.116-.41a40.21 40.21 0 0 0 1.879 3.7 19.267 19.267 0 0 0 2.642 3.433 20.377 20.377 0 0 0 2.964 2.5 19.61 19.61 0 0 0 4.666 2.4.667.667 0 0 0 .587-.289q.5-.56 1.029-1.2a.581.581 0 0 0 .295-.47c-.004-.145-.115-.216-.328-.216z" class="cls-2" transform="translate(-6.235 -7.772)"/>
            <path id="Path_30" d="M103.836 12.416h-26.3a.311.311 0 0 0-.352.348v1.156c0 .33.117.492.352.492h11.653V38.13c0 .238.187.35.559.35h1.172c.411 0 .618-.113.618-.35V22.72c.722.372 1.524.829 2.406 1.38a49.336 49.336 0 0 1 5.782 4.286 14.511 14.511 0 0 0 1.117-1.5.888.888 0 0 0 .176-.291q-1.761-1.47-4.286-3.261a57.656 57.656 0 0 0-5.195-3.023v-5.9h12.3c.254 0 .382-.162.382-.492v-1.155c-.002-.228-.129-.348-.384-.348z" class="cls-2" transform="translate(-36.988 -7.67)"/>
        </g>
    </g>
</svg>
