<svg xmlns="http://www.w3.org/2000/svg" id="logo_cw" width="112" height="40" viewBox="0 0 112 40">
    <defs>
        <style>
            .cls-2{fill:#fff}
        </style>
    </defs>
    <g id="Group_9">
        <path id="Rectangle_1" fill="#d70c18" d="M0 0H112V40H0z"/>
        <g id="Group_8" transform="translate(0 3.266)">
            <path id="Path_31" d="M13.088 11.1a3.114 3.114 0 0 0 3.081 1.11c3.054-.75 6-1.832 9.134-2.442 1.582-.889 3.359-1.416 5-2.221a1.879 1.879 0 0 0 .666-2c-.25-.75-1.054-.944-1.61-1.332-1.194-.167-2.443-.306-3.386.471-.667.833-1.777 1.082-2.61 1.75-.362.277-.889.221-1.194.666-1.943.249-3.665.416-5.191 1.665a26.772 26.772 0 0 0-4 .444c-.751.637.276 1.164.11 1.889z" class="cls-2" transform="translate(-2.54 -4.082)"/>
            <path id="Path_32" d="M65.592 33.713c-.11-1-.445-1.942-.611-2.8a49.979 49.979 0 0 1-.583-7.66 31.818 31.818 0 0 0-.61-5.33c-.5-1.11.194-2.221-.334-3.331a6.735 6.735 0 0 1-.138-2c.222-.638.889-.638 1.277-1.083 1.444-.416 3.138-.943 4.526-.055 1.166.944 3.054.528 4.192-.138a4.316 4.316 0 0 0 .8-2.193C73.532 7.9 71.978 7.9 70.784 7.592h-.722c-1.75-.944-3.442.25-5 .722-1.055.471-2.443.11-3.332 1-1.194-.083-2.054.666-3.193.666-.555.555-1.415.278-2 .75a11.249 11.249 0 0 0-2.083.333c-.3.611-1.138.361-1.526.777-1.028.361-2.139.611-3.193.888-1.86.639-3.942.361-5.858.722a2.916 2.916 0 0 0-1.555.666c-.222 1.055 1 1.055 1.416 1.806.666 1.054 1.915 1.054 2.86 1.665.389.334 1.026.057 1.332.584a6.569 6.569 0 0 0 3.942.222c1-.666 2.194-1.055 3-2.082 1.055-.25 1.694-1.361 2.582-1.8.666-.111 1.276-.861 1.942-.39.362.168.139.445.2.806a2.4 2.4 0 0 1 .056 1.859v.527a133.514 133.514 0 0 1-.778 18.787c-.362 1.109.333 2.024.333 3 .5.418.694 1.222 1.443 1.472 1.083.361 2.749.528 3.61-.417 1.694-.75 1.138-2.859 1.722-4.331-.334-.695.137-1.5-.39-2.111z" class="cls-2" transform="translate(-8.46 -4.714)"/>
            <path id="Path_33" d="M43.553 37.342c-.222-.362-.749-.583-1.138-.862a11.128 11.128 0 0 1-4.192-2.054c-.75.25-1.027-.666-1.666-.75-.3-.361-.888-.472-1.193-.778-1.417-.36-2.3-1.636-3.415-2.275-2.054-.944-3.47-3.358-5-4.941-1-.916-2.276-2.192-2.249-3.775.444-1 1.638-1.333 2.526-1.8 1.111-.833 2.694-1.3 3.331-2.61a1.653 1.653 0 0 0-.082-1.527c-.362-.75-1.278-.722-2-1-1.777-.167-3.054 1.166-4.054 2.193-.61.056-1.277.778-1.86.14a7.462 7.462 0 0 0-1.138-2.055c-.277-.222-.721-.055-.943-.416-.61.277-1.278.027-1.86.194a2.078 2.078 0 0 0-1.138 1.138c.166 1.166-.583 2.11-.111 3.192.166 1.334-1.138 2.166-2.082 2.749-1.583.222-2.5 1.61-4.054 1.916-.611.3-1.333.361-1.943.611-.666.138-1.832-.111-2.138.721a3.461 3.461 0 0 0 1 1.943c.361.806 1.415 1.083 2.138 1.61 1.083.36 2.166-.166 3.193-.084a4.1 4.1 0 0 1-.722 4 5.372 5.372 0 0 1-1.61 2.415c.028.445-.61.5-.666.915-.222.113-.416.362-.722.278a2.305 2.305 0 0 0-2.275-.53 1.2 1.2 0 0 0-.721.862c-.889.415.028 1.055-.278 1.721 0 .417.639.583.417 1.082a2.673 2.673 0 0 0 2.248 1.666c1.666.916 3.054-.25 4.61-.556a15.694 15.694 0 0 0 4.469-5.441c.028-.555.445-.722.472-1.277.418-.445.25-1.138.666-1.61.389-.694.278-1.665.583-2.331a4.27 4.27 0 0 1 .667-2.387c1.248.111 1.582 1.25 2.526 1.861.25.638 1.055.86 1.277 1.414 1.915 2.414 3.387 5.052 5.33 7.439l3.054 2.332c2.721.556 5.8-.166 8.55-.25.861-.5 2.082-.194 2.859-.944.111-.361.472-.722.334-1.138-.278-.364-.5-.891-1-1.001z" class="cls-2" transform="translate(-1.274 -6.232)"/>
            <path id="Path_34" d="M83.343 24.6c-1.833-.111-4.054-1.3-5.663 0-.722 2.026.527 4.053 2.138 5.524.415.278.778.445.8.944a8.521 8.521 0 0 0 4.192.25c.055-.75 1.055-.5 1.138-1.194.86-2.054-.528-3.748-1.8-5.134a1.562 1.562 0 0 1-.805-.39z" class="cls-2" transform="translate(-15.494 -8.065)"/>
            <path id="Path_35" d="M115.91 32.256l.158.175a2.182 2.182 0 0 0 .316.066l5.082-.042a.534.534 0 0 0 .341-.2.262.262 0 0 1 .175.058c1.115.034 2.174.016 3.3.016l.126.1v1.64c-.092.207.117.615-.182.724l-2.675.016a.352.352 0 0 0-.282.183c-.058.166.083.242.183.316l4.3.018 2.874-.034.142-.141c.083-.15-.058-.258-.142-.342l-2.857-.042-.082-.1c.008-.791-.017-1.442.026-2.215l.057-.1c.025-.034.093 0 .117-.042 1.125-.05 2.315.016 3.4-.058.132-.033.158-.174.141-.3-.026-.075-.109-.1-.158-.142-1.132-.082-2.282-.008-3.481-.058l-.059-.082V30c-.158-.358-.59-.324-.9-.284-.634.134-.283.918-.374 1.358-.082.226.083.558-.142.7l-2.725.025c-.274.042-.59-.025-.815.134-2.09-.008-3.514.017-5.58.067-.142.023-.209.173-.284.256z" class="cls-2" transform="translate(-23.182 -9.204)"/>
            <path id="Path_36" d="M97.772 31.435c-.882.042-1.856-.01-2.7.042-.134.024-.15.167-.158.274.058.083.1.158.2.183l1.8.017 4.481-.033a.263.263 0 0 0 .242-.142c.025-.116.034-.2-.066-.282-.709-.142-1.458.025-2.2-.058l-.133-.1a10.84 10.84 0 0 0-.042-1.382c-.158-.3-.5-.242-.783-.274-.816.107-.35 1.074-.474 1.6a.234.234 0 0 1-.167.155z" class="cls-2" transform="translate(-18.983 -9.202)"/>
            <path id="Path_37" d="M121.029 30.939l.416-.042a.255.255 0 0 0 .126-.341.232.232 0 0 0-.158-.117c-.975-.042-2.024-.017-2.965-.025a7.5 7.5 0 0 0-1.616.058.258.258 0 0 0-.1.266.409.409 0 0 0 .2.175z" class="cls-2" transform="translate(-23.345 -9.345)"/>
            <path id="Path_38" d="M97.751 32.738a.682.682 0 0 0-.842.067 18.425 18.425 0 0 1-1.8 3.3l-.016.2a.468.468 0 0 0 .358.216c.541-.234.882-.858 1.257-1.315a.4.4 0 0 1 .267-.242c.333.266.582.623.916.9a.432.432 0 0 0 .482-.143c0-.058.067-.134.034-.182-.126-.382-.608-.734-.775-1.133-.45-.424.216-.79.275-1.2a.431.431 0 0 0-.156-.468z" class="cls-2" transform="translate(-19.019 -9.79)"/>
            <path id="Path_39" d="M101.164 32.853a.638.638 0 0 0-.417.274 8.805 8.805 0 0 1-1.057 2.555.312.312 0 0 0 .117.382c.607.309.666-.49 1.041-.7.3.284.542.741.858.983a.557.557 0 0 0 .458-.1c.05-.091.116-.184.058-.285a7.225 7.225 0 0 1-.8-1.638c.158-.374.516-.691.482-1.116-.132-.297-.457-.331-.74-.355z" class="cls-2" transform="translate(-19.934 -9.837)"/>
            <path id="Path_40" d="M121.369 34.735l-4.339-.017-.1.017a.3.3 0 0 0-.2.366.633.633 0 0 0 .218.158h4.2l.241-.024c.126-.034.176-.167.2-.275-.002-.125-.136-.176-.22-.225z" class="cls-2" transform="translate(-23.344 -10.21)"/>
            <path id="Path_41" d="M121.312 36.856c-1.449-.025-2.814-.025-4.238 0-.118.026-.258.026-.325.142a.261.261 0 0 0 .125.341l4.273.018a.344.344 0 0 0 .324-.1.239.239 0 0 0 .042-.234.361.361 0 0 0-.201-.167z" class="cls-2" transform="translate(-23.346 -10.633)"/>
            <path id="Path_42" d="M94.959 38.761c.766.075 1.515.008 2.282.058.05.025.042.075.042.117a9.718 9.718 0 0 1-1.983 2.423c-.133.1-.316.209-.374.359a.284.284 0 0 0 .075.258c.483.258.85-.25 1.141-.5.05-.074.208-.074.216-.2a12.716 12.716 0 0 0 1.2-1.217c.018-.091.151-.083.142-.183.15-.083.158-.392.341-.241a13.07 13.07 0 0 0-.182 2.6l.041.258a.538.538 0 0 0 .4.3c.308.024.682.017.841-.3a15.843 15.843 0 0 0-.083-2.674l.066-.041a18.513 18.513 0 0 0 1.974 1.415h.342c.134-.083.266-.223.183-.4a8.5 8.5 0 0 1-2-1.732c-.01-.083-.166-.192-.025-.242l1.982-.042a.308.308 0 0 0 .2-.3c-.017-.109-.142-.143-.226-.183h-2.1c-.075-.034-.184.007-.234-.076-.116-.433.159-.8-.166-1.141-.209-.216-.583-.166-.858-.116-.49.2-.225.783-.3 1.2-.033.058-.1.141-.174.134l-2.666.026-.174.1c-.097.116-.005.264.077.34z" class="cls-2" transform="translate(-18.968 -10.65)"/>
            <path id="Path_43" d="M126.883 37.452a.863.863 0 0 0-.6-.134c-.166.059-.374.126-.424.318-.017 1.315-.042 2.806-.059 4.1l.042.216a1.065 1.065 0 0 0 .941.566c1.233-.05 2.707.224 3.814-.242a1.548 1.548 0 0 0 .684-1.4.8.8 0 0 0-.742-.324.688.688 0 0 0-.515.341 1.378 1.378 0 0 1-.883 1.142h-1.782c-.117-.05-.274-.075-.333-.217-.042-1.14-.016-2.156-.026-3.382-.067-.343.158-.736-.117-.984z" class="cls-2" transform="translate(-25.16 -10.729)"/>
            <path id="Path_44" d="M129.565 40.26a.948.948 0 0 0 .716-.218.481.481 0 0 0 .1-.4 6.561 6.561 0 0 0-.875-1.423 4.444 4.444 0 0 0-.682-.759c-.209-.032-.482-.042-.6.159-.084.482.409.783.516 1.224.333.45.099 1.308.825 1.417z" class="cls-2" transform="translate(-25.643 -10.754)"/>
            <path id="Path_45" d="M132.859 40.88a.985.985 0 0 0 .858-.2.568.568 0 0 0 .1-.516c-.334-.475-.717-.926-1.1-1.383-.242-.207-.434-.582-.742-.716a.623.623 0 0 0-.473.058.352.352 0 0 0-.085.359 9.63 9.63 0 0 1 .882 1.382c.16.348.176.807.56 1.016z" class="cls-2" transform="translate(-26.279 -10.874)"/>
            <path id="Path_46" d="M116.764 42.3a1.055 1.055 0 0 0 .558.358 26.663 26.663 0 0 0 3.181.042l.475-.158a.873.873 0 0 0 .458-.742 1.794 1.794 0 0 0 .7.1c.665-.207.541-.99.723-1.514a7.258 7.258 0 0 0 .2-1.8.625.625 0 0 0-.424-.225c-.15.05-.359.042-.417.242a6.629 6.629 0 0 1-.6 2.157c-.058.092-.108.233-.2.184-.2-.792.441-2.166-.782-2.3h-2.433a2.159 2.159 0 0 0-1.083.143.956.956 0 0 0-.4.558l-.041 2.74zm1.2-3.014c.025-.1.142-.067.216-.1l1.925.018.058.058-.025 2.865-.1.074-2.057-.016-.041-.042c.007-.934-.01-1.967.023-2.857z" class="cls-2" transform="translate(-23.336 -10.938)"/>
            <path id="Path_47" d="M105.682 30.075a.565.565 0 0 0-.441-.383c-.3-.042-.65-.05-.818.242a11.842 11.842 0 0 1-1.84 3.913.344.344 0 0 0 .058.325.555.555 0 0 0 .383.1c.426-.216.633-.69.958-.982l.017.025v5.054a14.846 14.846 0 0 0 .1 1.915 1.079 1.079 0 0 0 .9.483c2.006-.009 4 .016 6.021-.026l.117-.075a.209.209 0 0 0-.042-.283 9.244 9.244 0 0 0-2.031-.058 1.067 1.067 0 0 1-.567-.083l-.032-2.032.074-.1c.725-.116 1.458-.024 2.2-.082.108-.034.1-.15.125-.242-.017-.1-.125-.116-.183-.175l-1.982-.025c-.084-.025-.225-.008-.233-.142v-2.116c.032-.057.09-.066.132-.1l1.983-.017.183-.084c.017-.074.125-.134.058-.217-.007-.1-.125-.124-.182-.182l-2.074-.016-.1-.083c.008-.707-.042-1.44.032-2.115l.084-.066 2.4-.033c.115-.05.132-.175.2-.267l-.158-.174-2.9-.042-.058-.04a10.327 10.327 0 0 1 1.158-1.275.6.6 0 0 0 .217-.583.93.93 0 0 0-.742-.317c-.558.025-.666.658-.933 1.016a4.2 4.2 0 0 0-.642 1.182l-2.223.017-.034-.04a10.662 10.662 0 0 1 .8-1.574zm-.358 2.54c.025-.216.25-.1.374-.141.508 0 1.05-.017 1.524.016l.042.142c-.009.7.007 1.458-.025 2.015a9.431 9.431 0 0 1-1.874.042l-.041-.042zm-.026 2.7c.041-.059.109-.059.166-.083a11.189 11.189 0 0 1 1.758.058l-.025 2.24a17.036 17.036 0 0 1-1.874 0l-.041-.058zm-.016 2.857a.153.153 0 0 1 .117-.1 11.575 11.575 0 0 1 1.8.058l.041.042c-.024.725.059 1.433 0 2.073l-.041.043h-1.833l-.066-.043c-.009-.719-.059-1.41-.017-2.076z" class="cls-2" transform="translate(-20.513 -9.2)"/>
            <path id="Rectangle_2" d="M0 0H14.267V0.599H0z" class="cls-2" transform="translate(0 12.185)"/>
            <path id="Rectangle_3" d="M0 0H6.247V0.599H0z" class="cls-2" transform="translate(29.536 12.185)"/>
            <path id="Rectangle_4" d="M0 0H4.026V0.599H0z" class="cls-2" transform="translate(47.026 12.185)"/>
            <path id="Rectangle_5" d="M0 0H55.951V0.598H0z" class="cls-2" transform="translate(56.049 12.317)"/>
            <path id="Rectangle_6" d="M0 0H9.409V0.598H0z" class="cls-2" transform="translate(0 23.288)"/>
            <path id="Rectangle_7" d="M0 0H2.36V0.598H0z" class="cls-2" transform="translate(19.126 23.288)"/>
            <path id="Rectangle_8" d="M0 0H19.571V0.598H0z" class="cls-2" transform="translate(30.37 23.288)"/>
            <path id="Rectangle_9" d="M0 0H7.912V0.598H0z" class="cls-2" transform="translate(57.022 23.288)"/>
            <path id="Rectangle_10" d="M0 0H4.58V0.598H0z" class="cls-2" transform="translate(70.209 23.288)"/>
            <path id="Rectangle_11" d="M0 0H4.036V0.598H0z" class="cls-2" transform="translate(107.964 23.288)"/>
            <path id="Rectangle_12" d="M0 0H9.548V0.599H0z" class="cls-2" transform="translate(0 27.728)"/>
            <path id="Rectangle_13" d="M0 0H6.246V0.599H0z" class="cls-2" transform="translate(18.016 27.728)"/>
            <path id="Rectangle_14" d="M0 0H11.938V0.599H0z" class="cls-2" transform="translate(37.726 27.728)"/>
            <path id="Rectangle_15" d="M0 0H17.074V0.599H0z" class="cls-2" transform="translate(57.715 27.728)"/>
            <path id="Rectangle_16" d="M0 0H4.036V0.599H0z" class="cls-2" transform="translate(107.964 27.728)"/>
            <path id="Rectangle_17" d="M0 0H4.412V0.599H0z" class="cls-2" transform="translate(0 30.088)"/>
            <path id="Rectangle_18" d="M0 0H9.022V0.599H0z" class="cls-2" transform="translate(16.906 30.088)"/>
            <path id="Rectangle_19" d="M0 0H6.663V0.599H0z" class="cls-2" transform="translate(42.585 30.088)"/>
            <path id="Rectangle_20" d="M0 0H16.52V0.599H0z" class="cls-2" transform="translate(58.409 30.088)"/>
            <path id="Rectangle_21" d="M0 0H4.313V0.599H0z" class="cls-2" transform="translate(107.687 30.088)"/>
            <path id="Rectangle_22" d="M0 0H4.551V0.598H0z" class="cls-2" transform="translate(0 34.114)"/>
            <path id="Rectangle_23" d="M0 0H15.408V0.598H0z" class="cls-2" transform="translate(13.99 34.114)"/>
            <path id="Rectangle_24" d="M0 0H6.108V0.598H0z" class="cls-2" transform="translate(43.418 34.114)"/>
            <path id="Rectangle_25" d="M0 0H53.868V0.598H0z" class="cls-2" transform="translate(58.132 34.114)"/>
        </g>
    </g>
</svg>
