<?xml version="1.0" encoding="utf-8"?>
<!-- Generator: Adobe Illustrator 24.3.0, SVG Export Plug-In . SVG Version: 6.00 Build 0)  -->
<svg version="1.1" id="圖層_1" xmlns="http://www.w3.org/2000/svg" xmlns:xlink="http://www.w3.org/1999/xlink" x="0px" y="0px"
	 viewBox="0 0 408 305" style="enable-background:new 0 0 408 305;" xml:space="preserve">
<style type="text/css">
	.st0{fill:#FFFFFF;}
</style>
<g>
	<path class="st0" d="M98.3,278.8l-2.8-0.8c-0.5,1-1.1,2-1.8,2.9h-4.7l-0.5,2.9h2.8c-1.3,1.3-2.7,2.4-4.3,3.3l1.5-8.4h-9l-1.6,9.3
		h3.9L80,298.6l-1.3,0.3l1.5-8.7h-2.6l-1.7,9.4l-1.2,0.3l0.2,3.1c3.2-0.9,7.3-2,11.2-3.1V297l-3.3,0.8l0.7-3.8h2.3l0.5-2.9h-2.3
		l0.5-3h2.2V288c0.3,0.8,0.6,1.7,0.7,2.5c1.2-0.7,2.4-1.5,3.5-2.5l-0.2,1.4h7.3l0.3-1.8c0.6,1.1,1.5,2.1,2.4,3
		c0.8-0.9,1.7-1.8,2.7-2.5c-1.5-1.1-2.7-2.6-3.5-4.2h3.6l0.5-2.9h-7.1C97.6,280.3,98,279.6,98.3,278.8z M84.6,285.3h-3.5l0.6-3.6
		h3.5L84.6,285.3z M98.1,286.8h-5.6c0.9-0.9,1.8-1.9,2.6-2.9h1.8C97.2,284.9,97.6,285.9,98.1,286.8z"/>
	<path class="st0" d="M86.7,293.7h2.8c-0.7,1.6-1.5,3.3-2.2,4.6h9.3c-0.5,1.7-0.9,2.6-1.4,2.9c-0.4,0.2-0.9,0.3-1.4,0.2
		c-0.9,0-3.1,0-5.1-0.2c0.5,0.9,0.8,1.9,0.7,2.9c1.6,0.1,3.2,0.1,4.9,0c1.1,0.1,2.2-0.3,3.1-1c1-0.8,1.7-2.6,2.6-6.4
		c0.1-0.4,0.3-1.2,0.3-1.2h-8.7c0.3-0.6,0.6-1.2,0.9-1.9h9.3l0.5-2.8H87.2L86.7,293.7z"/>
	<path class="st0" d="M130.2,290.7l2.1-12h-20.2l-2.1,12h4.5c-2.5,1.8-5.3,3.2-8.3,4c0.7,0.8,1.3,1.8,1.7,2.8c2-0.7,3.8-1.5,5.6-2.6
		l-0.2,1c-0.3,1.8-1.3,4.2-6.3,5.7c0.8,0.8,1.4,1.7,1.9,2.7c6-2.1,7.4-5.6,7.9-8.3l0.3-2h-2.4c1.4-1,2.8-2.1,4-3.4h2.9
		c0.7,1.3,1.6,2.4,2.7,3.4h-2.1l-1.8,10h3.5l1.6-8.9c1.3,1,2.8,1.7,4.4,2.3c0.8-1,1.7-2,2.7-2.9c-2.6-0.7-5.1-2-7.1-3.8H130.2z
		 M118.8,288h-5l0.4-2h5L118.8,288z M119.6,283.4h-5l0.4-2h5L119.6,283.4z M123.3,281.4h5l-0.4,2h-5L123.3,281.4z M122.2,288l0.4-2
		h4.9l-0.4,2H122.2z"/>
	<path class="st0" d="M198.1,278.8l-2.8-0.8c-0.5,1-1.1,2-1.8,2.9h-4.7l-0.5,2.9h2.8c-1.3,1.3-2.7,2.4-4.3,3.3l1.5-8.4h-9l-1.6,9.3
		h3.9l-1.8,10.5l-1.3,0.3l1.5-8.7h-2.5l-1.7,9.4l-1.2,0.3l0.2,3.1c3.2-0.9,7.3-2,11.2-3.1l0-2.9l-3.3,0.8l0.7-3.8h2.3l0.5-2.9h-2.4
		l0.5-3h2.2V288c0.3,0.8,0.6,1.7,0.7,2.5c1.2-0.7,2.4-1.5,3.5-2.5l-0.2,1.4h7.3l0.3-1.8c0.6,1.1,1.5,2.1,2.4,3
		c0.8-0.9,1.7-1.8,2.6-2.5c-1.5-1.1-2.7-2.6-3.5-4.2h3.6l0.5-2.9h-7.1C197.3,280.3,197.7,279.6,198.1,278.8z M184.3,285.3h-3.5
		l0.6-3.6h3.5L184.3,285.3z M197.8,286.8h-5.6c0.9-0.9,1.8-1.9,2.6-2.9h1.8C196.9,284.9,197.3,285.9,197.8,286.8z"/>
	<path class="st0" d="M186.4,293.7h2.8c-0.7,1.6-1.5,3.3-2.2,4.6h9.3c-0.5,1.7-0.9,2.6-1.4,2.9c-0.4,0.2-0.9,0.3-1.4,0.2
		c-0.9,0-3.1,0-5.1-0.2c0.5,0.9,0.8,1.9,0.7,2.9c1.6,0.1,3.2,0.1,4.8,0c1.1,0.1,2.2-0.3,3.1-1c1-0.8,1.7-2.6,2.6-6.4
		c0.1-0.4,0.3-1.2,0.3-1.2h-8.6c0.3-0.6,0.6-1.2,0.9-1.9h9.3l0.5-2.8h-15.1L186.4,293.7z"/>
	<path class="st0" d="M213.8,293.5l-2.1,1l1.2-6.8h2.1l0.6-3.2h-2.1l1.1-6.4h-3.1l-1.1,6.3h-2.5l-0.6,3.2h2.5l-1.5,8.5
		c-1.1,0.5-2.2,0.9-3,1.3l0.7,3.4c2.5-1.2,5.5-2.8,8.3-4.3L213.8,293.5z"/>
	<path class="st0" d="M222.2,295.1l1.5-8.6h-7.3l-1.5,8.6H222.2z M218.5,289.1h2.2l-0.6,3.5h-2.2L218.5,289.1z"/>
	<path class="st0" d="M231.8,277.7l-2.2,1.6c0.7,0.7,1.4,1.4,2.1,2.2h-3c0.2-1.3,0.4-2.6,0.7-3.9h-3.2c-0.2,1.3-0.4,2.6-0.6,3.9h-9
		l-0.5,3h9.1c-0.6,3.9-0.9,7.9-0.9,11.9c-0.5,0.5-0.9,1-1.5,1.5l0.1-2.2c-3.7,0.8-7.6,1.6-10.1,2.1l0.2,3.1c2.5-0.6,5.9-1.5,9-2.3
		c-1.3,1.1-2.7,2.1-4.1,3c0.8,0.6,1.4,1.3,2,2.1c1.7-1.1,3.2-2.3,4.6-3.7c0.4,2.4,1.4,3.9,3,3.9c2.1,0,3.1-1.1,4.3-4.8
		c-0.8-0.5-1.4-1.1-1.9-1.9c-0.5,2.5-0.9,3.6-1.3,3.6c-0.7,0-1.1-1.5-1.1-4c2.2-3,4.1-6.3,5.5-9.8l-2.9-0.6
		c-0.7,1.8-1.5,3.6-2.5,5.3c0.1-2.1,0.4-4.5,0.7-7.1h5.5l0.5-3H233l1.4-1.1C233.7,279.5,232.8,278.5,231.8,277.7z"/>
	<path class="st0" d="M291.8,285.3h8.9l0.6-3.3h-8.8l0.7-4.2h-3.6l-0.8,4.2h-8.6l-0.6,3.3h8.6l-0.6,3.6h-10.7l-0.6,3.3h9.2
		c-3.3,3.3-7.2,5.9-11.5,7.7c0.8,0.9,1.5,1.9,2,2.9c3.9-1.9,7.5-4.5,10.5-7.6l-1.6,8.8h3.6l1.6-9c1.9,3.2,4.6,5.9,7.8,7.8
		c0.9-1.1,1.9-2,3-2.9c-3.6-1.7-6.6-4.4-8.7-7.8h9.3l0.6-3.3h-10.9L291.8,285.3z"/>
	<path class="st0" d="M313,284.7c-1.3,3.3-3.5,6.2-6.5,8.2c0.8,0.7,1.6,1.4,2.2,2.2c1.5-1.1,2.8-2.4,3.9-3.9c0.6,0.6,1.1,1.3,1.5,2
		l2.7-2.3c-0.7-0.9-1.5-1.7-2.3-2.5c0.6-1,1.1-2,1.6-3L313,284.7z"/>
	<path class="st0" d="M323.4,277.8h-3.5l-0.6,3.5H309l-0.6,3.3h10.3l-1.1,6.5c-3.5,4.1-8,7.2-13.1,9.1c0.7,0.9,1.4,1.9,1.9,2.9
		c3.8-1.7,7.3-4.1,10.3-7l-1.4,8.1h3.5l1.5-8.2c2,3,4.7,5.5,7.9,7.2c0.9-1.1,1.9-2.2,3-3.1c-3.9-1.5-7.2-4.3-9.4-7.9
		c0.7,0.4,1.4,0.9,2,1.4c0.9-0.7,1.6-1.5,2.3-2.4c1.1,1,2.1,2.1,3.1,3.3l2.8-2.4c-0.9-1-2.6-2.5-4-3.7c0.5-1,1-2,1.5-3l-3.2-0.6
		c-1,2.7-2.6,5-4.8,6.8c-0.1-0.2-0.2-0.4-0.3-0.7l1.1-6.3h10.7l0.6-3.3h-10.6L323.4,277.8z"/>
	<polygon class="st0" points="173.2,278.5 153.3,291.3 139.1,278.6 138.7,279.1 152.7,291.7 132.9,304.4 133.3,305 153.2,292.2 
		167.4,304.9 167.8,304.4 153.8,291.8 173.6,279.1 	"/>
	<polygon class="st0" points="275.1,279.1 274.7,278.5 254.8,291.3 240.7,278.6 240.2,279.1 254.2,291.7 234.5,304.4 234.8,305 
		254.7,292.2 268.9,304.9 269.4,304.4 255.3,291.8 	"/>
	<path class="st0" d="M27.9,278.1C27.9,278,27.9,278,27.9,278.1v-4.5h-1.4v4.4c0,7.7,6.3,14,14,14h25.8v-1.4H40.6
		C33.6,290.7,28,285,27.9,278.1z"/>
	<path class="st0" d="M380.1,273.6l0,4.4c0,7-5.6,12.6-12.6,12.6h-25.8v1.4h25.8c7.7,0,14-6.3,14-14v-4.4H380.1z"/>
</g>
<g>
	<path class="st0" d="M376.1,94.2l-1.3,5.2l0.7,0.4c5.3,2.6,10.2,4,14.2,4c2.2,0.1,4.5-0.5,6.4-1.6c2.8-1.7,4.2-4.8,4.2-8.8V44
		h-10.6v47c0,1.8-0.3,2.8-0.9,3.3c-1.4,1.2-5.2,0.9-11.9,0L376.1,94.2z"/>
	<path class="st0" d="M162.3,66.8h-28v6.8h60.4v-6.8h-29l8-5.7l-0.6-0.8c-5.1-6.6-11.1-12.4-17.9-17.3l-0.6-0.5l-3.8,3.6l0.4,0.7
		C154.3,51.9,158.9,59.8,162.3,66.8z"/>
	<path class="st0" d="M146,77.7l-5.3,1.8l0.2,0.9c3.5,13.8,5.8,27.9,6.9,42.1l0.1,1.1l12.6-2.4l-0.1-1c-1.5-10.9-7.7-29.2-13.9-41.8
		L146,77.7z"/>
	<rect x="372.4" y="48.3" class="st0" width="10" height="40.9"/>
	<path class="st0" d="M405.3,128.2h-39.6v-12.7h28.7V109h-28.7V98.1h-7.2V78.3H372v-6.5h-13.5V56h10.2v-6.5h-48.2V56h10.7v15.8H318
		v6.5h13.2c-0.9,15.5-7.8,22.2-14.5,26.6l-0.8,0.5l2.9,4.7l0.8-0.4c10.9-5,21.1-12.3,22.2-31.4h6.2v26h6.8v4.7h-29.2v6.5h29.2v12.7
		l-39.6,0v6.8h90.2V128.2z M348,71.8h-6.1V56h6.1V71.8z"/>
	<path class="st0" d="M225.8,137.5h10.4v-18.8h16.3V113h2.8l-2.1,2.6l0.5,0.6c1,1.3,2.1,2.5,3.1,3.7c2.5,3,4.8,5.8,7.1,8.8l0.7,0.9
		l7.2-7L271,122c-3.7-3.4-7.7-6.4-12.1-9h19.6v13.3c0,1.7-0.1,2.8-0.7,3.3c-1.1,1-5,0.5-10.3-0.4l-0.9-0.2l-1.5,5.1l0.7,0.4
		c5.1,2.8,9.6,4.2,13.4,4.2c1.9,0.1,3.8-0.4,5.5-1.4c2.8-1.6,4.2-4.7,4.2-8.8V113h12v-6.5h-12v-6.6H284c2.2-0.4,4.3-0.8,6.3-1.2
		c1.7,1.8,3.4,3.6,4.6,5.2l0.7,1l6.2-7l-0.8-0.7c-3-2.6-6.2-5-9.6-7h4.2V62.7h-16.8v-3.3h21.6v-6.5h-21.6v-9.7h-10.6v9.7h-18.6v4.4
		h-13.5V42.4h-10.4v14.9h-14.9l-0.1,6.5h14.9v5.7h-13.3v35.1h13.3v7.6H210v6.5h15.8V137.5z M278.9,69.2h7.2v3.7h-7.2V69.2z
		 M278.9,79.2h7.2v4.5h-7.2V79.2z M278.9,90.2h3.3l-0.3,0.5l3.1,2.9l-2.9,0.2l-3.2,0.3L278.9,90.2z M278.5,100.8v5.7h-29.7v5.7
		h-12.6v-7.6h13.3v-8.4l1.5,7.7h0.9C257.6,103.5,268.3,102.4,278.5,100.8z M251,63.8v-4.4h17.3v3.3h-16.1v27.5h16.1v4.5
		c-7.1,0.3-13.6,0.4-17.8,0.4h-1V69.5h-13.3l0-5.7H251z M261.8,72.9v-3.7h6.5v3.7H261.8z M268.2,79.2v4.5h-6.5v-4.5H268.2z
		 M235.8,76h3.9v7.3h-3.9V76z M235.8,89.5h3.9v8.6h-3.9V89.5z M222.2,76h3.8v7.3h-3.8V76z M222.2,98.1v-8.6h3.8v8.6H222.2z"/>
	<path class="st0" d="M187.8,80l0.2-1l-13.2-2.9l-0.1,1.2c-1.1,18.2-5.8,40-7.9,49.3H132v6.8h65.2v-6.8h-23.6
		C179.5,112.9,183.9,98.5,187.8,80z"/>
	<path class="st0" d="M109.2,99.4c4.1-3.5,7.7-7.6,10.8-12v51.3l10.8,0V68.7c3.2-7,5.9-14.2,8.2-21.5l0.3-1l-12-3.7l-0.2,1.1
		c-4.3,21.1-14.6,43.3-21.6,51.8l-0.6,0.7l3.6,4.1L109.2,99.4z"/>
	<path class="st0" d="M76.7,111c4.6-10.4,7-22.9,7.6-39.2h6.9v-6.5H68.1c2.1-6.4,3.6-12.9,4.4-19.6l0.1-1L61,43.1l-0.1,1
		c-0.6,6-1.4,12-2.4,17.6h-7.4v-10H36v-7.6H25.5v7.6H10.7v10h-8v6.5h8v10.1h14.8v3.2H8.7v17.8h14.5c-0.6,1.3-1.5,3-2.6,5.2H4.2v6.5
		H17c-3,5.3-6,10.5-7.5,12.6l-0.6,0.9l8.7,4.7l0.5-0.8c0.9-1.4,2.1-3.3,3.3-5.3c2.1,0.9,4.2,1.8,6.4,2.8c-5.5,3.8-12.9,6.3-22.1,7.3
		l-1.1,0.1l1.1,5.3h0.9c11.9-0.5,22.1-3.4,29.5-8.4c3.9,2.2,7.5,4.4,10.9,6.8l0.9,0.6l1.6-2.7l3.3,3.6l0.7-0.5
		c7-4.5,13.1-10.3,17.8-17.2c3.8,6.9,9.1,13,15.4,17.8l0.8,0.6l7.6-10.6l-0.8-0.6C88.1,124,81.8,119.1,76.7,111z M41,58.2v3.5h-4.9
		l0-3.5H41z M41,68.2v3.6h-4.9l0-3.6H41z M36,78.3h15.1V68.2h6c-1.1,5.1-2.6,10.1-4.3,15v-1.7H36V78.3z M36,88h6.4v4.8H36V88z
		 M20.8,58.2h4.6v3.5h-4.6V58.2z M20.8,71.8v-3.6h4.6v3.6H20.8z M19,92.8V88h6.4v4.8L19,92.8z M33.8,120.3c-3-1-6.1-1.9-9.1-2.7
		c1.1-1.9,2.2-4,3.3-5.9l0.3-0.6h9.9C37.4,114.4,35.9,117.5,33.8,120.3z M50.4,133.4l2.9-4.8l-0.9-0.5c-2.9-1.6-6-3-9.1-4.3
		c3-3.7,5-8.1,5.9-12.8h9.5v-6.5h-27c0.8-1.6,1.4-2.9,1.9-3.9l0.4-1l-0.9-0.3h19.7v-7.2l1.6,1l0.5-0.8c1.9-2.8,3.7-5.7,5.4-8.7
		c0.8,9.5,3,18.8,6.4,27.7C62.9,119.8,57.4,127.3,50.4,133.4z M70.9,99c-2.9-8.6-4.7-17.5-5.4-26.5l0.2-0.8h8.2
		C73.6,83,72.6,91.6,70.9,99z"/>
	<path class="st0" d="M406.4,212c-6.3-1.8-13.6-4.3-20.2-10.9h17.7v-6.5h-30.7c0.8-2,1.5-4,2.1-5.9h27v-6.5H387
		c4.2-4.2,7.9-9,10.9-14.1l0.6-1l-10.4-4.5l-0.3,1.1c-1.8,5.8-4,11.4-6.5,16.9l-0.4,0.8l1.4,0.8H377c1.4-6.8,2.2-13.7,2.4-20.7v-1
		H368v1c-0.1,6.9-0.7,13.9-1.7,20.7h-6.9l6.4-3.2l-0.5-0.9c-3.9-6.9-7.4-11.7-11-15.1l-0.6-0.5l-4.4,2.8l0.3,0.8
		c3,6.9,5,12.2,6.4,16.2h-6.4v6.5h15.2c-0.5,2-1.1,4-1.9,5.9h-16.2v6.5H360c-3.4,5.9-7.9,11.1-13.4,15.1v-50.1h-26.4v35.5
		c0,35.8-2.7,43.8-6.5,51.4l-0.4,0.8l4.3,3.1l0.6-0.7c6.9-7.6,10.6-19.7,11.8-38.1h6.4v24.3c0,1.8-0.2,2.8-0.7,3.2
		c-1,0.9-4.1,0.5-9-0.5l-0.9-0.2l-1.8,5l0.7,0.4c6.5,4.1,12.9,5.1,17.2,2.8c3-1.7,4.6-4.7,4.6-8.6V223l0.7-0.4
		c1.2-0.6,2.3-1.3,3.4-2v3.6h12.5c-2.1,12.7-7.2,20.3-18.4,27.7l-0.8,0.5l2.7,4.6l0.8-0.3c14.9-6.5,23-16.6,26.2-32.4h11
		c-0.1,6.5-0.5,15-1.3,19c-0.1,1.1-0.6,2.1-1.5,2.8c-1.6,1-4.9,0.8-11.9-0.8l-0.9-0.2l-1.8,5l0.6,0.4c7.5,5.1,14.4,6.7,19.5,4.6
		c3.2-1.3,5.4-4.2,5.8-7.6c1-6.1,1.5-16.4,2-28.2c2,1.3,4,2.4,6.1,3.5l0.9,0.5l5.2-10.8L406.4,212z M336.3,211.6h-6.1
		c0.1-2.2,0.1-4.4,0.1-6.8V194h6V211.6z M336.3,187.5h-6v-14.9h6V187.5z M364,217.8h-9.1c3.6-2.6,6.8-5.6,9.6-8.9
		C364.5,212.1,364.2,215.1,364,217.8z M374.8,217.8c0.4-3.7,0.6-7.5,0.7-10.5v-1h-8.8c1.2-1.7,2.4-3.4,3.4-5.2h8.9
		c3.4,6.6,8.3,12.4,14.4,16.7L374.8,217.8z"/>
	<path class="st0" d="M281.9,230.4c8.3-12.9,10-27.7,10.6-41.9h8.2V182H272c1.6-6.1,2.6-12.3,3.2-18.6l0.1-1l-12-1.7v1.1
		c-0.8,14.7-2.6,26.4-5.8,35.7c-3.2-5.8-7.3-11.1-12.1-15.7l-0.6-0.5l-4.1,2.6l0.4,0.8c0.9,1.8,1.9,4,3,6.6
		c-6.3,0.9-11.7,1.6-16.5,2c4.8-5.8,8.7-12.3,11.7-19.2h20.9v-6.5h-48.6v6.5h15.3c-1.5,6.9-3.8,13.5-7,19.8
		c-2.5,0.2-4.9,0.2-7.3,0.2h-1.3l2.9,12.1l0.9-0.2c10.6-2,21.1-5,31.1-8.9c1,2.6,1.8,5.3,2.4,8l0.2,1.3l6.4-3.1
		c-1,2.4-2.3,4.8-3.7,7.1l-0.5,0.8l4.1,3.2l0.6-0.6c3.1-3.2,5.8-6.9,8-10.8c0.8,10.7,3,20,6.5,27.6c-6.1,8.6-15.3,15.3-28.8,21.1
		l-1,0.4l2.3,4.8l0.7-0.2c13.2-4.1,23.5-9.9,31.4-17.9c4.9,7.1,11.6,12.6,20.3,16.9l0.8,0.4l7.7-12l-1.1-0.5
		C293.4,239.8,286.7,235.5,281.9,230.4z M275.5,221.3c-3.7-7.4-5.7-16.5-6.4-29.9c0.4-0.9,0.7-1.9,1-2.8l11,0
		C280.5,203.1,278.8,213.1,275.5,221.3z"/>
	<rect x="60.3" y="171.9" class="st0" width="10.2" height="60.9"/>
	<path class="st0" d="M261.8,236.1l-1.5-4.9l-0.9,0.3c-3.5,1-10.6,2.8-19.3,4.4v-13.2h18.2v-6.5H240v-12.6h-11v12.6h-17v6.5h17v15
		c-5.9,0.9-11.9,1.5-17.9,1.8h-1.3l3.4,12l0.9-0.1c12.3-1.7,36-9.2,47-14.8L261.8,236.1z"/>
	<path class="st0" d="M22,222.1h31.4v-28.9H38.1l3.8-3.1l-0.7-0.8c-3.2-3.6-6.9-6.9-10.8-9.8c1.6-1.9,3.2-3.9,4.6-6
		c5.5,5.4,10.6,11.2,15.5,17.2l0.7,0.9l7.8-8.2l-0.7-0.7c-3.9-3.8-12.3-10.1-19.9-14.8c0.5-0.9,1-1.8,1.4-2.8l0.4-0.9l-11.3-4.5
		l-0.4,1c-4.2,11.3-15.1,25.5-27.3,35.3l-0.7,0.6l3.2,4.4l0.8-0.4c2.7-1.5,5.2-3.1,7.7-4.8v9.2c0,26.5-2.3,37-10.3,47.3l-0.6,0.7
		l3.9,3.7l0.7-0.6c4.6-3.9,8.3-8.8,10.8-14.4V256h10v-5.6H44v5.1h10.6v-27.8H21C21.4,225.8,21.7,223.9,22,222.1z M26.6,234.2H44
		v10.1H26.6V234.2z M43,215.7H22.6c0.1-1.6,0.2-3.3,0.3-5H43V215.7z M43,199.7v4.5H22.9v-4.5H43z M25.8,184.5
		c1.8,2.7,3.8,5.7,5.6,8.6h-9.9l-4.5-0.9C20.1,189.8,23,187.3,25.8,184.5z"/>
	<path class="st0" d="M77,242.1c0,1.9-0.2,2.8-0.8,3.3c-1.4,1.3-6.1,0.9-15.3-0.3L60,245l-1.2,5.3l0.8,0.3c6.8,3,12.6,4.5,17.1,4.5
		c2.5,0.1,4.9-0.5,7-1.8c2.8-1.8,4.2-4.9,4.2-9.1v-82.8H77V242.1z"/>
	<path class="st0" d="M166.7,176.6c8.8-0.8,18.1-2.3,27.4-6.6l1.3-0.6l-9-8.7l-0.7,0.5c-6.3,4.4-13.4,7.7-20.8,9.8l-9.3-2.5v28
		h-14.9c3-4.3,5.7-8.8,8-13.5l0.5-1l-5.6-1.8h9.6v-6.4h-17.7l3.5-4.6l-0.9-0.6c-5.3-3.6-11-6.5-17-8.5l-0.8-0.3l-2.6,4.4l0.6,0.6
		c3.3,2.8,6.5,5.9,9.5,9h-19.5v6.4h7l-2,1.4l0.4,0.8c2,4.1,4.3,9.9,5.8,14.2h-12.7v6.5h19.5v9.8h-18.1v6.3h15.5
		c-3.8,9-11.5,19.9-18,25.3l-0.7,0.6l3.4,4.3l0.8-0.5c6.6-4.4,12.4-10,17.1-16.4v23.5h10.8v-26.5c2.6,3.4,5.3,7,7.9,11.1l0.7,1
		l7.8-7.6c-1.4,7-4.5,13.5-8.9,19l-0.6,0.8l4.1,3.6l0.7-0.6c12.6-10.8,17.9-26.7,17.9-53.3v-3h9.4v55l10.8,0v-55h10.3V194h-30.5
		V176.6z M134.2,196.5h-6.9l3.1-1.6l-0.5-0.9c-2.9-5-6.4-9.7-10.4-13.8h18.4C137.1,185.7,135.9,191.1,134.2,196.5z M153.6,233.7
		l-0.6-0.6c-4.7-4.8-10-9-15.8-12.4v-1.6H154v-6.3h-16.8V203h18.5l0,3.8C155.7,217.4,155.3,226.2,153.6,233.7z"/>
</g>
<g>
	<path class="st0" d="M74.3,10.5H41.2c-7.7,0-14,6.3-14,14v4.4h1.4v-4.5c0-7,5.7-12.6,12.6-12.6c0,0,0,0,0,0h33.1v10.7h1.4V0h-1.4
		V10.5z"/>
	<path class="st0" d="M366.8,10.4h-33.5V0H332v22.5h1.4V11.8h33.5c7,0,12.6,5.6,12.6,12.6v4.4h1.4v-4.4
		C380.8,16.7,374.5,10.4,366.8,10.4z"/>
	<path class="st0" d="M108,17.1c1.4-2.9,2.2-6.1,2.3-9.3h0.9V4.4h-5.3c0.4-1.2,0.7-2.4,1.1-3.8l-3.6-0.5c-0.3,2.3-0.9,4.6-1.8,6.7
		V4.4h-1V1.8h-4.4V0.3H93v1.4h-4.4v2.7h-1v2.5h1v2.6H93v0.8h-4.4V15h3.6l-0.5,0.7h-4v2.4h2c-0.2,0.2-0.5,0.5-0.8,0.9
		c-0.3,0.4-0.7,0.8-1,1.1l2.8,0.8l0.5-0.3c0.3,0.1,0.6,0.2,0.9,0.2c-1.5,0.5-3.1,0.7-4.8,0.8c0.3,0.5,0.5,1.1,0.7,1.7
		c0.1,0.3,0.3,0.6,0.4,0.9c2.5-0.3,4.9-1,7.2-2.1c0.7,0.3,1.9,0.8,3.7,1.4c0.1,0.1,0.2,0.1,0.3,0.1l0.9-1.6l1.4,1.9
		c1.4-1.1,2.7-2.3,4-3.5c1.1,1.2,2.4,2.2,3.7,3.2c0.2-0.5,0.5-1.1,0.8-1.6c0.5-0.8,0.8-1.3,1-1.7C110.1,19.2,109,18.2,108,17.1z
		 M92.9,7.5h-1.4V6.6h1.4V7.5z M92.9,4.7h-1.4V3.8h1.4V4.7z M93,13h-1.6v-0.9H93V13z M100.5,6.9h1c-0.1,0.3-0.3,0.7-0.6,1.2
		c-0.1,0.3-0.3,0.6-0.4,0.9V6.9z M96.2,3.8h1.4v0.9h-1.4V3.8z M96.2,6.6h1.4v0.9h-1.4V6.6z M96.2,9.5h4.1c0.1,0.1,0.2,0.3,0.2,0.4
		c0.1,0.1,0.1,0.3,0.1,0.4h-4.4V9.5z M96.2,12.2h1.6V13h-1.6V12.2z M95.1,19.2L94,18.8L93,18.5l0.4-0.4h2.8
		C95.9,18.5,95.5,18.8,95.1,19.2z M100.1,20.7l-1.7-0.6c0.6-0.6,1.2-1.3,1.6-2h1.9v-2.4h-6.6c0.1-0.1,0.2-0.3,0.3-0.4v0l0.3-0.3h4.7
		v-4.6c0.3,0.8,0.6,1.8,1,2.8c0.1-0.2,0.2-0.4,0.4-0.6c0.1-0.3,0.2-0.5,0.3-0.6c0.4,1.8,0.9,3.5,1.6,5.1
		C102.7,18.5,101.5,19.7,100.1,20.7z M105.9,13.8c-0.7-1.9-1.1-4-1.3-6h2.4C107,9.8,106.6,11.9,105.9,13.8z"/>
	<path class="st0" d="M139.6,9.5l-4.1-1.1c-0.8,3-1.9,6.6-3.2,10.8h-7.8v3.5H141v-3.5h-4.7C137.4,16.1,138.5,12.8,139.6,9.5z"/>
	<path class="st0" d="M121.6,0.2c-1,3.6-2.5,7-4.4,10.1c0.3,1.6,0.6,3.4,0.9,5.2c0.2-0.2,0.3-0.4,0.5-0.6c0.5-0.6,0.9-1.2,1.3-1.8
		v10.5h3.9V6c0.7-1.5,1.3-3.1,1.7-4.7L121.6,0.2z"/>
	<path class="st0" d="M125.7,9.5c0.9,2.8,1.8,5.8,2.5,9l3.9-1.2c-0.8-2.9-1.5-5.1-2-6.7c-0.3-1-0.6-1.7-0.7-2.2L125.7,9.5z"/>
	<polygon class="st0" points="124.9,7.8 140.6,7.8 140.6,4.1 134.8,4.1 134.8,0.3 130.5,0.3 130.5,4.1 124.9,4.1 	"/>
	<path class="st0" d="M169.9,12.6V5.1h-4.6V4.3h5.3V1.8h-5.3V0.2h-3.1v1.6h-4.9v2.5h4.9v0.8h-4.6v7.6h4.6v0.9H157l0.3,2.5l11-0.3
		c0.1,0.1,0.2,0.2,0.3,0.4c0,0.2,0.1,0.3,0.2,0.5l2.2-1.2c-0.6-0.9-1.2-1.9-1.7-2.8H169.9z M162.2,10.5l-1.7,0.1V9.6h1.7V10.5z
		 M162.2,8h-1.7V7.3h1.7V8z M165.3,7.3h1.8V8h-1.8V7.3z M165.3,9.7h1.8v0.9h-1.8V9.7z M165.2,13.6l0-0.9h1.4
		c0.1,0.1,0.2,0.3,0.2,0.4c0.1,0.1,0.2,0.3,0.2,0.5H165.2z"/>
	<path class="st0" d="M168.3,16.1h-3.2v0.8h-7.8v2.6h1.8l-1.3,1.1c0.5,0.3,0.9,0.6,1.3,1l1.4,1.2l1.5-1.6c0.1,0.3,0.2,0.7,0.3,1.2
		c0.1,0.5,0.2,0.8,0.3,1.1h1.4c0.5-0.1,0.9-0.1,1.4-0.1c1.9,0,2.8-1.1,2.7-3v-0.8h2.5v-2.6h-2.5V16.1z M165.1,20
		c0,0.5-0.2,0.8-0.9,0.7h-1.6c-0.2-0.1-0.5-0.2-0.7-0.4c-0.3-0.2-0.7-0.5-1-0.8l4.2,0V20z"/>
	<path class="st0" d="M153.8,16.4h2.6V5.9h-2.6V4.9h2.8v-3h-2.8V0.2h-3.2v1.7h-3v3h3v1.1H148v10.5h2.6v1.2h-3.3v3h3.3l0,2.9h3.2
		v-2.9h3.1v-3h-3.1V16.4z M153.5,8.7h1.1V10h-1.1V8.7z M151,13.6h-1.1v-1.3h1.1V13.6z M151,10h-1.1V8.7h1.1V10z M153.5,13.6v-1.3
		h1.1v1.3H153.5z"/>
	<path class="st0" d="M192.4,13.3c0.1,0.2,0.1,0.3,0.1,0.5c2,0,3.4,0,4.2-0.1c2.1,0,3.2-1.2,3.1-3.6V0.4h-3.5v8.7
		c0.1,0.9-0.4,1.4-1.4,1.4c-1.5,0-2.6,0-3.1-0.1C192.1,11.5,192.3,12.5,192.4,13.3z"/>
	<rect x="191.4" y="1.4" class="st0" width="3.3" height="8.1"/>
	<path class="st0" d="M190.9,18.1h8.2v-3.2h-8.2v-2.3h-2.1V9.4h2.1V6.2h-2.1V3.9h1.6V0.8h-12.4v3.1h1.9v2.3h-2.4v3.2h2.4
		c-0.1,1.4-0.9,2.6-2.1,3.3c1.2,0.5,2.3,1.1,3.3,1.7c1.5-1.2,2.4-3,2.3-5h2v4h1.5v1.4h-8.2V18h8.2v1.7h-9.5v3.2h23v-3.1h-9.5V18.1z
		 M185.3,6.2h-2V3.9h2V6.2z"/>
	<path class="st0" d="M222.7,16.8h3.4v-3.2h-2.1v1.3h-1c0-0.6,0.1-1.1,0.1-1.6h-2.6v1.6h-0.9v-1.2h-0.8c0.4-0.3,0.7-0.6,1-1h7.2
		c0,0.5,0,1.2-0.1,1.9v1.8c0,0.5-0.4,1-1,1c0,0-0.1,0-0.1,0c-0.7,0-1.5,0-2.2-0.1c0.2,0.7,0.4,1.5,0.6,2.4h2.8c1.8,0,2.8-1,2.8-2.9
		c0.1-0.7,0.1-1.7,0.1-3.2c0-1.5,0.1-2.4,0.1-3.1h-8.4c0.1-0.2,0.2-0.5,0.4-0.7l-1.4-0.1c0.9-0.4,1.7-1.1,2-2h3.3V4.6h-2v1.1h-1V4.2
		h-2.5v1.4h-0.9v-1h-1l0.3-0.3c0.2-0.2,0.4-0.4,0.6-0.6h7.3c0,1.7,0,2.8-0.1,3.5c-0.1,0.7-0.2,0.7-0.9,0.7h-2.2
		c0,0.3,0.2,0.8,0.3,1.4c0.1,0.2,0.2,0.4,0.2,0.7c1.4,0,2.4,0,3-0.1c1.8,0,2.7-0.9,2.6-2.3c0.1-1.9,0.2-4,0.2-6.1h-8.5
		c0.2-0.3,0.4-0.6,0.5-0.9c0.1,0,0.2-0.1,0.2-0.2l-3.2-0.3c-0.8,1.4-2,2.6-3.4,3.4c0.1,0.4,0.4,1.2,0.7,2.3c0,0.2,0.1,0.5,0.2,0.7
		c0.4-0.2,0.7-0.5,1-0.8v1.9h2.3c-1.1,0.5-2.3,0.8-3.6,0.9c0.4,0.9,0.7,1.6,0.9,2.2c0.4-0.1,0.8-0.2,1.3-0.3
		c-0.8,0.8-1.7,1.6-2.6,2.2c0.1,0.2,0.1,0.4,0.2,0.7c0.3,1,0.4,1.8,0.5,2.2c0.2-0.2,0.4-0.3,0.6-0.4c0.1-0.1,0.3-0.3,0.5-0.4v1.9
		h2.4c-0.5,0.6-1.8,1-4.1,1.3c0.3,0.6,0.6,1.3,1.1,2c-0.8,0-1.7-0.1-2.5-0.3v-2.7h1.4v-3.2h-1.4v-2.5h1.6V8.2h-2.4V6h2V2.9h-2V0.2
		h-3.1v2.7h-2.4V6h2.4v2.1h-3v3.2h4.3v6.3c-0.4-0.5-0.8-1.2-1-1.8c0-1,0.1-2.1,0.1-3.3l-2.7-0.3c0.1,2.9-0.2,5.8-1,8.6
		c0.1,0.2,0.4,0.6,0.8,1.1l1.4,1.8l0.3-0.8c0.3-1.2,0.6-2.1,0.7-2.6c1.2,2,3.8,2.9,7.9,2.7c3.1,0,7.1,0.1,11.9,0.1
		c0.4-1.3,0.7-2.3,1-3H218C220.9,19.5,222.4,18.4,222.7,16.8z"/>
	<path class="st0" d="M258.6,10.4c0,0.4-0.1,0.6-0.2,0.7c-0.1,0.1-0.2-0.3-0.3-0.7V2.5h-4V0.3H251v2.2h-1.8v2.8h1.8
		c0,0.6-0.1,1.1-0.1,1.6c-0.4-0.1-0.7-0.3-1-0.5l-1.4,2.3l1.6,1c-0.5,0.9-1.1,1.7-1.8,2.4v-0.6c-0.5,0-1.1,0-1.9,0.1h-1.6V11h2.7V9
		h-2.7V8.6c0.2,0.1,0.4,0.2,0.7,0.1h1.4c0.9,0.2,1.8-0.5,1.9-1.4c0-0.1,0-0.2,0-0.4c-0.5-0.1-1-0.2-1.4-0.4h1.3V4.3h-3.8V3.6h3.2
		V1.4h-3.2V0.3h-3.2v1.1h-3.3v2.2h3.3v0.7h-4.1v2.2h2.6c-0.4,0.8-1.4,1.1-3.2,1.3c0.5,0.5,0.9,1.2,1.2,1.8c0.1-0.1,0.3-0.1,0.4-0.1
		v1.4h3.1v0.8l-4,0.1l0.3,2.4l10.3-0.5v-1.6c0.3,0.4,0.7,0.9,1.3,1.7l0.7,1c0.9-1,1.7-2.1,2.4-3.2c0.5,0.4,1,0.8,1.6,1.2l0.9-2
		l0.1,0.9c0.1,1.9,1,2.8,2.7,2.9c1.3,0,2.1-0.9,2.3-2.3c0.2-1.1,0.4-2.3,0.4-3.4c-0.6-0.2-1.3-0.4-1.8-0.7L258.6,10.4z M246,6.5h1.2
		c0,0.5-0.1,0.7-0.4,0.7h-0.3c-0.3,0-0.5-0.1-0.5-0.4V6.5z M241.7,8.2V9h-2c1.2-0.3,2.2-1.3,2.6-2.5h1.7v0.8c0,0.3,0.1,0.6,0.2,0.9
		H241.7z M255.1,9.6l-1.4-0.9c0.2-1.1,0.4-2.2,0.5-3.4h1V9.6z"/>
	<path class="st0" d="M249.4,14.1h-4l-0.1,1.1h-7.2V18h6.1c-0.7,1.2-3.1,2-7.3,2.5c0.5,0.6,1,1.3,1.4,2c0.2,0.4,0.4,0.8,0.6,1.2
		c5.6-1,8.7-2.9,9.5-5.7h6.3c0,0.2,0,0.4-0.1,0.6c0,0.2,0,0.4-0.1,0.6c0,0.8-0.6,1.1-1.6,1.1c-2,0-3.4,0-4.3-0.1
		c0.1,0.5,0.3,1.2,0.5,2.3c0,0.3,0.1,0.5,0.2,0.8c1.2,0,2.6-0.1,4.2-0.1c3.5,0.1,5.1-1.1,4.9-3.7c0.1-1.3,0.2-2.8,0.3-4.4h-9.6
		L249.4,14.1z"/>
	<path class="st0" d="M284.3,1.4l0.6-1L281.2,0c-1.5,2.4-3.5,4.4-6,5.7V4.3h-8.5v2.9h8.3l0.7,2.2c0.3-0.2,0.6-0.5,1.2-0.8
		c0.8-0.5,1.4-0.8,1.7-1.1v1.3h7.8V7.4c1,0.7,2,1.3,3.1,1.8c0.4-1.1,0.8-2.2,1.3-3.3C288.2,4.9,286,3.4,284.3,1.4z M280.5,5.9
		c0.7-0.6,1.4-1.3,1.9-2.1v0c0.7,0.8,1.4,1.4,2,2.1H280.5z"/>
	<rect x="267.5" y="0.8" class="st0" width="6.8" height="2.6"/>
	<path class="st0" d="M275.6,23.3h2.8v-5.2h1v4.3h2.4v-4.3h1.1V22h2l0.3,1.4c0.7,0,1.4,0,2-0.1c1.5,0.1,2.2-0.8,2.1-2.5V9.9h-13.8
		V23.3z M285.4,12.9h1.1v2.2h-1.1V12.9z M285.4,18.1h1.1v2c0.1,0.4-0.1,0.6-0.5,0.6h-0.6V18.1z M282,12.9h1.1v2.2l-1.1,0.1V12.9z
		 M278.5,12.9h1l0,2.3h-1.1V12.9z"/>
	<rect x="267.1" y="11.6" class="st0" width="7.5" height="2.6"/>
	<rect x="267.1" y="8.1" class="st0" width="7.5" height="2.6"/>
	<path class="st0" d="M267.2,23.4h2.7v-1h1.9v1h2.7v-8.3h-7.4V23.4z M269.9,17.9h1.9v2h-1.9V17.9z"/>
	<path class="st0" d="M319.3,4.7h-15.7v8.2h15.6L319.3,4.7z M316,10.9h-9V6.6h9V10.9z"/>
	<polygon class="st0" points="320,1.7 313.5,1.7 313.5,0 310,0 310,1.7 303,1.7 303,4 320,4 	"/>
	<path class="st0" d="M303.4,16.1l-1.6,0.4V9.9h1.3V6.1h-1.3V0.3h-3.4v5.8h-1.6v3.8h1.6v7.5l-1.8,0.4l0.6,3.8
		c1.2-0.4,2.4-0.7,3.6-0.9l2.7-0.8C303.3,18.8,303.3,17.6,303.4,16.1z"/>
	<path class="st0" d="M318.6,20v-6.5h-14.3V20H318.6z M307.6,15.4h7.7v0.8h-7.7V15.4z M307.6,17.4h7.7v0.8h-7.7V17.4z"/>
	<rect x="302.7" y="20.7" class="st0" width="17.5" height="2.1"/>
	<path class="st0" d="M314.8,7.3h-6.7v3h6.7V7.3z M312.3,9.1h-1.6V8.4h1.7L312.3,9.1z"/>
</g>
</svg>
