<?xml version="1.0" encoding="utf-8"?>
<!-- Generator: Adobe Illustrator 24.3.0, SVG Export Plug-In . SVG Version: 6.00 Build 0)  -->
<svg version="1.1" id="圖層_1" xmlns="http://www.w3.org/2000/svg" xmlns:xlink="http://www.w3.org/1999/xlink" x="0px" y="0px"
	 viewBox="0 0 852 188" style="enable-background:new 0 0 852 188;" xml:space="preserve">
<style type="text/css">
	.st0{fill:#FFFFFF;}
</style>
<g>
	<path class="st0" d="M322.8,161.6l-2.8-0.8c-0.5,1-1.1,2-1.8,2.9h-4.7l-0.5,2.9h2.8c-1.3,1.3-2.7,2.4-4.3,3.3l1.5-8.4h-9l-1.6,9.3
		h3.9l-1.9,10.5l-1.3,0.3l1.5-8.7H302l-1.6,9.4l-1.2,0.3l0.2,3.1c3.2-0.8,7.3-2,11.2-3.1l0.1-2.9l-3.3,0.8l0.7-3.8h2.3l0.5-2.9h-2.3
		l0.5-3h2.2v-0.1c0.3,0.8,0.6,1.7,0.7,2.5c1.2-0.7,2.4-1.5,3.5-2.5l-0.2,1.4h7.3l0.3-1.8c0.6,1.1,1.4,2.2,2.4,3.1
		c0.8-0.9,1.7-1.8,2.7-2.5c-1.5-1.1-2.7-2.6-3.5-4.2h3.6l0.5-2.9h-7.1C322,163.1,322.4,162.4,322.8,161.6z M309,168.1h-3.5l0.6-3.7
		h3.5L309,168.1z M322.5,169.6h-5.6c0.9-0.9,1.8-1.9,2.6-2.9h1.8C321.6,167.7,322,168.6,322.5,169.6z"/>
	<path class="st0" d="M311.1,176.5h2.8c-0.7,1.6-1.5,3.3-2.2,4.6h9.3c-0.5,1.7-0.9,2.6-1.4,2.9c-0.4,0.2-0.9,0.3-1.4,0.2
		c-0.9,0-3.1,0-5.1-0.2c0.5,0.9,0.8,1.9,0.7,2.9c1.6,0.1,3.2,0.1,4.9,0c1.1,0.1,2.2-0.3,3.1-1c1-0.8,1.7-2.6,2.6-6.4
		c0.1-0.4,0.3-1.2,0.3-1.2h-8.7c0.3-0.6,0.6-1.2,0.9-1.9h9.3l0.5-2.8h-15.1L311.1,176.5z"/>
	<path class="st0" d="M354.6,173.5l2.1-12h-20.2l-2.1,12h4.5c-2.5,1.8-5.3,3.2-8.3,4c0.7,0.8,1.3,1.8,1.7,2.8c2-0.7,3.8-1.6,5.6-2.6
		l-0.2,1c-0.3,1.8-1.3,4.2-6.3,5.7c0.8,0.8,1.4,1.7,1.8,2.7c6-2.1,7.4-5.6,7.9-8.3l0.3-2h-2.4c1.4-1,2.8-2.1,4-3.4h2.9
		c0.7,1.3,1.6,2.4,2.7,3.4h-2.1l-1.8,10h3.5l1.6-8.9c1.3,1,2.8,1.7,4.4,2.3c0.8-1,1.7-2,2.7-2.9c-2.6-0.7-5.1-2-7.1-3.8H354.6z
		 M343.2,170.8h-5l0.4-2h5L343.2,170.8z M344,166.2h-5l0.4-2h5L344,166.2z M347.7,164.2h5l-0.4,2h-5L347.7,164.2z M346.6,170.8
		l0.4-2h5l-0.4,2H346.6z"/>
	<path class="st0" d="M422.5,161.6l-2.8-0.8c-0.5,1-1.1,2-1.8,2.9h-4.6l-0.5,2.9h2.8c-1.3,1.3-2.7,2.4-4.3,3.3l1.5-8.4h-9l-1.6,9.3
		h3.9l-1.8,10.5l-1.3,0.3l1.5-8.7h-2.5l-1.7,9.4l-1.2,0.3l0.2,3.1c3.2-0.9,7.3-2,11.2-3.1l0.1-2.9l-3.3,0.8l0.7-3.8h2.3l0.5-2.9
		h-2.3l0.5-3h2.2v-0.1c0.3,0.8,0.6,1.7,0.7,2.5c1.2-0.7,2.4-1.5,3.5-2.5l-0.2,1.4h7.3l0.3-1.8c0.6,1.1,1.5,2.2,2.4,3
		c0.8-0.9,1.7-1.8,2.6-2.5c-1.5-1.1-2.7-2.6-3.5-4.2h3.6l0.5-2.9h-7C421.8,163.1,422.2,162.4,422.5,161.6z M408.7,168.1h-3.5
		l0.6-3.7h3.5L408.7,168.1z M422.2,169.6h-5.6c0.9-0.9,1.8-1.9,2.6-2.9h1.8C421.3,167.7,421.7,168.6,422.2,169.6z"/>
	<path class="st0" d="M410.8,176.5h2.8c-0.7,1.6-1.5,3.3-2.2,4.6h9.3c-0.5,1.7-0.9,2.6-1.4,2.9c-0.4,0.2-0.9,0.3-1.4,0.2
		c-0.9,0-3.1,0-5.1-0.2c0.5,0.9,0.8,1.9,0.7,2.9c1.6,0.1,3.2,0.1,4.9,0c1.1,0.1,2.2-0.3,3.1-1c1-0.8,1.7-2.6,2.6-6.4
		c0.1-0.4,0.3-1.2,0.3-1.2h-8.7c0.3-0.6,0.6-1.2,0.9-1.9h9.3l0.5-2.8h-15.2L410.8,176.5z"/>
	<path class="st0" d="M438.2,176.3l-2.1,1l1.2-6.8h2.1l0.6-3.2h-2.1l1.1-6.3h-3.1l-1.1,6.3h-2.5l-0.6,3.2h2.5l-1.5,8.4
		c-1.1,0.5-2.2,0.9-3,1.3l0.7,3.4c2.5-1.2,5.5-2.8,8.3-4.3L438.2,176.3z"/>
	<path class="st0" d="M446.6,177.9l1.5-8.6h-7.3l-1.5,8.6H446.6z M442.9,171.9h2.2l-0.6,3.5h-2.1L442.9,171.9z"/>
	<path class="st0" d="M456.2,160.5l-2.2,1.6c0.7,0.7,1.4,1.4,2.1,2.2h-3c0.2-1.3,0.4-2.6,0.7-3.9h-3.2c-0.2,1.3-0.4,2.6-0.6,3.9h-9
		l-0.5,3h9.1c-0.6,3.9-0.9,7.9-0.9,11.9c-0.5,0.5-0.9,1-1.5,1.5l0.1-2.2c-3.7,0.8-7.5,1.6-10.1,2.1l0.2,3.1c2.5-0.6,5.9-1.5,9-2.3
		c-1.3,1.1-2.7,2.1-4.2,3c0.8,0.6,1.4,1.3,2,2.1c1.7-1.1,3.2-2.3,4.6-3.7c0.5,2.4,1.4,3.9,3,3.9c2.1,0,3.1-1.1,4.3-4.8
		c-0.8-0.5-1.4-1.1-1.9-1.9c-0.5,2.5-0.9,3.6-1.3,3.6c-0.7,0-1.1-1.5-1.1-4c2.2-3,4.1-6.3,5.5-9.8l-2.9-0.6
		c-0.7,1.8-1.5,3.6-2.5,5.3c0.1-2.1,0.4-4.5,0.7-7.1h5.5l0.5-3h-1.3l1.4-1.1C458.1,162.3,457.2,161.3,456.2,160.5z"/>
	<path class="st0" d="M516.2,168.1h8.8l0.6-3.3h-8.8l0.7-4.2H514l-0.7,4.2h-8.6l-0.6,3.3h8.6l-0.6,3.6h-10.7l-0.6,3.3h9.2
		c-3.3,3.3-7.2,5.9-11.5,7.7c0.8,0.9,1.5,1.9,2,2.9c3.9-1.9,7.5-4.5,10.5-7.6l-1.6,8.9h3.6l1.6-9c1.9,3.2,4.6,5.9,7.8,7.8
		c0.9-1.1,1.9-2,2.9-2.9c-3.6-1.7-6.6-4.4-8.7-7.8h9.3l0.6-3.3h-10.9L516.2,168.1z"/>
	<path class="st0" d="M537.4,167.5c-1.3,3.3-3.5,6.2-6.5,8.2c0.8,0.7,1.6,1.4,2.2,2.2c1.5-1.1,2.8-2.4,3.9-3.9
		c0.6,0.6,1.1,1.3,1.5,2l2.7-2.3c-0.5-0.7-1.4-1.6-2.3-2.5c0.6-1,1.1-2,1.5-3L537.4,167.5z"/>
	<path class="st0" d="M547.8,160.5h-3.5l-0.6,3.5h-10.3l-0.6,3.3h10.3l-1.2,6.5c-3.5,4.1-8,7.2-13,9.1c0.7,0.9,1.3,1.9,1.9,2.9
		c3.8-1.7,7.3-4.1,10.3-7l-1.4,8.1h3.5l1.5-8.2c2,3,4.7,5.5,7.9,7.2c0.9-1.1,1.9-2.2,3-3.1c-3.9-1.5-7.2-4.3-9.4-7.9
		c0.7,0.4,1.4,0.9,2,1.4c0.9-0.7,1.6-1.5,2.3-2.4c1.1,1,2.1,2.1,3.1,3.3l2.8-2.3c-0.9-1-2.6-2.5-4-3.7c0.5-1,1-2,1.5-3l-3.2-0.6
		c-1,2.7-2.6,5-4.8,6.8c-0.1-0.2-0.2-0.4-0.3-0.7l1.1-6.3h10.7l0.6-3.3h-10.7L547.8,160.5z"/>
	<polygon class="st0" points="397.6,161.3 377.7,174.1 363.5,161.4 363.1,161.9 377.1,174.5 357.4,187.2 357.7,187.8 377.6,175 
		391.8,187.7 392.2,187.2 378.2,174.6 398,161.9 	"/>
	<polygon class="st0" points="499.5,161.9 499.1,161.3 479.2,174.1 465.1,161.4 464.6,161.9 478.6,174.5 458.9,187.2 459.2,187.8 
		479.2,175 493.3,187.7 493.8,187.2 479.7,174.6 	"/>
	<path class="st0" d="M809.7,156.4l0,4.4c0,7-5.6,12.6-12.6,12.6H566v1.4h231c7.7,0,14-6.2,14-14v-4.4H809.7z"/>
	<path class="st0" d="M42.3,160.8v-4.4H41v4.4c0,7.7,6.3,14,14,14h235.7v-1.4H54.9C48,173.4,42.3,167.8,42.3,160.8z"/>
</g>
<path class="st0" d="M850.5,94.8c-6.3-1.8-13.6-4.3-20.2-10.9h17.7v-6.5h-30.7c0.8-1.9,1.5-3.9,2.1-5.9h27V65h-15.3
	c4.2-4.2,7.9-9,10.9-14.1l0.6-1l-10.4-4.5l-0.3,1.1c-1.8,5.8-4,11.4-6.5,16.9l-0.4,0.8l1.4,0.8h-5.3c1.4-6.8,2.2-13.7,2.3-20.7v-1
	h-11.4v1c-0.1,6.9-0.7,13.9-1.8,20.7h-6.9l6.4-3.2l-0.5-0.9c-3.9-6.9-7.4-11.7-11-15.1l-0.6-0.5l-4.4,2.8l0.3,0.8
	c3,6.9,5,12.2,6.4,16.2h-6.3v6.5H809c-0.5,2-1.1,4-1.9,5.9h-16.2v6.5h13.1c-3.4,5.9-7.9,11.1-13.4,15.1V48.8h-26.4v35.5
	c0,35.8-2.7,43.8-6.5,51.3l-0.4,0.8l4.3,3.1l0.6-0.7c6.9-7.6,10.6-19.7,11.8-38.1h6.4v24.3c0,1.8-0.2,2.8-0.7,3.2
	c-1,0.9-4.1,0.5-9-0.5l-0.8-0.2l-1.8,5l0.7,0.4c6.5,4.1,12.9,5.1,17.2,2.8c3-1.6,4.6-4.7,4.6-8.6v-21.5l0.7-0.3
	c1.2-0.6,2.3-1.3,3.4-2v3.6h12.5c-2.1,12.7-7.2,20.3-18.4,27.7l-0.8,0.5l2.8,4.6l0.8-0.4c14.9-6.6,23-16.6,26.2-32.4h11
	c-0.1,6.5-0.5,15-1.3,19c-0.3,1.5-0.7,2.3-1.5,2.8c-1.6,1-4.9,0.8-11.9-0.8l-0.9-0.2l-1.8,5l0.6,0.4c7.5,5.1,14.4,6.7,19.5,4.6
	c3.2-1.3,5.4-4.2,5.8-7.6c1-6.1,1.5-16.4,2-28.2c2,1.3,4,2.4,6.1,3.5l0.9,0.5l5.2-10.8L850.5,94.8z M780.4,76.8v17.6h-6.1
	c0.1-2.2,0.1-4.4,0.1-6.8V76.8L780.4,76.8z M780.4,55.4v14.9h-6V55.3L780.4,55.4z M799,100.6c3.6-2.6,6.8-5.6,9.7-8.9
	c-0.1,3.2-0.3,6.2-0.6,8.9H799z M818.9,100.6c0.5-3.7,0.6-7.5,0.7-10.5v-1h-8.8c1.2-1.7,2.4-3.4,3.4-5.2h8.9
	c3.4,6.6,8.3,12.4,14.4,16.7L818.9,100.6z"/>
<path class="st0" d="M373.8,94.4l-1.3,5.2l0.7,0.4c5.3,2.6,10.2,4,14.2,4c2.2,0.1,4.5-0.5,6.4-1.6c2.8-1.7,4.2-4.8,4.2-8.8V44.2
	h-10.6v47c0,1.8-0.3,2.8-0.9,3.3c-1.4,1.2-5.2,0.9-11.9,0L373.8,94.4z"/>
<path class="st0" d="M687.9,139.3c13.2-4.1,23.5-9.9,31.4-17.9c4.9,7.1,11.5,12.6,20.3,16.9l0.8,0.4l7.8-12l-1.1-0.4
	c-9.5-3.8-16.2-8-21-13.2c8.3-12.9,10-27.7,10.6-41.9h8.2v-6.5h-28.7c1.6-6.1,2.6-12.3,3.2-18.6l0.1-1l-12-1.7v1.1
	c-0.8,14.7-2.6,26.4-5.8,35.7c-3.2-5.8-7.3-11.1-12.1-15.7l-0.6-0.5l-4.1,2.6l0.4,0.8c0.9,1.8,1.9,4,3,6.6c-6.3,0.9-11.7,1.6-16.6,2
	c4.8-5.8,8.8-12.3,11.8-19.2h20.9v-6.5h-48.6v6.5H671c-1.5,6.9-3.8,13.5-7,19.7c-2.5,0.2-4.9,0.2-7.3,0.2h-1.3l2.9,12.2l0.9-0.2
	c10.6-2,21.1-5,31.1-8.9c1,2.6,1.8,5.3,2.4,8l0.3,1.3l6.4-3c-1,2.4-2.3,4.8-3.7,7.1l-0.5,0.8l4.1,3.2l0.6-0.6
	c3.1-3.2,5.8-6.9,8-10.8c0.8,10.7,3,19.9,6.5,27.6c-6.1,8.6-15.3,15.3-28.8,21.1l-1,0.4l2.3,4.8L687.9,139.3z M725.2,71.2
	c-0.6,14.6-2.3,24.6-5.6,32.8c-3.7-7.4-5.7-16.5-6.4-29.9c0.4-0.9,0.7-1.9,1-2.8L725.2,71.2z"/>
<rect x="504.4" y="54.7" class="st0" width="10.2" height="60.9"/>
<path class="st0" d="M131.9,73.8h60.4V67h-29l8-5.7l-0.6-0.8c-5.1-6.6-11.1-12.4-17.9-17.3l-0.7-0.5l-3.8,3.6l0.4,0.7
	c3.3,5.1,7.9,13,11.2,20h-28.1V73.8z"/>
<path class="st0" d="M143.6,77.9l-5.3,1.8l0.2,0.9c3.5,13.8,5.8,27.9,6.9,42.1l0.1,1.1l12.6-2.4l-0.1-0.9
	c-1.6-10.9-7.6-29.2-13.9-41.8L143.6,77.9z"/>
<rect x="370" y="48.5" class="st0" width="10" height="40.9"/>
<path class="st0" d="M655.2,122.2h-1.3l3.4,12l0.9-0.1c12.3-1.7,36-9.2,47-14.8l0.8-0.4l-1.5-4.9l-0.9,0.3c-3.5,1-10.6,2.8-19.3,4.4
	v-13.2h18.2v-6.5h-18.2V86.2h-11v12.6h-17v6.5h17v15C667.2,121.3,661.2,121.9,655.2,122.2z"/>
<path class="st0" d="M448.5,83.4c2.7-1.5,5.2-3.1,7.7-4.8v9.2c0,26.5-2.3,37-10.3,47.3l-0.6,0.7l3.9,3.7l0.7-0.6
	c4.6-3.9,8.3-8.8,10.8-14.4v14.1h10v-5.6h17.4v5.1h10.6v-27.8h-33.6c0.4-1.9,0.7-3.8,1-5.6h31.4V76h-15.4l3.8-3.1l-0.7-0.8
	c-3.2-3.6-6.9-6.9-10.8-9.8c1.6-1.9,3.2-3.9,4.6-6c5.5,5.4,10.7,11.2,15.5,17.2l0.7,0.9l7.9-8.3l-0.7-0.7
	c-3.9-3.8-12.4-10.1-20-14.8c0.5-0.9,1-1.8,1.4-2.8l0.4-0.9L473,42.5l-0.4,1c-4.2,11.4-15.1,25.6-27.3,35.4l-0.7,0.6l3.2,4.4
	L448.5,83.4z M488.1,117v10.1h-17.4V117H488.1z M461.2,75c3.1-2.4,6-5,8.7-7.7c1.9,2.7,3.8,5.7,5.6,8.6h-9.9L461.2,75z M487.2,82.4
	V87H467v-4.5L487.2,82.4z M487.2,93.4v5h-20.4c0.1-1.6,0.2-3.3,0.3-5H487.2z"/>
<path class="st0" d="M312.8,128.4v6.8H403v-6.8h-39.6v-12.7h28.7v-6.5h-28.7V98.3h-7.2V78.6h13.5v-6.5h-13.5V56.2h10.2v-6.5h-48.2
	v6.5h10.7v15.8h-13.2v6.5h13.2c-0.9,15.6-7.8,22.2-14.5,26.6l-0.8,0.5l2.9,4.7l0.8-0.4c10.9-5,21.1-12.3,22.2-31.4h6.1v26h6.8v4.7
	h-29.2v6.5h29.2v12.7H312.8z M345.6,56.2v15.8h-6.1V56.2H345.6z"/>
<path class="st0" d="M292.5,104.2l0.7,1l6.2-7l-0.8-0.7c-3-2.6-6.2-5-9.6-7h4.2V63h-16.8v-3.3h21.6v-6.5h-21.6v-9.7h-10.6v9.7h-18.6
	v4.4h-13.5v-15h-10.4v14.9h-14.9v6.5h14.9v5.7h-13.3v35.1h13.3v7.6h-15.8v6.6h15.8v18.8h10.4V119h16.3v-5.7h2.9l-2.1,2.6l0.5,0.6
	c1,1.3,2.1,2.5,3.1,3.7c2.5,3,4.8,5.8,7.1,8.9l0.7,0.9l7.2-7l-0.8-0.7c-3.7-3.4-7.7-6.4-12.1-9h19.6v13.3c0,1.7-0.1,2.8-0.7,3.3
	c-1.1,1-5,0.5-10.3-0.4l-0.9-0.2l-1.5,5.1l0.7,0.4c5.1,2.8,9.6,4.2,13.4,4.1c1.9,0.1,3.8-0.4,5.5-1.4c2.8-1.6,4.2-4.7,4.2-8.8v-15.5
	h12v-6.5h-12v-6.6h-4.9c2.2-0.4,4.3-0.8,6.3-1.2C289.6,100.7,291.3,102.5,292.5,104.2z M276.1,106.8h-29.7v5.7h-12.6v-7.6h13.3v-8.4
	l1.5,7.7h0.9c5.8-0.3,16.5-1.4,26.6-3V106.8z M237.3,89.8v8.6h-3.9v-8.6H237.3z M237.3,76.2v7.3h-3.9v-7.3H237.3z M223.7,89.8v8.6
	h-3.8v-8.6H223.7z M219.9,83.6v-7.3h3.8v7.3H219.9z M265.9,79.5V84h-6.5v-4.5L265.9,79.5z M265.9,69.5v3.7h-6.5v-3.7H265.9z
	 M276.5,73.2v-3.7h7.2v3.7H276.5z M276.5,84v-4.5h7.2V84L276.5,84z M282.7,93.9l-2.9,0.2l-3.2,0.3v-3.9h3.3l-0.3,0.5L282.7,93.9z
	 M248.6,59.7h17.3V63h-16.1v27.5h16.1V95c-7.1,0.3-13.6,0.3-17.8,0.3h-1V69.8h-13.3v-5.7h14.8V59.7z"/>
<path class="st0" d="M504.2,127.7L503,133l0.8,0.3c6.8,3,12.6,4.6,17.1,4.6c2.5,0.1,4.9-0.5,7-1.8c2.8-1.8,4.2-4.9,4.2-9.1V44.2
	h-10.9v80.6c0,1.9-0.2,2.8-0.8,3.3c-1.4,1.3-6.1,0.9-15.3-0.3L504.2,127.7z"/>
<path class="st0" d="M194.9,126.8h-23.6c5.9-13.7,10.3-28.1,14.1-46.6l0.2-1l-13.2-2.9l-0.1,1.2c-1.1,18.2-5.8,40-7.9,49.3h-34.8
	v6.8h65.2V126.8z"/>
<path class="st0" d="M128.4,139V68.9c3.2-7,5.9-14.2,8.2-21.5l0.3-1l-12-3.7l-0.2,1.1c-4.3,21.1-14.6,43.3-21.6,51.8l-0.6,0.7
	l3.6,4.1l0.8-0.6c4.1-3.5,7.7-7.6,10.8-12V139H128.4z"/>
<path class="st0" d="M45.5,137.9l1.6-2.7l3.3,3.6l0.7-0.5c7-4.5,13.1-10.3,17.8-17.2c3.8,6.9,9.1,13,15.4,17.8l0.8,0.6l7.6-10.6
	l-0.9-0.6c-6.1-4.1-12.4-9-17.5-17.2c4.6-10.4,7-22.9,7.6-39.2H89v-6.5H65.8c2.1-6.4,3.6-12.9,4.4-19.6l0.1-1l-11.6-1.6l-0.1,1
	c-0.6,6-1.4,12-2.4,17.6h-7.4V52H33.7v-7.6H23.1V52H8.3v10h-8v6.5h8v10.1h14.8v3.2H6.3v17.8h14.5c-0.6,1.3-1.5,3-2.6,5.2H1.8v6.5
	h12.9c-3,5.3-6.1,10.5-7.5,12.6l-0.6,0.9l8.7,4.7l0.5-0.8c0.9-1.4,2.1-3.3,3.3-5.3c2.1,0.9,4.2,1.8,6.4,2.8
	c-5.5,3.8-12.9,6.3-22.1,7.3l-1.1,0.1l1.1,5.3h0.8c11.9-0.5,22.1-3.4,29.5-8.4c3.9,2.2,7.5,4.4,10.9,6.8L45.5,137.9z M33.7,81.8
	v-3.2h15.1V68.4h6c-1.1,5.1-2.6,10.1-4.3,15v-1.7H33.7z M71.6,72c-0.3,11.2-1.3,19.9-3.1,27.3c-2.6-7.3-4.4-16.1-5.4-26.5l0.3-0.8
	H71.6z M40.1,88.2v4.8h-6.4v-4.8H40.1z M33.7,62v-3.5h4.9V62H33.7z M33.7,72.1v-3.6h4.9v3.6H33.7z M23.1,88.3v4.8h-6.4v-4.8H23.1z
	 M22.4,117.9c1.1-1.9,2.2-4,3.3-5.9l0.3-0.6h10c-0.8,3.4-2.4,6.5-4.5,9.2C28.5,119.5,25.4,118.6,22.4,117.9L22.4,117.9z M18.5,72.1
	v-3.6h4.6v3.6H18.5z M18.5,62v-3.5h4.6V62L18.5,62z M51,128.8l-0.9-0.5c-2.9-1.6-6-3-9.1-4.3c3-3.7,5-8.1,5.9-12.8h9.5v-6.5h-27
	c0.8-1.6,1.4-2.9,1.9-3.9l0.4-1l-0.9-0.3h19.7v-7.1l1.6,1l0.6-0.8c1.9-2.8,3.7-5.7,5.3-8.7c0.8,9.5,3,18.8,6.4,27.7
	c-3.8,8.4-9.4,15.9-16.3,22L51,128.8z"/>
<path class="st0" d="M570.5,138.6h10.8v-26.4c2.6,3.4,5.3,7,7.9,11.1l0.7,1l7.8-7.6c-1.4,7-4.5,13.5-8.9,19l-0.6,0.8l4.1,3.6
	l0.7-0.6c12.6-10.8,18-26.7,18-53.3v-3h9.4v55H631v-55h10.3v-6.5h-30.5V59.4c8.8-0.8,18.1-2.3,27.4-6.6l1.3-0.6l-9-8.7l-0.7,0.5
	c-6.3,4.4-13.3,7.7-20.7,9.8l-9.3-2.5v28H585c3-4.2,5.7-8.8,8-13.5l0.5-1l-5.6-1.8h9.6v-6.4h-17.7l3.5-4.6l-0.8-0.6
	c-5.2-3.6-10.9-6.5-17-8.5l-0.8-0.3l-2.6,4.4l0.6,0.5c3.3,2.8,6.4,5.9,9.5,9h-19.6V63h7l-2,1.4l0.4,0.8c2,4.1,4.3,9.9,5.8,14.2H551
	v6.5h19.5v9.8h-18.1v6.3H568c-3.8,9-11.5,19.9-18,25.3l-0.7,0.6l3.4,4.3l0.8-0.5c6.6-4.4,12.4-10,17.1-16.4L570.5,138.6z
	 M578.3,79.2h-6.9l3.1-1.6l-0.5-0.9c-2.9-5-6.4-9.6-10.4-13.8H582C581.2,68.5,580,73.9,578.3,79.2z M599.8,89.5
	c0,10.7-0.5,19.4-2.1,26.9l-0.6-0.6c-4.7-4.8-10-9-15.8-12.4v-1.6h16.8v-6.3h-16.8v-9.8h18.5L599.8,89.5z"/>
<g>
	<path class="st0" d="M298.6,12.5H55c-7.7,0-14,6.3-14,14v4.4h1.4v-4.5c0-7,5.7-12.6,12.6-12.6c0,0,0,0,0,0h243.6v10.7h1.4V2h-1.4
		V12.5z"/>
	<path class="st0" d="M797,12.4H557.7V2h-1.4v22.5h1.4V13.8h239.4c7,0,12.6,5.6,12.6,12.6v4.4h1.4v-4.4
		C811,18.7,804.8,12.4,797,12.4z"/>
	<path class="st0" d="M332.3,19.1c1.4-2.9,2.2-6.1,2.3-9.3h0.9V6.4h-5.3c0.4-1.2,0.7-2.4,1.1-3.8l-3.6-0.5c-0.3,2.3-0.9,4.6-1.8,6.7
		V6.4h-1V3.8h-4.4V2.3h-3.2v1.4h-4.4v2.7h-1v2.5h1v2.6h4.4v0.8h-4.4V17h3.6l-0.5,0.7h-4v2.4h2c-0.2,0.2-0.5,0.5-0.8,0.9
		c-0.3,0.4-0.7,0.8-1,1.1l2.8,0.8l0.5-0.3c0.3,0.1,0.6,0.2,0.9,0.2c-1.5,0.5-3.1,0.7-4.8,0.8c0.3,0.5,0.5,1.1,0.7,1.7
		c0.1,0.3,0.3,0.6,0.4,0.9c2.5-0.3,4.9-1,7.2-2.1c0.7,0.3,1.9,0.8,3.7,1.4c0.1,0.1,0.2,0.1,0.3,0.1l0.9-1.6l1.4,1.9
		c1.4-1.1,2.7-2.3,4-3.5c1.1,1.2,2.4,2.2,3.7,3.2c0.2-0.5,0.5-1.1,0.8-1.6c0.5-0.8,0.8-1.3,1-1.7C334.5,21.2,333.3,20.2,332.3,19.1z
		 M317.3,9.5h-1.4V8.6h1.4V9.5z M317.3,6.7h-1.4V5.8h1.4V6.7z M317.3,15h-1.6v-0.9h1.6V15z M324.9,8.9h1c-0.1,0.3-0.3,0.7-0.6,1.2
		c-0.1,0.3-0.3,0.6-0.4,0.9V8.9z M320.5,5.8h1.4v0.9h-1.4V5.8z M320.5,8.6h1.4v0.9h-1.4V8.6z M320.5,11.5h4.1
		c0.1,0.1,0.2,0.3,0.2,0.4c0.1,0.1,0.1,0.3,0.1,0.4h-4.4V11.5z M320.5,14.2h1.6V15h-1.6V14.2z M319.5,21.2l-1.1-0.4l-1.1-0.3
		l0.4-0.4h2.8C320.2,20.5,319.9,20.8,319.5,21.2z M324.4,22.7l-1.7-0.6c0.6-0.6,1.2-1.3,1.6-2h1.9v-2.4h-6.6
		c0.1-0.1,0.2-0.3,0.3-0.4v0l0.3-0.3h4.7v-4.6c0.3,0.8,0.6,1.8,1,2.8c0.1-0.2,0.2-0.4,0.4-0.6c0.1-0.3,0.2-0.5,0.3-0.6
		c0.4,1.8,0.9,3.5,1.6,5.1C327.1,20.5,325.8,21.7,324.4,22.7z M330.2,15.8c-0.7-1.9-1.1-4-1.3-6h2.4
		C331.3,11.8,330.9,13.9,330.2,15.8z"/>
	<path class="st0" d="M364,11.5l-4.1-1.1c-0.8,3-1.9,6.6-3.2,10.8h-7.8v3.5h16.4v-3.5h-4.7C361.7,18.1,362.8,14.8,364,11.5z"/>
	<path class="st0" d="M346,2.2c-1,3.6-2.5,7-4.4,10.1c0.3,1.6,0.6,3.4,0.9,5.2c0.2-0.2,0.3-0.4,0.5-0.6c0.5-0.6,0.9-1.2,1.3-1.8
		v10.5h3.9V8c0.7-1.5,1.3-3.1,1.7-4.7L346,2.2z"/>
	<path class="st0" d="M350.1,11.5c0.9,2.8,1.8,5.8,2.5,9l3.9-1.2c-0.8-2.9-1.5-5.1-2-6.7c-0.3-1-0.6-1.7-0.7-2.2L350.1,11.5z"/>
	<polygon class="st0" points="349.2,9.8 364.9,9.8 364.9,6.1 359.1,6.1 359.1,2.3 354.8,2.3 354.8,6.1 349.2,6.1 	"/>
	<path class="st0" d="M394.2,14.6V7.1h-4.6V6.3h5.3V3.8h-5.3V2.2h-3.1v1.6h-4.9v2.5h4.9v0.8h-4.6v7.6h4.6v0.9h-5.1l0.3,2.5l11-0.3
		c0.1,0.1,0.2,0.2,0.3,0.4c0,0.2,0.1,0.3,0.2,0.5l2.2-1.2c-0.6-0.9-1.2-1.9-1.7-2.8H394.2z M386.5,12.5l-1.7,0.1v-0.9h1.7V12.5z
		 M386.5,10h-1.7V9.3h1.7V10z M389.6,9.3h1.8V10h-1.8V9.3z M389.6,11.7h1.8v0.9h-1.8V11.7z M389.6,15.6l0-0.9h1.4
		c0.1,0.1,0.2,0.3,0.2,0.4c0.1,0.1,0.2,0.3,0.2,0.5H389.6z"/>
	<path class="st0" d="M392.6,18.1h-3.2v0.8h-7.8v2.6h1.8l-1.3,1.1c0.5,0.3,0.9,0.6,1.3,1l1.4,1.2l1.5-1.6c0.1,0.3,0.2,0.7,0.3,1.2
		c0.1,0.5,0.2,0.8,0.3,1.1h1.4c0.5-0.1,0.9-0.1,1.4-0.1c1.9,0,2.8-1.1,2.7-3v-0.8h2.5v-2.6h-2.5V18.1z M389.4,22
		c0,0.5-0.2,0.8-0.9,0.7h-1.6c-0.2-0.1-0.5-0.2-0.7-0.4c-0.3-0.2-0.7-0.5-1-0.8l4.2,0V22z"/>
	<path class="st0" d="M378.2,18.4h2.6V7.9h-2.6V6.9h2.8v-3h-2.8V2.2H375v1.7h-3v3h3v1.1h-2.6v10.5h2.6v1.2h-3.3v3h3.3l0,2.9h3.2
		v-2.9h3.1v-3h-3.1V18.4z M377.8,10.7h1.1V12h-1.1V10.7z M375.4,15.6h-1.1v-1.3h1.1V15.6z M375.4,12h-1.1v-1.3h1.1V12z M377.8,15.6
		v-1.3h1.1v1.3H377.8z"/>
	<path class="st0" d="M416.8,15.3c0.1,0.2,0.1,0.3,0.1,0.5c2,0,3.4,0,4.2-0.1c2.1,0,3.2-1.2,3.1-3.6V2.4h-3.5v8.7
		c0.1,0.9-0.4,1.4-1.4,1.4c-1.5,0-2.6,0-3.1-0.1C416.4,13.5,416.6,14.5,416.8,15.3z"/>
	<rect x="415.8" y="3.4" class="st0" width="3.3" height="8.1"/>
	<path class="st0" d="M415.2,20.1h8.2v-3.2h-8.2v-2.3h-2.1v-3.1h2.1V8.2h-2.1V5.9h1.6V2.8h-12.4v3.1h1.9v2.3h-2.4v3.2h2.4
		c-0.1,1.4-0.9,2.6-2.1,3.3c1.2,0.5,2.3,1.1,3.3,1.7c1.5-1.2,2.4-3,2.3-5h2v4h1.5v1.4h-8.2V20h8.2v1.7h-9.5v3.2h23v-3.1h-9.5V20.1z
		 M409.7,8.2h-2V5.9h2V8.2z"/>
	<path class="st0" d="M447,18.8h3.4v-3.2h-2.1v1.3h-1c0-0.6,0.1-1.1,0.1-1.6h-2.6v1.6h-0.9v-1.2h-0.8c0.4-0.3,0.7-0.6,1-1h7.2
		c0,0.5,0,1.2-0.1,1.9v1.8c0,0.5-0.4,1-1,1c0,0-0.1,0-0.1,0c-0.7,0-1.5,0-2.2-0.1c0.2,0.7,0.4,1.5,0.6,2.4h2.8c1.8,0,2.8-1,2.8-2.9
		c0.1-0.7,0.1-1.7,0.1-3.2c0-1.5,0.1-2.4,0.1-3.1H446c0.1-0.2,0.2-0.5,0.4-0.7l-1.4-0.1c0.9-0.4,1.7-1.1,2-2h3.3V6.6h-2v1.1h-1V6.2
		h-2.5v1.4h-0.9v-1h-1l0.3-0.3c0.2-0.2,0.4-0.4,0.6-0.6h7.3c0,1.7,0,2.8-0.1,3.5c-0.1,0.7-0.2,0.7-0.9,0.7h-2.2
		c0,0.3,0.2,0.8,0.3,1.4c0.1,0.2,0.2,0.4,0.2,0.7c1.4,0,2.4,0,3-0.1c1.8,0,2.7-0.9,2.6-2.3c0.1-1.9,0.2-4,0.2-6.1h-8.5
		c0.2-0.3,0.4-0.6,0.5-0.9c0.1,0,0.2-0.1,0.2-0.2l-3.2-0.3c-0.8,1.4-2,2.6-3.4,3.4c0.1,0.4,0.4,1.2,0.7,2.3c0,0.2,0.1,0.5,0.2,0.7
		c0.4-0.2,0.7-0.5,1-0.8v1.9h2.3c-1.1,0.5-2.3,0.8-3.6,0.9c0.4,0.9,0.7,1.6,0.9,2.2c0.4-0.1,0.8-0.2,1.3-0.3
		c-0.8,0.8-1.7,1.6-2.6,2.2c0.1,0.2,0.1,0.4,0.2,0.7c0.3,1,0.4,1.8,0.5,2.2c0.2-0.2,0.4-0.3,0.6-0.4c0.1-0.1,0.3-0.3,0.5-0.4v1.9
		h2.4c-0.5,0.6-1.8,1-4.1,1.3c0.3,0.6,0.6,1.3,1.1,2c-0.8,0-1.7-0.1-2.5-0.3v-2.7h1.4v-3.2h-1.4v-2.5h1.6v-3.2h-2.4V8h2V4.9h-2V2.2
		h-3.1v2.7h-2.4V8h2.4v2.1h-3v3.2h4.3v6.3c-0.4-0.5-0.8-1.2-1-1.8c0-1,0.1-2.1,0.1-3.3l-2.7-0.3c0.1,2.9-0.2,5.8-1,8.6
		c0.1,0.2,0.4,0.6,0.8,1.1l1.4,1.8l0.3-0.8c0.3-1.2,0.6-2.1,0.7-2.6c1.2,2,3.8,2.9,7.9,2.7c3.1,0,7.1,0.1,11.9,0.1
		c0.4-1.3,0.7-2.3,1-3h-12.8C445.2,21.5,446.8,20.4,447,18.8z"/>
	<path class="st0" d="M483,12.4c0,0.4-0.1,0.6-0.2,0.7c-0.1,0.1-0.2-0.3-0.3-0.7V4.5h-4V2.3h-3.1v2.2h-1.8v2.8h1.8
		c0,0.6-0.1,1.1-0.1,1.6c-0.4-0.1-0.7-0.3-1-0.5l-1.4,2.3l1.6,1c-0.5,0.9-1.1,1.7-1.8,2.4v-0.6c-0.5,0-1.1,0-1.9,0.1h-1.6V13h2.7V11
		h-2.7v-0.5c0.2,0.1,0.4,0.2,0.7,0.1h1.4c0.9,0.2,1.8-0.5,1.9-1.4c0-0.1,0-0.2,0-0.4c-0.5-0.1-1-0.2-1.4-0.4h1.3V6.3h-3.8V5.6h3.2
		V3.4h-3.2V2.3H466v1.1h-3.3v2.2h3.3v0.7h-4.1v2.2h2.6c-0.4,0.8-1.4,1.1-3.2,1.3c0.5,0.5,0.9,1.2,1.2,1.8c0.1-0.1,0.3-0.1,0.4-0.1
		v1.4h3.1v0.8l-4,0.1l0.3,2.4l10.3-0.5v-1.6c0.3,0.4,0.7,0.9,1.3,1.7l0.7,1c0.9-1,1.7-2.1,2.4-3.2c0.5,0.4,1,0.8,1.6,1.2l0.9-2
		l0.1,0.9c0.1,1.9,1,2.8,2.7,2.9c1.3,0,2.1-0.9,2.3-2.3c0.2-1.1,0.4-2.3,0.4-3.4c-0.6-0.2-1.3-0.4-1.8-0.7L483,12.4z M470.3,8.5h1.2
		c0,0.5-0.1,0.7-0.4,0.7h-0.3c-0.3,0-0.5-0.1-0.5-0.4V8.5z M466.1,10.2V11h-2c1.2-0.3,2.2-1.3,2.6-2.5h1.7v0.8
		c0,0.3,0.1,0.6,0.2,0.9H466.1z M479.5,11.6l-1.4-0.9c0.2-1.1,0.4-2.2,0.5-3.4h1V11.6z"/>
	<path class="st0" d="M473.8,16.1h-4l-0.1,1.1h-7.2V20h6.1c-0.7,1.2-3.1,2-7.3,2.5c0.5,0.6,1,1.3,1.4,2c0.2,0.4,0.4,0.8,0.6,1.2
		c5.6-1,8.7-2.9,9.5-5.7h6.3c0,0.2,0,0.4-0.1,0.6c0,0.2,0,0.4-0.1,0.6c0,0.8-0.6,1.1-1.6,1.1c-2,0-3.4,0-4.3-0.1
		c0.1,0.5,0.3,1.2,0.5,2.3c0,0.3,0.1,0.5,0.2,0.8c1.2,0,2.6-0.1,4.2-0.1c3.5,0.1,5.1-1.1,4.9-3.7c0.1-1.3,0.2-2.8,0.3-4.4h-9.6
		L473.8,16.1z"/>
	<path class="st0" d="M508.6,3.4l0.6-1L505.6,2c-1.5,2.4-3.5,4.4-6,5.7V6.3h-8.5v2.9h8.3l0.7,2.2c0.3-0.2,0.6-0.5,1.2-0.8
		c0.8-0.5,1.4-0.8,1.7-1.1v1.3h7.8V9.4c1,0.7,2,1.3,3.1,1.8c0.4-1.1,0.8-2.2,1.3-3.3C512.6,6.9,510.4,5.4,508.6,3.4z M504.8,7.9
		c0.7-0.6,1.4-1.3,1.9-2.1v0c0.7,0.8,1.4,1.4,2,2.1H504.8z"/>
	<rect x="491.8" y="2.8" class="st0" width="6.8" height="2.6"/>
	<path class="st0" d="M500,25.3h2.8v-5.2h1v4.3h2.4v-4.3h1.1V24h2l0.3,1.4c0.7,0,1.4,0,2-0.1c1.5,0.1,2.2-0.8,2.1-2.5V11.9H500V25.3
		z M509.7,14.9h1.1v2.2h-1.1V14.9z M509.7,20.1h1.1v2c0.1,0.4-0.1,0.6-0.5,0.6h-0.6V20.1z M506.3,14.9h1.1v2.2l-1.1,0.1V14.9z
		 M502.8,14.9h1l0,2.3h-1.1V14.9z"/>
	<rect x="491.4" y="13.6" class="st0" width="7.5" height="2.6"/>
	<rect x="491.4" y="10.1" class="st0" width="7.5" height="2.6"/>
	<path class="st0" d="M491.5,25.4h2.7v-1h1.9v1h2.7v-8.3h-7.4V25.4z M494.3,19.9h1.9v2h-1.9V19.9z"/>
	<path class="st0" d="M543.6,6.7h-15.7v8.2h15.6L543.6,6.7z M540.3,12.9h-9V8.6h9V12.9z"/>
	<polygon class="st0" points="544.3,3.7 537.8,3.7 537.8,2 534.3,2 534.3,3.7 527.3,3.7 527.3,6 544.3,6 	"/>
	<path class="st0" d="M527.7,18.1l-1.6,0.4v-6.6h1.3V8.1h-1.3V2.3h-3.4v5.8h-1.6v3.8h1.6v7.5l-1.8,0.4l0.6,3.8
		c1.2-0.4,2.4-0.7,3.6-0.9l2.7-0.8C527.7,20.8,527.7,19.6,527.7,18.1z"/>
	<path class="st0" d="M542.9,22v-6.5h-14.3V22H542.9z M532,17.4h7.7v0.8H532V17.4z M532,19.4h7.7v0.8H532V19.4z"/>
	<rect x="527" y="22.7" class="st0" width="17.5" height="2.1"/>
	<path class="st0" d="M539.2,9.3h-6.7v3h6.7V9.3z M536.6,11.1H535v-0.8h1.7L536.6,11.1z"/>
</g>
</svg>
