<svg id="圖層_1" data-name="圖層 1" xmlns="http://www.w3.org/2000/svg" viewBox="0 0 852 188"><defs><style>.cls-1{fill:#fff;}</style></defs><path class="cls-1" d="M320.45,161.61l-2.75-.76a20.82,20.82,0,0,1-1.8,2.94h-4.69l-.51,2.89h2.77a20,20,0,0,1-4.32,3.33l1.49-8.42h-9l-1.64,9.3h3.9L302,181.35l-1.34.34,1.54-8.74H299.7l-1.65,9.36-1.21.26.24,3.14c3.18-.85,7.34-2,11.23-3.06l.06-2.88-3.32.82.67-3.76h2.34l.52-2.92h-2.35l.53-3H309l0-.14a14.3,14.3,0,0,1,.71,2.54,25.9,25.9,0,0,0,3.49-2.46l-.24,1.39h7.32l.33-1.84a11.31,11.31,0,0,0,2.43,3.05,17,17,0,0,1,2.65-2.51,11.74,11.74,0,0,1-3.5-4.24h3.56l.51-2.89h-7.07A18,18,0,0,0,320.45,161.61Zm-13.78,6.45h-3.48l.64-3.65h3.48Zm13.51,1.5h-5.57a25.16,25.16,0,0,0,2.57-2.88H319A14.23,14.23,0,0,0,320.18,169.56Z"/><path class="cls-1" d="M308.8,176.49h2.77c-.7,1.61-1.52,3.33-2.23,4.63h9.33c-.49,1.7-.93,2.61-1.39,2.92a2.48,2.48,0,0,1-1.36.22c-.91,0-3.11,0-5.09-.19a5.18,5.18,0,0,1,.71,2.88,41.9,41.9,0,0,0,4.86,0,4.45,4.45,0,0,0,3.08-1c1-.79,1.68-2.6,2.63-6.36.13-.43.33-1.25.33-1.25h-8.65c.3-.62.58-1.24.87-1.89h9.27l.49-2.77H309.29Z"/><path class="cls-1" d="M352.26,173.49l2.12-12H334.22l-2.12,12h4.49a26.24,26.24,0,0,1-8.34,4,12.16,12.16,0,0,1,1.72,2.77,28.26,28.26,0,0,0,5.61-2.63l-.18,1c-.32,1.81-1.31,4.18-6.3,5.74a9.77,9.77,0,0,1,1.84,2.71c6-2.07,7.44-5.63,7.91-8.31l.34-1.95h-2.4a25.66,25.66,0,0,0,4-3.37h2.91a13.1,13.1,0,0,0,2.71,3.39h-2.12l-1.76,10H346l1.58-8.94a16.53,16.53,0,0,0,4.37,2.29,20.28,20.28,0,0,1,2.74-2.88,16.3,16.3,0,0,1-7.07-3.82Zm-11.37-2.71h-4.95l.36-2h4.95Zm.8-4.56h-4.95l.36-2h4.95Zm3.75-2h4.95l-.36,2h-4.95Zm-1.16,6.59.36-2h4.95l-.36,2Z"/><path class="cls-1" d="M420.19,161.61l-2.75-.76a20.82,20.82,0,0,1-1.8,2.94H411l-.51,2.89h2.77a20,20,0,0,1-4.32,3.33l1.49-8.42h-9l-1.64,9.3h3.9l-1.85,10.46-1.33.34L402,173h-2.54l-1.65,9.36-1.21.26.24,3.14c3.18-.85,7.34-2,11.23-3.06l.06-2.88-3.32.82.67-3.76h2.34l.52-2.92H406l.53-3h2.24l0-.14a14.3,14.3,0,0,1,.71,2.54,25.9,25.9,0,0,0,3.49-2.46l-.24,1.39H420l.32-1.84a11.53,11.53,0,0,0,2.44,3.05,17.38,17.38,0,0,1,2.64-2.51,11.82,11.82,0,0,1-3.49-4.24h3.56l.51-2.89H419A18,18,0,0,0,420.19,161.61Zm-13.78,6.45h-3.48l.64-3.65h3.48Zm13.51,1.5h-5.57a25.16,25.16,0,0,0,2.57-2.88h1.84A14.23,14.23,0,0,0,419.92,169.56Z"/><path class="cls-1" d="M408.54,176.49h2.77c-.7,1.61-1.52,3.33-2.23,4.63h9.33c-.49,1.7-.94,2.61-1.39,2.92a2.52,2.52,0,0,1-1.37.22c-.9,0-3.1,0-5.08-.19a5.18,5.18,0,0,1,.71,2.88,41.9,41.9,0,0,0,4.86,0,4.45,4.45,0,0,0,3.08-1c1-.79,1.68-2.6,2.62-6.36.14-.43.34-1.25.34-1.25h-8.66c.31-.62.59-1.24.88-1.89h9.27l.49-2.77H409Z"/><path class="cls-1" d="M435.89,176.29l-2.09,1,1.2-6.81h2.12l.57-3.23h-2.12l1.12-6.33h-3.14l-1.12,6.33h-2.54l-.56,3.2h2.54l-1.49,8.45c-1.13.48-2.17.94-3,1.28l.68,3.39c2.54-1.24,5.55-2.8,8.3-4.27Z"/><path class="cls-1" d="M444.31,177.93l1.52-8.6h-7.27l-1.51,8.6Zm-3.74-6h2.18l-.61,3.45H440Z"/><path class="cls-1" d="M453.89,160.51l-2.18,1.64a20.71,20.71,0,0,1,2.06,2.24h-3c.21-1.31.43-2.58.69-3.88h-3.2c-.23,1.3-.42,2.57-.62,3.88h-9l-.54,3.05h9.13a82.62,82.62,0,0,0-.91,11.88c-.46.53-.94,1-1.46,1.55l.14-2.23c-3.7.79-7.55,1.64-10.09,2.09l.23,3.14c2.55-.62,5.86-1.47,9-2.26a24.18,24.18,0,0,1-4.15,3,11.51,11.51,0,0,1,2,2.12,25.52,25.52,0,0,0,4.62-3.73c.45,2.4,1.37,3.9,3,3.9,2.12,0,3.13-1.07,4.27-4.83a5.89,5.89,0,0,1-1.93-1.87c-.53,2.52-.94,3.56-1.34,3.56-.68,0-1.06-1.52-1.09-4a44.16,44.16,0,0,0,5.49-9.84l-2.89-.59a41.54,41.54,0,0,1-2.49,5.28c.13-2.14.38-4.55.72-7.12h5.49l.54-3.05H455.1l1.42-1.14A13.94,13.94,0,0,0,453.89,160.51Z"/><path class="cls-1" d="M513.92,168.09h8.85l.59-3.34h-8.85l.74-4.21h-3.59l-.74,4.21h-8.6l-.59,3.34h8.6l-.64,3.62H499l-.59,3.34h9.17a35.19,35.19,0,0,1-11.49,7.74,13.38,13.38,0,0,1,2,2.92,40.14,40.14,0,0,0,10.53-7.58L507,187h3.59l1.59-9a23,23,0,0,0,7.82,7.77,21.28,21.28,0,0,1,2.94-2.91,21.46,21.46,0,0,1-8.69-7.77h9.33l.59-3.34H513.28Z"/><path class="cls-1" d="M535.06,167.5a17.38,17.38,0,0,1-6.45,8.2,15.41,15.41,0,0,1,2.22,2.2,19.94,19.94,0,0,0,3.93-3.87,16.45,16.45,0,0,1,1.55,2l2.67-2.35c-.53-.68-1.44-1.61-2.3-2.49a32.34,32.34,0,0,0,1.55-3Z"/><path class="cls-1" d="M545.54,160.54H542l-.61,3.48H531.1l-.59,3.31H540.8l-1.15,6.53a32,32,0,0,1-13,9.1,16.15,16.15,0,0,1,1.86,2.89,35,35,0,0,0,10.31-7l-1.42,8.06h3.53l1.45-8.23a21.17,21.17,0,0,0,7.9,7.16,20.2,20.2,0,0,1,3-3.09,19.22,19.22,0,0,1-9.41-7.88,12,12,0,0,1,1.95,1.44,15.86,15.86,0,0,0,2.32-2.43,29.67,29.67,0,0,1,3.07,3.28l2.76-2.35c-.87-1-2.56-2.46-4-3.71a31.22,31.22,0,0,0,1.46-3l-3.17-.59a15.82,15.82,0,0,1-4.77,6.81c-.1-.23-.21-.42-.31-.65l1.12-6.33H555l.58-3.31H544.92Z"/><polygon class="cls-1" points="395.31 161.33 375.39 174.12 361.23 161.36 360.78 161.86 374.81 174.49 355.05 187.18 355.41 187.75 375.32 174.96 389.48 187.71 389.93 187.22 375.91 174.58 395.67 161.9 395.31 161.33"/><polygon class="cls-1" points="497.19 161.9 496.83 161.33 476.91 174.12 462.75 161.36 462.3 161.86 476.33 174.49 456.57 187.18 456.93 187.75 476.85 174.96 491.01 187.71 491.45 187.22 477.43 174.58 497.19 161.9"/><path class="cls-1" d="M807.31,160.81a12.61,12.61,0,0,1-12.6,12.59h-231v1.36h231a14,14,0,0,0,14-13.95v-4.43h-1.36Z"/><path class="cls-1" d="M40,160.81v-4.43H38.68v4.43a14,14,0,0,0,14,13.95H288.42V173.4H52.63A12.61,12.61,0,0,1,40,160.81Z"/><path class="cls-1" d="M40,24.65a12.61,12.61,0,0,1,12.59-12.6H330V22.72h1.36V.25H330V10.69H52.63a14,14,0,0,0-14,14v4.42H40Z"/><path class="cls-1" d="M521,12.05H794.71a12.61,12.61,0,0,1,12.6,12.6v4.42h1.36V24.65a14,14,0,0,0-14-14H521V.25h-1.36V22.72H521Z"/><path class="cls-1" d="M850.52,94.79c-6.34-1.82-13.59-4.33-20.25-10.94h17.67v-6.5H817.26a59.12,59.12,0,0,0,2.13-5.9h27V65H831.09A72.86,72.86,0,0,0,842,50.86l.58-1-10.37-4.5-.32,1.08a125.73,125.73,0,0,1-6.55,16.87l-.4.85,1.43.76H821.1a118,118,0,0,0,2.34-20.66l0-1H812.07l0,1A146.47,146.47,0,0,1,810.3,65h-6.9l6.44-3.17-.53-.92c-3.91-6.92-7.4-11.73-11-15.13l-.56-.54L793.39,48l.34.79c2.95,6.88,5,12.19,6.36,16.2h-6.35v6.5H809a51.94,51.94,0,0,1-1.88,5.9H790.94v6.5h13.14A48.24,48.24,0,0,1,790.64,99V48.85h-26.4v35.5c0,35.76-2.69,43.84-6.49,51.35l-.38.76,4.31,3.13.61-.67c6.86-7.58,10.62-19.69,11.79-38.07h6.36v24.3c0,1.81-.21,2.76-.72,3.18-1,.86-4.08.48-9-.46l-.84-.16-1.75,5,.67.43c6.46,4.09,12.89,5.12,17.2,2.75,3-1.65,4.63-4.7,4.63-8.6V105.79l.67-.35c1.18-.63,2.32-1.3,3.43-2v3.6h12.53c-2.14,12.71-7.21,20.29-18.38,27.67l-.8.53,2.75,4.57.81-.35c14.89-6.55,23-16.57,26.22-32.42h11c-.12,6.49-.52,15-1.27,19-.29,1.49-.72,2.33-1.46,2.8-1.56,1-4.91.8-11.94-.78l-.86-.2-1.75,5,.63.43c7.52,5.1,14.44,6.72,19.51,4.56a9.71,9.71,0,0,0,5.84-7.63c1-6.09,1.49-16.38,2-28.23a66.49,66.49,0,0,0,6.06,3.47l.92.46,5.15-10.79Zm-70.08-18v17.6h-6.06c.06-2.19.06-4.44.06-6.8V76.75Zm0-21.4v14.9h-6V55.35Zm18.6,45.2a55.37,55.37,0,0,0,9.66-8.9c-.12,3.23-.35,6.23-.57,8.9Zm19.84,0c.45-3.71.59-7.5.66-10.47l0-1h-8.82a51.45,51.45,0,0,0,3.38-5.2H823a46.84,46.84,0,0,0,14.4,16.7Z"/><path class="cls-1" d="M373.8,94.44l-1.33,5.15.73.36c5.28,2.64,10.16,4,14.17,4a12.06,12.06,0,0,0,6.42-1.6c2.78-1.72,4.25-4.76,4.25-8.79V44.25h-10.6v47c0,1.78-.26,2.77-.87,3.31-1.37,1.19-5.24.92-11.89,0Z"/><path class="cls-1" d="M687.94,139.31c13.25-4.09,23.53-9.94,31.37-17.88,4.9,7.06,11.55,12.6,20.29,16.92l.8.39,7.75-12-1.14-.45c-9.45-3.76-16.16-8-21-13.17,8.29-12.92,10-27.72,10.61-41.9h8.23v-6.5H716.15a119.58,119.58,0,0,0,3.19-18.6l.09-.95-12-1.69,0,1.09c-.75,14.7-2.64,26.42-5.77,35.73a64.18,64.18,0,0,0-12.14-15.7l-.57-.54-4.13,2.6.41.81c.9,1.8,1.9,4,3,6.55-6.32.94-11.66,1.59-16.56,2a80.79,80.79,0,0,0,11.75-19.22h20.92v-6.5h-48.6v6.5h15.3a81.4,81.4,0,0,1-7,19.74c-2.46.16-4.9.16-7.26.16h-1.26l2.91,12.15.93-.16a175.79,175.79,0,0,0,31.14-8.89,53.88,53.88,0,0,1,2.4,8l.26,1.26,6.43-3a54.47,54.47,0,0,1-3.66,7.07l-.47.76,4.12,3.2.62-.64a52.54,52.54,0,0,0,8-10.8c.76,10.68,3,19.95,6.55,27.61-6.11,8.63-15.29,15.33-28.84,21.07l-1,.41,2.33,4.82Zm37.27-68.06c-.57,14.6-2.26,24.61-5.57,32.8-3.73-7.36-5.66-16.49-6.38-29.93.37-.92.69-1.89,1-2.82Z"/><rect class="cls-1" x="504.44" y="54.65" width="10.2" height="60.9"/><path class="cls-1" d="M131.94,73.75h60.4V67h-29l8-5.69-.64-.82a87.29,87.29,0,0,0-17.91-17.3l-.67-.48-3.79,3.64.44.68C152.05,52.16,156.63,60,160,67H131.94Z"/><path class="cls-1" d="M143.65,77.93l-5.3,1.77.23.9a245.48,245.48,0,0,1,6.87,42.11l.06,1.14,12.56-2.39-.14-.95c-1.55-10.86-7.65-29.23-13.89-41.8Z"/><rect class="cls-1" x="370.04" y="48.55" width="10" height="40.9"/><path class="cls-1" d="M655.21,122.15l-1.27,0,3.38,12,.87-.13c12.31-1.74,36-9.21,47-14.8l.75-.38-1.54-4.93-.93.26c-3.53,1-10.62,2.83-19.34,4.37V105.35h18.2v-6.5h-18.2V86.25h-11v12.6h-17v6.5h17v15A167.06,167.06,0,0,1,655.21,122.15Z"/><path class="cls-1" d="M448.52,83.43a80.8,80.8,0,0,0,7.72-4.83v9.25c0,26.45-2.3,37.05-10.28,47.29l-.56.71,3.9,3.74L450,139a40.4,40.4,0,0,0,10.76-14.36v14.09h10v-5.6h17.4v5.1h10.6v-27.8H465.16c.37-1.88.67-3.78.95-5.6h31.43V76H482.17L486,72.87l-.7-.79a70.4,70.4,0,0,0-10.77-9.8,68.8,68.8,0,0,0,4.58-6,192.59,192.59,0,0,1,15.45,17.24l.71.93,7.89-8.26-.71-.69c-3.91-3.81-12.36-10.08-19.95-14.83a28.59,28.59,0,0,0,1.38-2.77l.39-.94L473,42.55l-.35,1c-4.18,11.35-15.15,25.56-27.29,35.36l-.74.6,3.17,4.38ZM488.14,117v10.1h-17.4V117ZM461.18,75a95.24,95.24,0,0,0,8.73-7.71c1.85,2.66,3.8,5.65,5.65,8.64h-9.91Zm26,7.43V87H467v-4.5Zm0,11v5H466.73c.12-1.6.2-3.29.27-5Z"/><path class="cls-1" d="M312.84,128.45v6.8H403v-6.8h-39.6v-12.7h28.7v-6.5h-28.7V98.35h-7.2V78.55h13.5v-6.5h-13.5V56.25h10.2v-6.5h-48.2v6.5h10.7v15.8h-13.2v6.5H328.9c-.89,15.55-7.81,22.16-14.51,26.57l-.8.53,2.87,4.68.8-.37c10.87-5,21.07-12.26,22.23-31.41h6.15v26h6.8v4.7h-29.2v6.5h29.2v12.7Zm32.8-72.2v15.8h-6.1V56.25Z"/><path class="cls-1" d="M292.55,104.17l.74,1,6.17-7-.76-.66a64.47,64.47,0,0,0-9.61-7h4.25V63h-16.8v-3.3h21.6v-6.5h-21.6v-9.7h-10.6v9.7h-18.6v4.4h-13.5V42.65h-10.4v14.9h-14.9v6.5h14.9v5.7h-13.3v35.1h13.3v7.6h-15.8V119h15.8v18.8h10.4V119h16.3v-5.7H253l-2.12,2.6.52.64c1,1.27,2.06,2.5,3.07,3.71,2.49,3,4.84,5.81,7.1,8.85l.69.92,7.16-7-.77-.71a71.47,71.47,0,0,0-12.07-9h19.59v13.3c0,1.65-.11,2.77-.69,3.26-1.15,1-5,.52-10.33-.44l-.89-.16-1.47,5.14.71.38c5.07,2.75,9.63,4.16,13.36,4.15a10.53,10.53,0,0,0,5.48-1.35c2.77-1.65,4.23-4.68,4.23-8.78v-15.5h12v-6.5h-12v-6.6h-4.92c2.19-.38,4.3-.78,6.29-1.2C289.57,100.71,291.26,102.51,292.55,104.17Zm-16.41,2.58h-29.7v5.7h-12.6v-7.6h13.3v-8.4l1.49,7.65.87,0c5.81-.35,16.46-1.44,26.64-3Zm-38.8-17v8.6h-3.9v-8.6Zm0-13.5v7.3h-3.9v-7.3Zm-13.6,13.5v8.6h-3.8v-8.6Zm-3.8-6.2v-7.3h3.8v7.3Zm46-4.1V84h-6.5v-4.5Zm0-10v3.7h-6.5v-3.7Zm10.6,3.7v-3.7h7.2v3.7Zm0,10.8v-4.5h7.2V84Zm6.18,9.91-2.93.24-3.25.26V90.45h3.31l-.29.48ZM248.64,59.65h17.3V63h-16.1v27.5h16.1V95c-7.1.29-13.56.35-17.8.35h-1V69.75h-13.3v-5.7h14.8Z"/><path class="cls-1" d="M504.17,127.74,503,133l.75.34c6.8,3,12.58,4.55,17.12,4.55a12.64,12.64,0,0,0,7-1.77c2.79-1.81,4.2-4.87,4.2-9.1V44.25h-10.9v80.6c0,1.87-.22,2.79-.8,3.3-1.44,1.26-6.07.91-15.27-.29Z"/><path class="cls-1" d="M194.94,126.85H171.37c5.88-13.69,10.26-28.14,14.15-46.59l.21-1-13.21-2.86-.07,1.16c-1.09,18.17-5.75,40-7.9,49.26H129.74v6.8h65.2Z"/><path class="cls-1" d="M128.44,139V68.87a169.15,169.15,0,0,0,8.16-21.53l.29-1-12-3.72-.22,1.08c-4.3,21.11-14.55,43.31-21.58,51.76l-.55.66,3.6,4.06.75-.6a63.27,63.27,0,0,0,10.76-12V139Z"/><path class="cls-1" d="M45.55,137.88l1.63-2.7,3.3,3.57.71-.46A62,62,0,0,0,69,121.08a57.44,57.44,0,0,0,15.37,17.77l.82.62,7.6-10.57-.86-.58c-6.07-4.11-12.39-9-17.53-17.15,4.56-10.43,7-22.93,7.64-39.22h6.93v-6.5H65.83a105.69,105.69,0,0,0,4.41-19.58l.11-1-11.6-1.57-.1,1c-.57,6-1.4,12-2.44,17.59H48.84V52H33.74v-7.6H23.14V52H8.34V62h-8v6.5h8v10.1h14.8v3.2H6.34v17.8H20.81c-.62,1.35-1.46,3-2.57,5.2H1.84v6.5H14.75c-3,5.35-6.05,10.51-7.53,12.63l-.64.92,8.69,4.66.51-.75c.93-1.4,2.08-3.26,3.29-5.31,2.09.86,4.22,1.79,6.44,2.84-5.47,3.81-12.89,6.27-22.08,7.32l-1.09.12L3.44,139l.85,0c11.89-.51,22.07-3.42,29.51-8.42,3.91,2.18,7.47,4.39,10.87,6.75ZM33.74,81.75v-3.2h15.1V68.45h6a120.32,120.32,0,0,1-4.34,15V81.75ZM71.62,72c-.33,11.25-1.28,19.86-3.06,27.32-2.62-7.35-4.39-16.06-5.4-26.49l.29-.83ZM40.14,88.25v4.8h-6.4v-4.8ZM33.74,62v-3.5h4.9V62Zm0,10.1v-3.6h4.9v3.6Zm-10.6,16.2v4.8h-6.4v-4.8Zm-.78,29.57c1.1-1.93,2.23-4,3.33-5.94l.34-.63H36a25.19,25.19,0,0,1-4.47,9.24C28.49,119.53,25.36,118.61,22.36,117.82ZM18.54,72.05v-3.6h4.6v3.6Zm0-10.1v-3.5h4.6V62ZM51,128.78l-.92-.5A80.22,80.22,0,0,0,41,124a28.84,28.84,0,0,0,5.88-12.77h9.46v-6.5H29.39c.84-1.63,1.44-2.9,1.87-3.9l.43-1-.89-.3H50.54V92.4l1.57,1,.56-.8A95.28,95.28,0,0,0,58,83.89a100.41,100.41,0,0,0,6.43,27.74,65.73,65.73,0,0,1-16.33,22Z"/><path class="cls-1" d="M570.54,138.65h10.8V112.22c2.61,3.42,5.29,7,7.86,11.06l.65,1,7.84-7.59a44.4,44.4,0,0,1-8.92,19l-.6.75,4.06,3.61.66-.57c12.59-10.75,18-26.68,18-53.26v-3h9.4v55H631v-55h10.3v-6.5h-30.5V59.36c8.77-.83,18.13-2.26,27.43-6.6l1.32-.62-9-8.67-.67.46a69.31,69.31,0,0,1-20.74,9.79l-9.3-2.47v28H585a90.89,90.89,0,0,0,8-13.46l.49-1L587.86,63h9.58v-6.4H579.76l3.51-4.62-.85-.59a69.92,69.92,0,0,0-16.95-8.53l-.77-.27L562.06,47l.63.55c3.27,2.85,6.44,5.89,9.45,9h-19.6V63h7.05l-2,1.36.39.78c2,4.14,4.27,9.93,5.78,14.16H551v6.5h19.5v9.8h-18.1v6.3H568c-3.8,9-11.48,19.86-18,25.34l-.74.62,3.37,4.29.77-.52a67.56,67.56,0,0,0,17.14-16.4Zm7.78-59.4h-6.87l3.07-1.58-.5-.9A71.43,71.43,0,0,0,563.58,63H582A102.08,102.08,0,0,1,578.32,79.25Zm21.52,10.3c0,10.66-.45,19.41-2.09,26.94l-.57-.62a74.52,74.52,0,0,0-15.84-12.38v-1.64h16.8v-6.3h-16.8v-9.8h18.5Z"/><path class="cls-1" d="M343.67,18.41A6.21,6.21,0,0,1,344,19,16.56,16.56,0,0,0,349,17.51c.5.19,1.37.53,2.61,1a.43.43,0,0,0,.2.07l.62-1.1,1,1.31a34,34,0,0,0,2.81-2.47,19.25,19.25,0,0,0,2.6,2.26c.09-.23.28-.59.55-1.1s.55-1,.68-1.23a10.54,10.54,0,0,1-2.39-2.12,18.12,18.12,0,0,0,1.64-6.58h.62V5.25h-3.77c.27-.83.52-1.72.75-2.68l-2.47-.34A18.83,18.83,0,0,1,353.13,7c-.09.23-.23.53-.41.89a4.12,4.12,0,0,0-.27.62V7h.68V5.18h-.68V3.33h-3.09v-1H347.1v1H344V5.18h-.69V7H344V8.81h3.08v.55H344v3.29h2.53l-.34.48H343.4v1.71h1.44c-.14.14-.32.34-.55.62s-.5.57-.68.75l2,.55.35-.2a1.67,1.67,0,0,0,.61.13,12.69,12.69,0,0,1-3.35.55A12.06,12.06,0,0,1,343.67,18.41ZM357,7.58a14.06,14.06,0,0,1-.82,4.25,14.48,14.48,0,0,1-.89-4.25Zm-7.68-2.81h1v.61h-1Zm0,2h1v.61h-1Zm0,2.05h2.88a.79.79,0,0,1,.14.28.68.68,0,0,1,.07.27h-3.09Zm0,1.85h1.1v.62h-1.1Zm-.48,2.19.21-.2h3.36V9.43c.18.59.41,1.25.68,2a4.4,4.4,0,0,1,.28-.41l.2-.41a16.61,16.61,0,0,0,1.17,3.63,15.52,15.52,0,0,1-2.68,2.47l-1.23-.41A9.63,9.63,0,0,0,352,14.84h1.3V13.13h-4.66A3.23,3.23,0,0,0,348.88,12.85Zm-2.81-8.08h1v.61h-1Zm0,2.6V6.76h1v.61Zm1.31,7.47h2a6,6,0,0,1-.75.76l-.75-.28-.76-.2ZM346,11.28v-.62h1.09v.62Z"/><path class="cls-1" d="M380,8.81l-2.88-.75c-.59,2.15-1.35,4.68-2.26,7.6h-5.48v2.47H381V15.66h-3.29C378.41,13.43,379.19,11.14,380,8.81Z"/><path class="cls-1" d="M365.21,12.65a13.51,13.51,0,0,0,.89-1.3v7.4h2.74V6.34a23.92,23.92,0,0,0,1.23-3.29l-2.74-.82a28,28,0,0,1-3.08,7.13c.23,1.14.43,2.38.62,3.7A4.89,4.89,0,0,0,365.21,12.65Z"/><path class="cls-1" d="M373.3,9.63c-.23-.68-.39-1.21-.48-1.57l-2.61.75q1,3,1.78,6.37l2.74-.82Q373.92,11.29,373.3,9.63Z"/><polygon class="cls-1" points="369.6 7.58 380.7 7.58 380.7 4.97 376.58 4.97 376.58 2.3 373.57 2.3 373.57 4.97 369.6 4.97 369.6 7.58"/><path class="cls-1" d="M392.29,11.62l.21,1.78,7.74-.2a1.25,1.25,0,0,1,.21.27,1.59,1.59,0,0,0,.14.34l1.57-.82a23.11,23.11,0,0,1-1.23-2h.41V5.66h-3.22V5.11h3.77V3.33h-3.77V2.23h-2.19v1.1h-3.5V5.11h3.5v.55H392.7V11h3.23v.62Zm5.83-4.45h1.23v.54h-1.23Zm0,1.71h1.23V9.5h-1.23Zm0,2.12h1a.81.81,0,0,1,.13.28.66.66,0,0,1,.14.34h-1.3Zm-3.43-3.83h1.24v.54h-1.24Zm0,2.33V8.88h1.24V9.5Z"/><path class="cls-1" d="M393.8,17.31l1,.82,1.1-1.1c0,.19.11.46.2.83l.21.75h1a8.56,8.56,0,0,1,1-.07,1.78,1.78,0,0,0,1.92-2.12v-.55H402V14h-1.78v-.55H398V14H392.5v1.85h1.3l-.89.75A7.33,7.33,0,0,1,393.8,17.31ZM398,15.87v.34c0,.37-.16.53-.62.48H396.2c-.09,0-.25-.14-.48-.27a6,6,0,0,1-.69-.55Z"/><path class="cls-1" d="M387.77,18.68H390V16.62h2.19V14.5H390v-.82h1.85V6.28H390V5.52h2.06V3.4H390V2.23h-2.26V3.4h-2.13V5.52h2.13v.76h-1.85v7.4h1.85v.82h-2.33v2.12h2.33Zm2-10.42h.75v.89h-.75Zm0,2.54h.75v.89h-.75Zm-2.47-2.54H388v.89h-.75Zm0,3.43V10.8H388v.89Z"/><path class="cls-1" d="M417.25,11.48a1.07,1.07,0,0,1,.07.35c1.42,0,2.4,0,2.95-.07,1.51,0,2.24-.85,2.19-2.54V2.37H420V8.54q.08,1-1,1c-1.09,0-1.82,0-2.19-.07C417,10.25,417.16,10.93,417.25,11.48Z"/><rect class="cls-1" x="416.57" y="3.05" width="2.33" height="5.69"/><path class="cls-1" d="M422.87,16h-6.71V14.84h5.75V12.58h-5.75V10.94h-1.44V8.74h1.5V6.48h-1.5V4.84h1.09V2.64H407v2.2h1.37V6.48h-1.78V8.74h1.71a3,3,0,0,1-1.5,2.33c.82.37,1.59.76,2.33,1.17a4.21,4.21,0,0,0,1.64-3.5h1.44v2.81h1.1v1h-5.76v2.26h5.76V16h-6.72V18.2h16.24ZM412.25,6.48h-1.44V4.84h1.44Z"/><path class="cls-1" d="M428.16,10.73a19.93,19.93,0,0,1-.68,6.1c.09.14.27.39.55.75.45.6.77,1,1,1.24,0-.14.11-.32.2-.55.23-.87.39-1.49.48-1.85.82,1.41,2.68,2,5.55,1.92,2.2,0,5,.07,8.36.07q.42-1.38.69-2.13h-9c2-.41,3.11-1.19,3.29-2.33h2.4V11.69H439.4v.89h-.68c0-.41.07-.8.07-1.16h-1.85v1.16h-.62v-.82h-.55a2.39,2.39,0,0,0,.69-.69h5.07c0,.37,0,.82-.07,1.37v1.24a.68.68,0,0,1-.75.68,11.7,11.7,0,0,1-1.58-.07c.14.51.27,1.08.41,1.72h2.06c1.28,0,1.94-.69,2-2.06.05-.46.07-1.21.07-2.26s.07-1.69.07-2.19h-5.89A1.71,1.71,0,0,1,438.1,9l-1-.07a2.49,2.49,0,0,0,1.44-1.44h2.33V5.32H439.4v.75h-.68V5h-1.78v1h-.62V5.38h-.62l.21-.2a1.67,1.67,0,0,0,.41-.41h5.14c0,1.19,0,2-.07,2.46s-.16.48-.62.48H439.2c0,.23.11.55.2,1a1.39,1.39,0,0,1,.14.48q1.44,0,2.13-.06c1.27-.05,1.89-.6,1.85-1.65.09-1.37.13-2.81.13-4.32h-6a2.89,2.89,0,0,0,.34-.61c.09,0,.14-.1.14-.14l-2.26-.21a6.73,6.73,0,0,1-2.4,2.4c.09.28.25.82.48,1.65a1.76,1.76,0,0,0,.14.48,4,4,0,0,0,.68-.55V7.51h1.65a6.55,6.55,0,0,1-2.54.62c.27.64.48,1.16.62,1.57a7.32,7.32,0,0,1,.89-.2,10.32,10.32,0,0,1-1.85,1.57,2.7,2.7,0,0,1,.14.48c.18.73.29,1.26.34,1.58a1.91,1.91,0,0,1,.41-.28,2,2,0,0,1,.34-.27V14h1.72c-.32.41-1.28.71-2.88.89a14.67,14.67,0,0,0,.75,1.44,7.7,7.7,0,0,1-1.78-.2V14.16h1V11.89h-1V10.11h1.1V7.85H432V6.34h1.44V4.15H432V2.23h-2.19V4.15H428.1V6.34h1.71V7.85h-2.12v2.26h2.94v4.46a4,4,0,0,1-.68-1.3q.06-1,.06-2.34Z"/><path class="cls-1" d="M448.74,7.58a4.91,4.91,0,0,1,.82,1.3,1,1,0,0,1,.28-.07v1H452v.55l-2.81.07.2,1.71,7.27-.34V10.66c.18.27.48.66.89,1.17.23.32.39.54.48.68a13.58,13.58,0,0,0,1.71-2.33,10.15,10.15,0,0,0,1.1.82l.62-1.44.06.62c.1,1.33.73,2,1.92,2.06.92-.05,1.46-.6,1.65-1.65a12.78,12.78,0,0,0,.27-2.33,7.67,7.67,0,0,1-1.3-.48L464,9.5c0,.27,0,.43-.13.48s-.16-.21-.21-.48V3.88H460.8V2.3h-2.19V3.88h-1.3v2h1.3a9.26,9.26,0,0,0-.07,1.1,2.22,2.22,0,0,1-.69-.34l-1,1.64,1.09.69a7.26,7.26,0,0,1-1.23,1.71v-.41c-.32,0-.76,0-1.3.07h-1.17V9.84h1.92V8.47h-1.92V8.13a.8.8,0,0,0,.41.06h1A1.18,1.18,0,0,0,457,7a7.61,7.61,0,0,1-1-.27h.89V5.11h-2.67V4.63h2.26V3.05h-2.26V2.3H452v.75h-2.33V4.63H452v.48h-2.88V6.69h1.85C450.7,7.19,450,7.49,448.74,7.58ZM460.8,5.86h.69v3l-1-.62A18.06,18.06,0,0,0,460.8,5.86ZM455,6.69h.83c0,.32-.1.48-.28.48h-.2c-.23,0-.35-.1-.35-.28Zm-2.6,0h1.23v.54a1.14,1.14,0,0,0,.14.62H452v.62h-1.44A2.68,2.68,0,0,0,452.44,6.69Z"/><path class="cls-1" d="M450.11,18.82q5.89-1.09,6.72-4h4.45a1.64,1.64,0,0,1-.07.41.86.86,0,0,1-.07.41c0,.55-.39.8-1.16.76-1.42,0-2.42,0-3-.07.09.32.21.87.35,1.64a4.56,4.56,0,0,0,.13.55c.83,0,1.81-.07,2.95-.07,2.47.09,3.63-.77,3.49-2.6.1-.91.16-1.94.21-3.08h-6.78l.13-.76h-2.81l-.07.76h-5.07v2.05h4.32c-.5.82-2.22,1.42-5.14,1.78a10.4,10.4,0,0,1,1,1.44A5.38,5.38,0,0,1,450.11,18.82Z"/><path class="cls-1" d="M476,8.74c.18-.13.46-.32.82-.55.55-.32,1-.57,1.24-.75v.89h5.48v-1a18.65,18.65,0,0,0,2.12,1.24,19.31,19.31,0,0,1,.9-2.33A12,12,0,0,1,482,3.05l.41-.68-2.53-.28a11.11,11.11,0,0,1-4.25,4.05v-1h-6V7.23h5.82Zm4.8-4c.5.55,1,1.05,1.44,1.51h-2.81A10.92,10.92,0,0,0,480.76,4.77Z"/><rect class="cls-1" x="470.2" y="2.64" width="4.8" height="1.85"/><path class="cls-1" d="M482.54,17.58l.2,1a9.4,9.4,0,0,0,1.44-.07c1.05.05,1.56-.54,1.51-1.78V9.09H476v9.45h2v-3.7h.75v2.95h1.71V14.84h.76v2.74Zm.27-6.37h.76v1.58h-.76Zm0,3.63h.76v1.44c0,.27-.07.41-.35.41h-.41Zm-4.11-2.05H478V11.21h.75Zm1.71,0V11.21h.76v1.58Z"/><rect class="cls-1" x="469.93" y="10.25" width="5.28" height="1.85"/><rect class="cls-1" x="469.93" y="7.78" width="5.28" height="1.85"/><path class="cls-1" d="M475.21,18.61V12.72H470v5.89h1.92v-.68h1.37v.68Zm-3.29-2.53V14.7h1.37v1.38Z"/><path class="cls-1" d="M506.75,5.38h-11v5.76h11Zm-2.33,4.39H498v-3h6.38Z"/><polygon class="cls-1" points="507.23 3.26 502.63 3.26 502.63 2.09 500.17 2.09 500.17 3.26 495.23 3.26 495.23 4.91 507.23 4.91 507.23 3.26"/><path class="cls-1" d="M490.71,14.64l.41,2.67a23.63,23.63,0,0,1,2.54-.62c.82-.23,1.46-.41,1.91-.55q-.06-1.16,0-2.67l-1.16.28V9.09h.89V6.41h-.89V2.3H492V6.41h-1.1V9.09H492v5.27Z"/><path class="cls-1" d="M506.27,16.21V11.62H496.19v4.59Zm-7.75-3.29h5.42v.55h-5.42Zm0,1.44h5.42v.55h-5.42Z"/><rect class="cls-1" x="495.03" y="16.69" width="12.34" height="1.51"/><path class="cls-1" d="M503.59,7.17h-4.73V9.36h4.73Zm-1.78,1.3h-1.16V8h1.16Z"/></svg>