<svg id="圖層_1" data-name="圖層 1" xmlns="http://www.w3.org/2000/svg" viewBox="0 0 408 305"><defs><style>.cls-1{fill:#fff;}</style></defs><path class="cls-1" d="M100.77,278.83,98,278.07A19.88,19.88,0,0,1,96.23,281H91.54L91,283.9H93.8a20.27,20.27,0,0,1-4.32,3.33L91,278.81H82l-1.64,9.3h3.9l-1.85,10.46-1.33.34,1.54-8.74H80l-1.65,9.36-1.21.26.24,3.14c3.18-.85,7.33-2,11.23-3.06l0-2.88-3.31.82.67-3.76h2.34l.51-2.92H86.56l.53-3h2.24l0-.14a14.3,14.3,0,0,1,.71,2.54,25.9,25.9,0,0,0,3.49-2.46l-.25,1.39h7.33l.32-1.84a11.7,11.7,0,0,0,2.43,3,17.93,17.93,0,0,1,2.65-2.51,11.72,11.72,0,0,1-3.49-4.24h3.56l.51-2.89H99.54A17.94,17.94,0,0,0,100.77,278.83ZM87,285.28H83.52l.64-3.65h3.48Zm13.5,1.5H94.93a24.33,24.33,0,0,0,2.58-2.88h1.83A15.49,15.49,0,0,0,100.5,286.78Z"/><path class="cls-1" d="M89.13,293.71H91.9c-.71,1.61-1.52,3.33-2.23,4.63H99c-.5,1.7-.94,2.61-1.39,2.92a2.53,2.53,0,0,1-1.37.22c-.9,0-3.1,0-5.08-.19a5.27,5.27,0,0,1,.71,2.88,41.9,41.9,0,0,0,4.86,0,4.45,4.45,0,0,0,3.08-1c1-.79,1.68-2.6,2.62-6.36.13-.43.34-1.25.34-1.25H94.11c.31-.62.59-1.24.87-1.89h9.28l.49-2.77H89.62Z"/><path class="cls-1" d="M132.59,290.71l2.11-12H114.54l-2.12,12h4.5a26.24,26.24,0,0,1-8.34,4,11.78,11.78,0,0,1,1.71,2.77,27.74,27.74,0,0,0,5.61-2.63l-.17,1c-.32,1.81-1.31,4.18-6.31,5.74a9.59,9.59,0,0,1,1.85,2.71c6-2.06,7.43-5.63,7.91-8.31l.34-1.95h-2.4a25.66,25.66,0,0,0,4-3.37H124a12.89,12.89,0,0,0,2.71,3.39h-2.12l-1.76,10h3.51l1.57-8.94a16.59,16.59,0,0,0,4.38,2.29,19.73,19.73,0,0,1,2.74-2.88,16.24,16.24,0,0,1-7.07-3.82ZM121.22,288h-5l.36-2h5Zm.8-4.56h-5l.36-2h4.95Zm3.75-2h5l-.36,2h-5ZM124.61,288l.36-2h4.95l-.36,2Z"/><path class="cls-1" d="M200.51,278.83l-2.75-.76A19.88,19.88,0,0,1,196,281h-4.69l-.51,2.89h2.77a20.27,20.27,0,0,1-4.32,3.33l1.49-8.42h-9l-1.65,9.3H184l-1.85,10.46-1.33.34,1.54-8.74h-2.54l-1.65,9.36-1.21.26.24,3.14c3.17-.85,7.33-2,11.23-3.06l.05-2.88-3.31.82.66-3.76h2.35l.51-2.92H186.3l.53-3h2.23l0-.14a14.3,14.3,0,0,1,.71,2.54,25.9,25.9,0,0,0,3.49-2.46l-.25,1.39h7.33l.32-1.84a11.7,11.7,0,0,0,2.43,3,17.93,17.93,0,0,1,2.65-2.51,11.72,11.72,0,0,1-3.49-4.24h3.56l.51-2.89h-7.07A17.94,17.94,0,0,0,200.51,278.83Zm-13.77,6.45h-3.48l.64-3.65h3.48Zm13.5,1.5h-5.57a24.33,24.33,0,0,0,2.58-2.88h1.83A15.49,15.49,0,0,0,200.24,286.78Z"/><path class="cls-1" d="M188.87,293.71h2.77c-.71,1.61-1.52,3.33-2.23,4.63h9.33c-.5,1.7-.94,2.61-1.39,2.92a2.53,2.53,0,0,1-1.37.22c-.9,0-3.1,0-5.08-.19a5.27,5.27,0,0,1,.71,2.88,41.73,41.73,0,0,0,4.85,0,4.46,4.46,0,0,0,3.09-1c1-.79,1.68-2.6,2.62-6.36.13-.43.33-1.25.33-1.25h-8.65c.31-.62.59-1.24.87-1.89H204l.49-2.77H189.36Z"/><path class="cls-1" d="M216.22,293.51l-2.09,1,1.2-6.81h2.12l.57-3.23H215.9L217,278.1h-3.14l-1.12,6.33h-2.54l-.57,3.2h2.55l-1.49,8.45c-1.13.48-2.18.94-3,1.28l.68,3.39c2.54-1.24,5.55-2.8,8.3-4.27Z"/><path class="cls-1" d="M224.64,295.15l1.52-8.6h-7.27l-1.52,8.6Zm-3.74-6h2.17l-.6,3.45h-2.18Z"/><path class="cls-1" d="M234.22,277.73,232,279.37a19.84,19.84,0,0,1,2.07,2.24h-3c.2-1.31.43-2.58.69-3.88h-3.2c-.23,1.3-.43,2.57-.63,3.88h-9l-.54,3.05h9.14a79.84,79.84,0,0,0-.91,11.88c-.46.53-.95,1-1.46,1.55l.14-2.23c-3.7.79-7.56,1.64-10.1,2.09l.24,3.14c2.54-.62,5.86-1.47,9-2.26a24.18,24.18,0,0,1-4.15,3,11.51,11.51,0,0,1,2,2.12,25.87,25.87,0,0,0,4.62-3.73c.45,2.4,1.37,3.9,3,3.9,2.12,0,3.14-1.07,4.28-4.83a5.89,5.89,0,0,1-1.93-1.87c-.53,2.52-.94,3.56-1.34,3.56-.68,0-1.06-1.52-1.1-4a44.18,44.18,0,0,0,5.5-9.84l-2.89-.59a41.54,41.54,0,0,1-2.49,5.28c.12-2.14.38-4.55.72-7.12h5.48l.54-3.05h-1.24l1.41-1.14A13.58,13.58,0,0,0,234.22,277.73Z"/><path class="cls-1" d="M294.25,285.31h8.85l.59-3.34h-8.85l.74-4.21H292l-.75,4.21h-8.59l-.59,3.34h8.6l-.64,3.62H279.3l-.59,3.34h9.16A35.08,35.08,0,0,1,276.38,300a13.43,13.43,0,0,1,2,2.92,40.31,40.31,0,0,0,10.53-7.58l-1.56,8.82h3.59l1.59-9a22.93,22.93,0,0,0,7.81,7.77,21.92,21.92,0,0,1,2.95-2.91,21.4,21.4,0,0,1-8.69-7.77h9.33l.59-3.34H293.61Z"/><path class="cls-1" d="M315.39,284.72a17.44,17.44,0,0,1-6.45,8.2,14.83,14.83,0,0,1,2.21,2.2,19.45,19.45,0,0,0,3.94-3.87,17.3,17.3,0,0,1,1.54,2l2.68-2.35a33.74,33.74,0,0,0-2.31-2.49,32.43,32.43,0,0,0,1.56-3.05Z"/><path class="cls-1" d="M325.86,277.76h-3.53l-.61,3.48h-10.3l-.58,3.31h10.29L320,291.08a32,32,0,0,1-13.06,9.1,16.2,16.2,0,0,1,1.87,2.89,35,35,0,0,0,10.31-7l-1.42,8.06h3.53l1.45-8.23a21.09,21.09,0,0,0,7.9,7.16,20.13,20.13,0,0,1,3-3.09,19.31,19.31,0,0,1-9.41-7.88,11.61,11.61,0,0,1,1.95,1.44,15.44,15.44,0,0,0,2.33-2.43,29.67,29.67,0,0,1,3.07,3.28l2.76-2.35c-.88-1-2.57-2.46-4-3.7a30.29,30.29,0,0,0,1.47-3l-3.18-.59a15.88,15.88,0,0,1-4.76,6.81c-.1-.23-.21-.42-.31-.65l1.12-6.33h10.66l.58-3.31H325.25Z"/><polygon class="cls-1" points="175.63 278.55 155.72 291.34 141.56 278.58 141.11 279.08 155.13 291.71 135.37 304.4 135.74 304.97 155.65 292.18 169.81 304.93 170.26 304.44 156.24 291.8 176 279.12 175.63 278.55"/><polygon class="cls-1" points="277.52 279.12 277.15 278.55 257.24 291.34 243.08 278.58 242.63 279.08 256.66 291.71 236.9 304.4 237.26 304.97 257.17 292.18 271.33 304.93 271.78 304.44 257.76 291.8 277.52 279.12"/><path class="cls-1" d="M30.36,278V273.6H29V278a14,14,0,0,0,14,14H68.75v-1.36H43A12.61,12.61,0,0,1,30.36,278Z"/><path class="cls-1" d="M382.45,278a12.61,12.61,0,0,1-12.6,12.59H344.06V292h25.79a14,14,0,0,0,14-14V273.6h-1.36Z"/><path class="cls-1" d="M376.1,94.22l-1.32,5.15.72.36c5.29,2.64,10.16,4,14.18,4a12.09,12.09,0,0,0,6.42-1.6c2.78-1.72,4.25-4.76,4.25-8.79V44h-10.6V91c0,1.78-.26,2.77-.88,3.31-1.37,1.19-5.23.92-11.88,0Z"/><path class="cls-1" d="M154.45,42.44l-3.78,3.64.43.68c3.25,5.18,7.84,13.06,11.2,20H134.25v6.8h60.4v-6.8h-29l8-5.69-.64-.82a87.29,87.29,0,0,0-17.91-17.3Z"/><path class="cls-1" d="M147.82,123.63l12.56-2.39-.14-.95c-1.55-10.86-7.66-29.23-13.89-41.8l-.39-.78-5.31,1.77.23.9a244.51,244.51,0,0,1,6.87,42.11Z"/><rect class="cls-1" x="372.35" y="48.33" width="10" height="40.9"/><path class="cls-1" d="M315.15,128.23V135h90.2v-6.8h-39.6v-12.7h28.7V109h-28.7V98.13h-7.2V78.33h13.5v-6.5h-13.5V56h10.2v-6.5h-48.2V56h10.7v15.8h-13.2v6.5H331.2c-.89,15.55-7.81,22.16-14.5,26.57l-.81.53,2.87,4.68.81-.37c10.87-5,21.06-12.26,22.23-31.41H348v26h6.8V109h-29.2v6.5h29.2v12.7ZM348,71.83h-6.1V56H348Z"/><path class="cls-1" d="M210.85,63.83h14.9v5.7h-13.3v35.1h13.3v7.6H210v6.5h15.8v18.8h10.4v-18.8h16.3V113h2.83l-2.12,2.6.52.64c1,1.27,2.06,2.5,3.07,3.71,2.49,3,4.84,5.81,7.1,8.85l.68.92,7.17-7-.77-.71a72,72,0,0,0-12.08-9h19.6v13.3c0,1.65-.12,2.77-.7,3.26-1.15,1-5,.52-10.32-.44l-.89-.16-1.47,5.14.7.38c5.08,2.75,9.64,4.15,13.37,4.15a10.53,10.53,0,0,0,5.48-1.35c2.77-1.65,4.23-4.68,4.23-8.78V113h12v-6.5h-12v-6.6h-4.92c2.18-.38,4.3-.78,6.28-1.2,1.67,1.76,3.36,3.56,4.65,5.22l.74,1,6.17-7-.76-.66a65.51,65.51,0,0,0-9.61-7h4.25V62.73h-16.8v-3.3h21.6v-6.5h-21.6v-9.7h-10.6v9.7h-18.6v4.4h-13.5V42.43h-10.4v14.9h-14.9Zm15.2,34.3h-3.8v-8.6h3.8Zm52.8-28.9h7.2v3.7h-7.2Zm0,10h7.2v4.5h-7.2Zm0,11h3.31l-.29.48L285,93.64l-2.93.24-3.25.26Zm-.4,10.6v5.7h-29.7v5.7h-12.6v-7.6h13.3v-8.4l1.49,7.65.87,0C257.61,103.48,268.26,102.39,278.45,100.83Zm-10.2-21.6v4.5h-6.5v-4.5Zm-6.5-6.3v-3.7h6.5v3.7Zm-25.6-9.1H251v-4.4h17.3v3.3h-16.1v27.5h16.1v4.55c-7.1.29-13.56.35-17.8.35h-1V69.53h-13.3Zm-.4,12.2h3.9v7.3h-3.9Zm0,13.5h3.9v8.6h-3.9ZM226.05,76v7.3h-3.8V76Z"/><path class="cls-1" d="M197.25,126.63H173.67c5.88-13.69,10.27-28.14,14.16-46.59l.2-1-13.21-2.86-.07,1.16c-1.09,18.17-5.75,40-7.89,49.26H132.05v6.8h65.2Z"/><path class="cls-1" d="M130.75,138.73V68.65a170.67,170.67,0,0,0,8.16-21.53l.29-.95-12-3.72L127,43.53c-4.3,21.11-14.56,43.31-21.59,51.76l-.55.66,3.61,4.06.74-.6a63.62,63.62,0,0,0,10.77-12v51.3Z"/><path class="cls-1" d="M10.65,78.33h14.8v3.2H8.65v17.8H23.11c-.62,1.35-1.46,3-2.57,5.2H4.15V111h12.9c-3,5.35-6,10.51-7.52,12.63l-.64.92,8.69,4.66.5-.75c.93-1.4,2.09-3.26,3.3-5.31,2.09.86,4.21,1.79,6.44,2.84-5.47,3.81-12.89,6.27-22.08,7.32l-1.09.12,1.09,5.31.85,0c11.89-.51,22.08-3.42,29.51-8.42,3.91,2.18,7.48,4.39,10.88,6.75l.88.6,1.63-2.7,3.3,3.57.7-.46a62.08,62.08,0,0,0,17.79-17.21,57.44,57.44,0,0,0,15.37,17.77l.82.61,7.59-10.56-.85-.58c-6.07-4.11-12.39-9-17.53-17.15,4.56-10.43,7-22.93,7.63-39.22h6.94v-6.5H68.13a104.1,104.1,0,0,0,4.41-19.58l.12-1L61.05,43.1l-.1,1c-.56,6-1.39,12-2.43,17.59H51.15v-10H36.05v-7.6H25.45v7.6H10.65v10h-8v6.5h8Zm8.4,14.5V88h6.4v4.8Zm46.71-21.1h8.16c-.32,11.25-1.28,19.86-3,27.32a110.41,110.41,0,0,1-5.4-26.49ZM36.05,58.23H41v3.5h-4.9Zm0,10H41v3.6h-4.9Zm0,10.1h15.1V68.23h6a120.39,120.39,0,0,1-4.33,15V81.53H36.05Zm0,9.7h6.4v4.8h-6.4Zm-2.94,11.3H52.85V92.18l1.57,1,.55-.8a93.12,93.12,0,0,0,5.36-8.73,101.13,101.13,0,0,0,6.43,27.74,65.46,65.46,0,0,1-16.33,22l2.91-4.83-.91-.5a80.22,80.22,0,0,0-9.12-4.26A29,29,0,0,0,49.19,111h9.46v-6.5h-27c.84-1.63,1.45-2.9,1.88-3.9l.43-1ZM28,111.66l.35-.63h9.94a25.19,25.19,0,0,1-4.47,9.24c-3-1-6.14-1.88-9.14-2.67C25.76,115.67,26.89,113.64,28,111.66ZM20.85,58.23h4.6v3.5h-4.6Zm0,10h4.6v3.6h-4.6Z"/><path class="cls-1" d="M406.4,212c-6.34-1.82-13.59-4.33-20.24-10.94h17.67v-6.5H373.15c.85-2,1.55-4,2.13-5.9h27v-6.5H387a72.52,72.52,0,0,0,10.92-14.09l.58-1-10.38-4.5-.32,1.08a125.73,125.73,0,0,1-6.55,16.87l-.39.85,1.42.76H377a118.86,118.86,0,0,0,2.35-20.66l0-1H368l0,1a149.51,149.51,0,0,1-1.74,20.72h-6.9l6.43-3.17-.52-.92c-3.92-6.92-7.41-11.73-11-15.13l-.57-.54-4.38,2.77.34.79c2.95,6.88,5,12.19,6.37,16.2h-6.35v6.5h15.21a49.87,49.87,0,0,1-1.89,5.9H346.83v6.5H360a48.36,48.36,0,0,1-13.44,15.1v-50.1h-26.4v35.5c0,35.77-2.69,43.84-6.49,51.35l-.39.76,4.32,3.13.6-.67c6.87-7.58,10.62-19.69,11.8-38.07h6.36v24.3c0,1.81-.22,2.76-.73,3.18-1,.86-4.08.48-9-.46l-.85-.16-1.75,5,.67.43c6.46,4.09,12.89,5.12,17.21,2.75,3-1.65,4.63-4.7,4.63-8.6V223l.67-.35c1.18-.63,2.31-1.3,3.43-2v3.6h12.52c-2.14,12.71-7.21,20.29-18.37,27.67l-.8.53,2.74,4.57.81-.35c14.89-6.55,23-16.57,26.22-32.42h11c-.12,6.49-.51,15-1.26,19a4,4,0,0,1-1.46,2.81c-1.56,1-4.91.79-11.94-.79l-.87-.2-1.75,5,.64.43c7.51,5.1,14.44,6.72,19.51,4.56a9.75,9.75,0,0,0,5.84-7.63c1-6.09,1.48-16.38,2-28.23a64.41,64.41,0,0,0,6.07,3.47l.91.46,5.15-10.79Zm-70.07-.44h-6.07c.07-2.19.07-4.44.07-6.8V194h6Zm0-24.1h-6v-14.9h6ZM364,217.77h-9.08a55.3,55.3,0,0,0,9.65-8.9C364.46,212.1,364.23,215.1,364,217.77Zm10.76,0c.44-3.71.58-7.5.66-10.47l0-1h-8.82a49.78,49.78,0,0,0,3.38-5.2h8.92a46.82,46.82,0,0,0,14.39,16.7Z"/><path class="cls-1" d="M243.82,256.53c13.25-4.09,23.53-9.94,31.37-17.88,4.91,7.06,11.56,12.6,20.29,16.92l.8.39L304,244l-1.13-.45c-9.46-3.76-16.16-8-21-13.17,8.28-12.92,10.05-27.72,10.6-41.9h8.24V182H272a118.41,118.41,0,0,0,3.19-18.6l.09-1-12-1.69,0,1.09c-.75,14.7-2.64,26.42-5.77,35.73a63.94,63.94,0,0,0-12.14-15.7l-.56-.54-4.13,2.6.4.81c.91,1.8,1.91,4,3,6.56-6.31.93-11.66,1.58-16.55,2a80.73,80.73,0,0,0,11.74-19.22h20.93v-6.5h-48.6v6.5h15.29a82,82,0,0,1-7,19.75c-2.47.15-4.9.15-7.26.15h-1.27l2.92,12.15.92-.16a175.82,175.82,0,0,0,31.15-8.89,56.41,56.41,0,0,1,2.4,8l.25,1.26,6.43-3.05a54.45,54.45,0,0,1-3.65,7.07l-.48.76,4.12,3.2.62-.64a52.93,52.93,0,0,0,8-10.8c.75,10.68,2.95,19.95,6.55,27.61-6.12,8.63-15.3,15.34-28.84,21.07l-1,.41,2.33,4.82Zm25.32-65.19c.37-.92.69-1.89,1-2.82l10.95-.05c-.57,14.6-2.26,24.62-5.57,32.8C271.79,213.91,269.86,204.78,269.14,191.34Z"/><rect class="cls-1" x="60.33" y="171.87" width="10.2" height="60.9"/><path class="cls-1" d="M211.09,239.37l-1.27,0,3.38,12,.87-.13c12.31-1.74,36-9.21,47-14.8l.75-.38-1.54-4.93-.93.26c-3.53,1-10.61,2.83-19.33,4.37V222.57h18.2v-6.5H240v-12.6H229v12.6H212v6.5h17v15A164.69,164.69,0,0,1,211.09,239.37Z"/><path class="cls-1" d="M44,255.47h10.6v-27.8H21.05c.36-1.88.67-3.78.94-5.6H53.43v-28.9H38.06l3.82-3.08-.71-.79a70.4,70.4,0,0,0-10.77-9.8,69,69,0,0,0,4.59-6,195.74,195.74,0,0,1,15.45,17.24l.71.93L59,183.45l-.71-.69C54.42,179,46,172.68,38.38,167.93a26.46,26.46,0,0,0,1.37-2.77l.39-.94-11.3-4.45-.35,1C24.31,172.08,13.34,186.3,1.2,196.09l-.74.6,3.18,4.38.77-.42a83.37,83.37,0,0,0,7.72-4.83v9.25c0,26.45-2.31,37.05-10.29,47.29l-.55.71,3.89,3.74.69-.57a40.64,40.64,0,0,0,10.76-14.36V256h10v-5.6H44Zm-1-39.8H22.61c.12-1.6.2-3.29.28-5H43Zm0-16v4.5H22.93v-4.5ZM25.8,184.53c1.84,2.66,3.8,5.65,5.64,8.64H21.53l-4.46-.93A96.58,96.58,0,0,0,25.8,184.53Zm.83,59.74v-10.1H44v10.1Z"/><path class="cls-1" d="M87.93,244.27v-82.8H77v80.6c0,1.87-.23,2.79-.81,3.3-1.44,1.26-6.07.91-15.26-.29l-.91-.12-1.18,5.3.75.33c6.81,3,12.59,4.55,17.13,4.55a12.6,12.6,0,0,0,7-1.77C86.51,251.56,87.93,248.5,87.93,244.27Z"/><path class="cls-1" d="M186.93,255.47v-55h10.3V194h-30.5V176.58c8.77-.83,18.12-2.26,27.42-6.6l1.32-.62-9-8.67-.67.46A69.19,69.19,0,0,1,165,170.94l-9.29-2.47v28H140.84a91.72,91.72,0,0,0,8-13.46l.49-1-5.58-1.8h9.59v-6.4H135.64l3.51-4.62-.85-.59a69.92,69.92,0,0,0-17-8.53l-.76-.27-2.65,4.42.63.55c3.28,2.85,6.45,5.89,9.45,9H108.43v6.4h7l-2,1.36.38.78c2,4.14,4.27,9.93,5.79,14.16H106.93V203h19.5v9.8h-18.1v6.3h15.51c-3.8,9-11.47,19.86-18,25.34l-.73.62,3.37,4.29.77-.52a67.89,67.89,0,0,0,17.14-16.4v23.47h10.8V229.44c2.6,3.42,5.28,7,7.85,11.07l.66,1,7.83-7.59a44.28,44.28,0,0,1-8.92,19l-.6.75,4.07,3.61.66-.57c12.58-10.75,17.95-26.68,17.95-53.26v-3h9.4v55Zm-52.72-59h-6.87l3.06-1.58-.5-.9a71.43,71.43,0,0,0-10.44-13.82h18.39A103.08,103.08,0,0,1,134.21,196.47Zm21.52,10.3c0,10.66-.45,19.41-2.1,26.94l-.57-.62a74.47,74.47,0,0,0-15.83-12.38v-1.64H154v-6.3h-16.8V203h18.5Z"/><path class="cls-1" d="M30.36,24.43A12.61,12.61,0,0,1,43,11.83h67.36V22.5h1.36V0h-1.36V10.47H43a14,14,0,0,0-14,14v4.42h1.36Z"/><path class="cls-1" d="M301.3,11.83h67.36a12.61,12.61,0,0,1,12.6,12.6v4.42h1.36V24.43a14,14,0,0,0-14-14H301.3V0h-1.36V22.5h1.36Z"/><path class="cls-1" d="M124,18.19a6.21,6.21,0,0,1,.28.61,16.65,16.65,0,0,0,5.07-1.51c.5.19,1.37.53,2.6,1a.46.46,0,0,0,.21.07l.61-1.1,1,1.31a31,31,0,0,0,2.81-2.47,20,20,0,0,0,2.61,2.26,10.81,10.81,0,0,1,.55-1.1c.32-.54.54-.95.68-1.23a10.81,10.81,0,0,1-2.4-2.12,18.1,18.1,0,0,0,1.65-6.58h.61V5h-3.76c.27-.83.52-1.72.75-2.68L134.76,2a19.26,19.26,0,0,1-1.3,4.73c-.09.23-.23.53-.41.89a6.12,6.12,0,0,0-.28.62V6.74h.69V5h-.69V3.11h-3.08v-1h-2.26v1h-3.09V5h-.68V6.74h.68V8.59h3.09v.55h-3.09v3.29h2.54l-.34.48h-2.81v1.71h1.44c-.14.14-.32.34-.55.62s-.5.57-.69.75l2,.55.34-.2a1.72,1.72,0,0,0,.62.13,12.76,12.76,0,0,1-3.36.55A9.67,9.67,0,0,1,124,18.19ZM137.37,7.36a14,14,0,0,1-.83,4.25,15.16,15.16,0,0,1-.89-4.25Zm-7.68-2.81h1v.61h-1Zm0,2h1v.61h-1Zm0,2.05h2.88a1,1,0,0,1,.14.28.66.66,0,0,1,.06.27h-3.08Zm0,1.85h1.1v.62h-1.1Zm-.48,2.19.21-.2h3.35V9.21q.28.88.69,2a3.82,3.82,0,0,1,.27-.41c.1-.18.16-.32.21-.41A16.61,16.61,0,0,0,135.1,14a15.07,15.07,0,0,1-2.67,2.47l-1.23-.41a9,9,0,0,0,1.16-1.44h1.31V12.91H129A1.78,1.78,0,0,0,129.21,12.63ZM126.4,4.55h1v.61h-1Zm0,2.6V6.54h1v.61Zm1.3,7.47h2a6,6,0,0,1-.75.76l-.76-.28-.75-.2Zm-1.37-3.56v-.62h1.1v.62Z"/><path class="cls-1" d="M160.34,8.59l-2.88-.75c-.59,2.15-1.35,4.68-2.26,7.6h-5.48v2.47H161.3V15.44H158C158.74,13.21,159.52,10.92,160.34,8.59Z"/><path class="cls-1" d="M145.54,12.43a15.68,15.68,0,0,0,.89-1.3v7.4h2.74V6.12a23.92,23.92,0,0,0,1.23-3.29L147.66,2a28.67,28.67,0,0,1-3.08,7.13c.22,1.14.43,2.38.61,3.7A4.66,4.66,0,0,0,145.54,12.43Z"/><path class="cls-1" d="M153.62,9.41c-.23-.68-.39-1.21-.48-1.57l-2.6.75q1,3,1.78,6.37l2.74-.82Q154.23,11.07,153.62,9.41Z"/><polygon class="cls-1" points="149.92 7.36 161.02 7.36 161.02 4.75 156.91 4.75 156.91 2.08 153.9 2.08 153.9 4.75 149.92 4.75 149.92 7.36"/><path class="cls-1" d="M172.62,11.4l.21,1.78,7.74-.2a2.6,2.6,0,0,1,.21.27,2.45,2.45,0,0,0,.13.34l1.58-.82a23.11,23.11,0,0,1-1.23-2h.41V5.44h-3.23V4.89h3.77V3.11h-3.77V2h-2.19v1.1h-3.49V4.89h3.49v.55H173v5.34h3.22v.62ZM178.44,7h1.24v.54h-1.24Zm0,1.71h1.24v.62h-1.24Zm0,2.12h1a.79.79,0,0,1,.14.28.66.66,0,0,1,.14.34h-1.31ZM175,7h1.23v.54H175Zm0,2.33V8.66h1.23v.62Z"/><path class="cls-1" d="M174.13,17.09l1,.82,1.09-1.1c.05.19.12.46.21.83s.16.57.2.75h1a8.71,8.71,0,0,1,1-.07c1.33,0,2-.75,1.92-2.12v-.55h1.78V13.8h-1.78v-.55h-2.26v.55h-5.48v1.85h1.3l-.89.75A8.21,8.21,0,0,1,174.13,17.09Zm4.18-1.44V16c0,.37-.16.53-.62.48h-1.16a5,5,0,0,1-.48-.27,6,6,0,0,1-.69-.55Z"/><path class="cls-1" d="M168.1,18.46h2.26V16.4h2.19V14.28h-2.19v-.82h1.85V6.06h-1.85V5.3h2V3.18h-2V2H168.1V3.18H166V5.3h2.13v.76h-1.85v7.4h1.85v.82h-2.33V16.4h2.33Zm2-10.42h.76v.89h-.76Zm0,2.54h.76v.89h-.76ZM167.62,8h.75v.89h-.75Zm0,3.43v-.89h.75v.89Z"/><path class="cls-1" d="M197.58,11.26a1.07,1.07,0,0,1,.07.35c1.41,0,2.4,0,2.95-.07,1.5,0,2.23-.85,2.19-2.54V2.15h-2.47V8.32q.08,1-1,1c-1.09,0-1.83,0-2.19-.07C197.35,10,197.49,10.71,197.58,11.26Z"/><rect class="cls-1" x="196.89" y="2.83" width="2.33" height="5.69"/><path class="cls-1" d="M203.2,15.79h-6.72V14.62h5.76V12.36h-5.76V10.72H195V8.52h1.51V6.26H195V4.62h1.1V2.42h-8.77v2.2h1.37V6.26H187V8.52h1.71a3,3,0,0,1-1.51,2.33c.83.37,1.6.76,2.33,1.17a4.25,4.25,0,0,0,1.65-3.5h1.44v2.81h1.09v1h-5.75v2.26h5.75v1.17H187V18H203.2ZM192.58,6.26h-1.44V4.62h1.44Z"/><path class="cls-1" d="M208.49,10.51a19.93,19.93,0,0,1-.68,6.1q.13.21.54.75l1,1.24.21-.55c.23-.87.39-1.49.48-1.85q1.23,2.11,5.55,1.92c2.19,0,5,.07,8.36.07.28-.92.5-1.63.69-2.13h-9c2-.41,3.11-1.19,3.29-2.33h2.4V11.47h-1.51v.89h-.68c0-.41.06-.8.06-1.16h-1.85v1.16h-.61v-.82h-.55a2.35,2.35,0,0,0,.68-.69h5.08c0,.37,0,.82-.07,1.37v1.24a.68.68,0,0,1-.76.68,11.63,11.63,0,0,1-1.57-.07c.13.51.27,1.08.41,1.72h2c1.28,0,2-.69,2-2.06.05-.46.07-1.21.07-2.26s.07-1.69.07-2.19h-5.9a1.78,1.78,0,0,1,.28-.48l-1-.07a2.49,2.49,0,0,0,1.44-1.44h2.33V5.1h-1.44v.75h-.68v-1h-1.79v1h-.61V5.16H216l.21-.2a1.88,1.88,0,0,0,.41-.41h5.14c0,1.19,0,2-.07,2.46s-.16.48-.62.48h-1.57c0,.23.11.55.2,1a1.67,1.67,0,0,1,.14.48c1,0,1.67,0,2.12-.06,1.28,0,1.9-.6,1.85-1.65.09-1.37.14-2.81.14-4.32h-6a3.45,3.45,0,0,0,.34-.61c.09,0,.14-.1.14-.14l-2.26-.21a6.73,6.73,0,0,1-2.4,2.4c.09.28.25.82.48,1.65a2.35,2.35,0,0,0,.13.48,3.69,3.69,0,0,0,.69-.55V7.29h1.64a6.48,6.48,0,0,1-2.53.62c.27.64.48,1.16.61,1.57a7.06,7.06,0,0,1,.9-.2,10.32,10.32,0,0,1-1.85,1.57,2.17,2.17,0,0,1,.13.48c.18.73.3,1.26.35,1.58a1.69,1.69,0,0,1,.41-.28,1.64,1.64,0,0,1,.34-.27v1.37h1.71c-.32.41-1.28.71-2.88.89.19.41.44.89.76,1.44a7.64,7.64,0,0,1-1.78-.2V13.94h1V11.67h-1V9.89H214V7.63h-1.71V6.12h1.44V3.93h-1.44V2h-2.19V3.93h-1.72V6.12h1.72V7.63H208V9.89h3v4.46a4,4,0,0,1-.69-1.3c0-.69.07-1.47.07-2.34Z"/><path class="cls-1" d="M229.07,7.36a4.91,4.91,0,0,1,.82,1.3,1,1,0,0,1,.27-.07v1h2.2v.55l-2.81.07.2,1.71,7.27-.34V10.44c.18.27.48.66.89,1.17l.48.68A13.58,13.58,0,0,0,240.1,10a10.15,10.15,0,0,0,1.1.82l.61-1.44.07.62c.09,1.33.73,2,1.92,2.06.91,0,1.46-.6,1.64-1.65A13.6,13.6,0,0,0,245.72,8a7.37,7.37,0,0,1-1.3-.48l-.14,1.72c0,.27-.05.43-.14.48s-.16-.21-.2-.48V3.66h-2.81V2.08h-2.2V3.66h-1.3v2h1.3c0,.42-.06.78-.06,1.1a2.22,2.22,0,0,1-.69-.34l-1,1.64,1.1.69A7.55,7.55,0,0,1,237,10.44V10c-.32,0-.76,0-1.31.07h-1.16V9.62h1.92V8.25h-1.92V7.91A.78.78,0,0,0,235,8h1a1.18,1.18,0,0,0,1.37-1.23,6.92,6.92,0,0,1-1-.27h.89V4.89h-2.67V4.41h2.26V2.83h-2.26V2.08h-2.26v.75H230V4.41h2.33v.48h-2.88V6.47h1.85C231,7,230.3,7.27,229.07,7.36Zm12.06-1.72h.68v3l-1-.62A16.36,16.36,0,0,0,241.13,5.64Zm-5.76.83h.82q0,.48-.27.48h-.21c-.23,0-.34-.1-.34-.28Zm-2.6,0H234V7a1.14,1.14,0,0,0,.14.62h-1.78v.62h-1.44A2.7,2.7,0,0,0,232.77,6.47Z"/><path class="cls-1" d="M230.44,18.6c3.93-.73,6.16-2.06,6.71-4h4.46a2.31,2.31,0,0,1-.07.41.86.86,0,0,1-.07.41c0,.55-.39.8-1.16.76-1.42,0-2.43,0-3-.07.09.32.21.87.34,1.64a4.29,4.29,0,0,0,.14.55c.82,0,1.8-.07,2.95-.07,2.46.09,3.63-.77,3.49-2.6.09-.91.16-1.94.21-3.08h-6.79l.14-.76H235l-.07.76h-5.07v2h4.32c-.51.82-2.22,1.42-5.14,1.78a10.4,10.4,0,0,1,1,1.44A8.24,8.24,0,0,1,230.44,18.6Z"/><path class="cls-1" d="M256.29,8.52c.18-.13.45-.32.82-.55q.83-.48,1.23-.75v.89h5.49v-1A18.65,18.65,0,0,0,266,8.39a19.72,19.72,0,0,1,.89-2.33,12,12,0,0,1-4.52-3.23l.41-.68-2.54-.28a11,11,0,0,1-4.25,4.05v-1h-6V7h5.83Zm4.79-4c.51.55,1,1,1.44,1.51h-2.81A10.32,10.32,0,0,0,261.08,4.55Z"/><rect class="cls-1" x="250.53" y="2.42" width="4.8" height="1.85"/><path class="cls-1" d="M262.87,17.36l.2,1a9.4,9.4,0,0,0,1.44-.07c1.05.05,1.55-.54,1.51-1.78V8.87h-9.73v9.45h2v-3.7H259v3h1.71v-3h.76v2.74Zm.27-6.37h.75v1.58h-.75Zm0,3.63h.75v1.44c.05.27-.06.41-.34.41h-.41Zm-4.11-2h-.76V11H259Zm1.71,0V11h.76v1.58Z"/><rect class="cls-1" x="250.26" y="10.03" width="5.28" height="1.85"/><rect class="cls-1" x="250.26" y="7.56" width="5.28" height="1.85"/><path class="cls-1" d="M255.53,18.39V12.5h-5.21v5.89h1.92v-.68h1.37v.68Zm-3.29-2.53V14.48h1.37v1.38Z"/><path class="cls-1" d="M287.07,5.16H276v5.76h11Zm-2.33,4.39h-6.37v-3h6.37Z"/><polygon class="cls-1" points="287.55 3.04 282.96 3.04 282.96 1.87 280.49 1.87 280.49 3.04 275.56 3.04 275.56 4.68 287.55 4.68 287.55 3.04"/><path class="cls-1" d="M271,14.42l.41,2.67a23.31,23.31,0,0,1,2.53-.62l1.92-.55q-.06-1.15,0-2.67l-1.16.28V8.87h.89V6.19h-.89V2.08h-2.4V6.19h-1.1V8.87h1.1v5.27Z"/><path class="cls-1" d="M286.59,16V11.4H276.52V16Zm-7.74-3.29h5.41v.55h-5.41Zm0,1.44h5.41v.55h-5.41Z"/><rect class="cls-1" x="275.35" y="16.47" width="12.34" height="1.51"/><path class="cls-1" d="M283.92,7h-4.73V9.14h4.73Zm-1.78,1.3H281V7.77h1.17Z"/></svg>