<?xml version="1.0" encoding="UTF-8"?>
<svg width="22px" height="22px" viewBox="0 0 22 22" version="1.1" xmlns="http://www.w3.org/2000/svg" xmlns:xlink="http://www.w3.org/1999/xlink">
    <title>icon_audio</title>
    <g id="Page-1" stroke="none" stroke-width="1" fill="none" fill-rule="evenodd">
        <g id="æ›icon" transform="translate(-1178.000000, -1163.000000)">
            <g id="icon_audio" transform="translate(1178.000000, 1163.000000)">
                <rect id="Rectangle" opacity="0.511323475" x="0" y="0" width="22" height="22"></rect>
                <path d="M3.5,15 L3.5,10.2857143 C3.5,6.26192539 6.76192539,3 10.7857143,3 C14.8095032,3 18.0714286,6.26192539 18.0714286,10.2857143 L18.0714286,15" id="Path" stroke="#898989" stroke-width="0.85"></path>
                <path d="M3.5,11.5714286 L6.92857143,11.5714286 C7.16526489,11.5714286 7.35714286,11.7633065 7.35714286,12 L7.35714286,18 L7.35714286,18 L5.21428571,18 C4.26751186,18 3.5,17.2324881 3.5,16.2857143 L3.5,11.5714286 L3.5,11.5714286 Z" id="Rectangle" stroke="#898989" stroke-width="0.85"></path>
                <path d="M14.2142854,11.5714286 L17.6428568,11.5714286 C17.8795503,11.5714286 18.0714283,11.7633065 18.0714283,12 L18.0714283,18 L18.0714283,18 L15.9285711,18 C14.9817973,18 14.2142854,17.2324881 14.2142854,16.2857143 L14.2142854,11.5714286 L14.2142854,11.5714286 Z" id="Rectangle" stroke="#898989" stroke-width="0.85" transform="translate(16.142857, 14.785714) scale(-1, 1) translate(-16.142857, -14.785714) "></path>
            </g>
        </g>
    </g>
</svg>