<?xml version="1.0" encoding="utf-8"?>
<!-- Generator: Adobe Illustrator 25.0.0, SVG Export Plug-In . SVG Version: 6.00 Build 0)  -->
<svg version="1.1" id="圖層_1" xmlns="http://www.w3.org/2000/svg" xmlns:xlink="http://www.w3.org/1999/xlink" x="0px" y="0px"
	 viewBox="0 0 25 23" style="enable-background:new 0 0 25 23;" xml:space="preserve">
<g>
	<path d="M20,2.2h-1.9v-1c0-0.5-0.4-0.9-0.9-0.9s-0.9,0.4-0.9,0.9v1h-2.7v-1c0-0.5-0.4-0.9-0.9-0.9s-0.9,0.4-0.9,0.9v1H9.1v-1
		c0-0.5-0.4-0.9-0.9-0.9S7.4,0.8,7.4,1.2v1H5C4,2.2,3.2,3,3.2,4v17c0,1,0.8,1.8,1.8,1.8h15c1,0,1.8-0.8,1.8-1.8V4
		C21.8,3,21,2.2,20,2.2z M4.8,4c0-0.1,0.1-0.2,0.2-0.2h15c0.1,0,0.2,0.1,0.2,0.2v17c0,0.1-0.1,0.2-0.2,0.2H5c-0.1,0-0.2-0.1-0.2-0.2
		V4z"/>
	<path d="M8.2,9.7H17c0.4,0,0.7-0.3,0.7-0.7S17.4,8.3,17,8.3H8.2C7.8,8.3,7.5,8.6,7.5,9S7.8,9.7,8.2,9.7z"/>
	<path d="M8.2,13.7H17c0.4,0,0.7-0.3,0.7-0.7s-0.3-0.7-0.7-0.7H8.2c-0.4,0-0.7,0.3-0.7,0.7S7.8,13.7,8.2,13.7z"/>
	<path d="M8.2,17.7H17c0.4,0,0.7-0.3,0.7-0.7s-0.3-0.7-0.7-0.7H8.2c-0.4,0-0.7,0.3-0.7,0.7S7.8,17.7,8.2,17.7z"/>
</g>
</svg>
