<?xml version="1.0" encoding="UTF-8"?>
<svg width="8px" height="13px" viewBox="0 0 8 13" version="1.1" xmlns="http://www.w3.org/2000/svg" xmlns:xlink="http://www.w3.org/1999/xlink">
    <title>right-arrow (1) copy 2</title>
    <g id="Page-1" stroke="none" stroke-width="1" fill="none" fill-rule="evenodd">
        <g id="æ›icon" transform="translate(-1187.000000, -714.000000)" fill="#FFFFFF" fill-rule="nonzero">
            <g id="right-arrow-(1)-copy-2" transform="translate(1187.000000, 714.000000)">
                <path d="M7.78278856,5.9927399 L1.72295218,0.207681238 C1.58279556,0.073771758 1.39569865,0 1.19620242,0 C0.996706193,0 0.809609285,0.073771758 0.669452666,0.207681238 L0.223187791,0.633612735 C-0.0671998955,0.911155194 -0.0671998955,1.36224096 0.223187791,1.63936066 L5.31178087,6.4973049 L0.217541672,11.3606393 C0.0773850527,11.4945488 0,11.6730596 0,11.8634076 C0,12.053967 0.0773850527,12.2324778 0.217541672,12.366493 L0.663806546,12.7923188 C0.804073873,12.9262282 0.991060074,13 1.1905563,13 C1.39005253,13 1.57714944,12.9262282 1.71730606,12.7923188 L7.78278856,7.00197559 C7.9232773,6.86764335 8.00044094,6.68828709 8,6.49762197 C8.00044094,6.30621702 7.9232773,6.12696645 7.78278856,5.9927399 Z" id="Path"></path>
            </g>
        </g>
    </g>
</svg>