<?xml version="1.0" encoding="UTF-8"?>
<svg width="22px" height="22px" viewBox="0 0 22 22" version="1.1" xmlns="http://www.w3.org/2000/svg" xmlns:xlink="http://www.w3.org/1999/xlink">
    <title>loupe</title>
    <g id="Page-1" stroke="none" stroke-width="1" fill="none" fill-rule="evenodd">
        <g id="æ›icon" transform="translate(-899.000000, -31.000000)" fill="#000000" fill-rule="nonzero">
            <g id="loupe" transform="translate(899.000000, 31.000000)">
                <path d="M9.68833594,0 C4.34633203,0 0,4.34633203 0,9.68833594 C0,15.0306406 4.34633203,19.3766719 9.68833594,19.3766719 C15.0306406,19.3766719 19.3766719,15.0306406 19.3766719,9.68833594 C19.3766719,4.34633203 15.0306406,0 9.68833594,0 Z M9.68833594,17.5880977 C5.33246484,17.5880977 1.78861719,14.04425 1.78861719,9.68837891 C1.78861719,5.33250781 5.33246484,1.78861719 9.68833594,1.78861719 C14.044207,1.78861719 17.5880547,5.33246484 17.5880547,9.68833594 C17.5880547,14.044207 14.044207,17.5880977 9.68833594,17.5880977 Z" id="Shape"></path>
                <path d="M21.7379766,20.4734062 L16.6106016,15.3460312 C16.2612227,14.9966523 15.6954102,14.9966523 15.3460312,15.3460312 C14.9966523,15.6951094 14.9966523,16.2615234 15.3460312,16.6106016 L20.4734062,21.7379766 C20.6480742,21.9126445 20.8767539,22 21.1056914,22 C21.3343281,22 21.5632656,21.9126445 21.7379766,21.7379766 C22.0873555,21.3888984 22.0873555,20.8224844 21.7379766,20.4734062 Z" id="Path"></path>
            </g>
        </g>
    </g>
</svg>